Titillium Math Sans Pro Zanichelli-Thin.ufo
<glyph name="quotedbl" format="2">
  <advance width="312"/>
  <unicode hex="0022"/>
  <note>
quotedbl
</note>
  <outline>
    <contour>
      <point x="112" y="730" type="line"/>
      <point x="70" y="730" type="line"/>
      <point x="75" y="520" type="line"/>
      <point x="107" y="520" type="line"/>
    </contour>
    <contour>
      <point x="242" y="730" type="line"/>
      <point x="200" y="730" type="line"/>
      <point x="205" y="520" type="line"/>
      <point x="237" y="520" type="line"/>
    </contour>
  </outline>
</glyph>
<glyph name="percent" format="2">
  <advance width="652"/>
  <unicode hex="0025"/>
  <note>
percent
</note>
  <outline>
    <contour>
      <point x="158" y="709" type="curve" smooth="yes"/>
      <point x="91" y="709"/>
      <point x="47" y="669"/>
      <point x="47" y="546" type="curve" smooth="yes"/>
      <point x="47" y="422"/>
      <point x="93" y="380"/>
      <point x="159" y="380" type="curve" smooth="yes"/>
      <point x="225" y="380"/>
      <point x="270" y="422"/>
      <point x="270" y="545" type="curve" smooth="yes"/>
      <point x="270" y="668"/>
      <point x="228" y="709"/>
    </contour>
    <contour>
      <point x="82" y="545" type="curve" smooth="yes"/>
      <point x="82" y="637"/>
      <point x="107" y="678"/>
      <point x="158" y="678" type="curve" smooth="yes"/>
      <point x="211" y="678"/>
      <point x="235" y="635"/>
      <point x="235" y="546" type="curve" smooth="yes"/>
      <point x="235" y="448"/>
      <point x="207" y="412"/>
      <point x="159" y="412" type="curve" smooth="yes"/>
      <point x="111" y="412"/>
      <point x="82" y="448"/>
    </contour>
    <contour>
      <point x="526" y="710" type="line"/>
      <point x="96" y="9" type="line"/>
      <point x="125" y="-10" type="line"/>
      <point x="556" y="692" type="line"/>
    </contour>
    <contour>
      <point x="381" y="158" type="curve" smooth="yes"/>
      <point x="381" y="34"/>
      <point x="427" y="-8"/>
      <point x="493" y="-8" type="curve" smooth="yes"/>
      <point x="559" y="-8"/>
      <point x="604" y="34"/>
      <point x="604" y="157" type="curve" smooth="yes"/>
      <point x="604" y="280"/>
      <point x="562" y="321"/>
      <point x="492" y="321" type="curve" smooth="yes"/>
      <point x="425" y="321"/>
      <point x="381" y="281"/>
    </contour>
    <contour>
      <point x="416" y="157" type="curve" smooth="yes"/>
      <point x="416" y="249"/>
      <point x="441" y="290"/>
      <point x="492" y="290" type="curve" smooth="yes"/>
      <point x="545" y="290"/>
      <point x="569" y="247"/>
      <point x="569" y="158" type="curve" smooth="yes"/>
      <point x="569" y="60"/>
      <point x="541" y="24"/>
      <point x="493" y="24" type="curve" smooth="yes"/>
      <point x="445" y="24"/>
      <point x="416" y="60"/>
    </contour>
  </outline>
</glyph>
<glyph name="parenright" format="2">
  <advance width="230"/>
  <unicode hex="0029"/>
  <note>
parenright
</note>
  <outline>
    <contour>
      <point x="76" y="750" type="curve"/>
      <point x="41" y="750" type="line"/>
      <point x="41" y="750"/>
      <point x="136" y="490"/>
      <point x="136" y="301" type="curve" smooth="yes"/>
      <point x="136" y="115"/>
      <point x="41" y="-125"/>
      <point x="41" y="-125" type="curve"/>
      <point x="76" y="-125" type="line"/>
      <point x="76" y="-125"/>
      <point x="173" y="101"/>
      <point x="173" y="301" type="curve" smooth="yes"/>
      <point x="173" y="501"/>
      <point x="76" y="750"/>
    </contour>
  </outline>
</glyph>
<glyph name="hyphen" format="2">
  <advance width="412"/>
  <unicode hex="002D"/>
  <note>
hyphen
</note>
  <outline>
    <contour>
      <point x="356" y="308" type="line"/>
      <point x="56" y="308" type="line"/>
      <point x="56" y="274" type="line"/>
      <point x="356" y="274" type="line"/>
    </contour>
  </outline>
</glyph>
<glyph name="colon" format="2">
  <advance width="186"/>
  <unicode hex="003A"/>
  <note>
colon
</note>
  <outline>
    <contour>
      <point x="113" y="80" type="line"/>
      <point x="73" y="80" type="line"/>
      <point x="73" y="0" type="line"/>
      <point x="113" y="0" type="line"/>
    </contour>
    <contour>
      <point x="73" y="420" type="line"/>
      <point x="73" y="340" type="line"/>
      <point x="113" y="340" type="line"/>
      <point x="113" y="420" type="line"/>
    </contour>
  </outline>
</glyph>
<glyph name="semicolon" format="2">
  <advance width="231"/>
  <unicode hex="003B"/>
  <note>
semicolon
</note>
  <outline>
    <contour>
      <point x="145" y="80" type="line"/>
      <point x="105" y="80" type="line"/>
      <point x="63" y="-123" type="line"/>
      <point x="94" y="-123" type="line"/>
    </contour>
    <contour>
      <point x="105" y="420" type="line"/>
      <point x="105" y="340" type="line"/>
      <point x="145" y="340" type="line"/>
      <point x="145" y="420" type="line"/>
    </contour>
  </outline>
</glyph>
<glyph name="less" format="2">
  <advance width="560"/>
  <unicode hex="003C"/>
  <note>
less
</note>
  <outline>
    <contour>
      <point x="489" y="96" type="line"/>
      <point x="100" y="291" type="line"/>
      <point x="489" y="486" type="line"/>
      <point x="489" y="525" type="line"/>
      <point x="65" y="308" type="line"/>
      <point x="65" y="274" type="line"/>
      <point x="489" y="57" type="line"/>
    </contour>
  </outline>
</glyph>
<glyph name="E" format="2">
  <advance width="552"/>
  <unicode hex="0045"/>
  <note>
E
</note>
  <anchor x="304" y="0" name="bottom"/>
  <anchor x="458" y="0" name="ogonek"/>
  <anchor x="304" y="700" name="top"/>
  <outline>
    <contour>
      <point x="503" y="700" type="line"/>
      <point x="94" y="700" type="line"/>
      <point x="94" y="0" type="line"/>
      <point x="503" y="0" type="line"/>
      <point x="503" y="34" type="line"/>
      <point x="130" y="34" type="line"/>
      <point x="130" y="341" type="line"/>
      <point x="443" y="341" type="line"/>
      <point x="443" y="375" type="line"/>
      <point x="130" y="375" type="line"/>
      <point x="130" y="666" type="line"/>
      <point x="503" y="666" type="line"/>
    </contour>
  </outline>
</glyph>
<glyph name="H" format="2">
  <advance width="678"/>
  <unicode hex="0048"/>
  <note>
H
</note>
  <anchor x="339" y="0" name="bottom"/>
  <anchor x="339" y="537" name="center"/>
  <anchor x="339" y="700" name="top"/>
  <outline>
    <contour>
      <point x="130" y="339" type="line"/>
      <point x="548" y="339" type="line"/>
      <point x="548" y="0" type="line"/>
      <point x="584" y="0" type="line"/>
      <point x="584" y="700" type="line"/>
      <point x="548" y="700" type="line"/>
      <point x="548" y="373" type="line"/>
      <point x="130" y="373" type="line"/>
      <point x="130" y="700" type="line"/>
      <point x="94" y="700" type="line"/>
      <point x="94" y="0" type="line"/>
      <point x="130" y="0" type="line"/>
    </contour>
  </outline>
</glyph>
<glyph name="I" format="2">
  <advance width="224"/>
  <unicode hex="0049"/>
  <note>
I
</note>
  <anchor x="112" y="0" name="bottom"/>
  <anchor x="112" y="353" name="center"/>
  <anchor x="130" y="0" name="ogonek"/>
  <anchor x="112" y="700" name="top"/>
  <outline>
    <contour>
      <point x="130" y="700" type="line"/>
      <point x="94" y="700" type="line"/>
      <point x="94" y="0" type="line"/>
      <point x="130" y="0" type="line"/>
    </contour>
  </outline>
</glyph>
<glyph name="backslash" format="2">
  <advance width="369"/>
  <unicode hex="005C"/>
  <note>
backslash
</note>
  <outline>
    <contour>
      <point x="349" y="3" type="line"/>
      <point x="54" y="710" type="line"/>
      <point x="21" y="696" type="line"/>
      <point x="316" y="-10" type="line"/>
    </contour>
  </outline>
</glyph>
<glyph name="bracketright" format="2">
  <advance width="304"/>
  <unicode hex="005D"/>
  <note>
bracketright
</note>
  <outline>
    <contour>
      <point x="31" y="748" type="line"/>
      <point x="31" y="716" type="line"/>
      <point x="178" y="716" type="line"/>
      <point x="178" y="-91" type="line"/>
      <point x="31" y="-91" type="line"/>
      <point x="31" y="-123" type="line"/>
      <point x="213" y="-123" type="line"/>
      <point x="213" y="748" type="line"/>
    </contour>
  </outline>
</glyph>
<glyph name="grave" format="2">
  <advance width="306"/>
  <unicode hex="0060"/>
  <note>
grave
</note>
  <outline>
    <contour>
      <point x="243" y="609" type="line"/>
      <point x="256" y="636" type="line"/>
      <point x="65" y="732" type="line"/>
      <point x="50" y="701" type="line"/>
    </contour>
  </outline>
</glyph>
<glyph name="i" format="2">
  <advance width="199"/>
  <unicode hex="0069"/>
  <note>
i
</note>
  <anchor x="100" y="0" name="bottom"/>
  <anchor x="117" y="0" name="ogonek"/>
  <anchor x="100" y="700" name="top"/>
  <outline>
    <contour>
      <point x="117" y="500" type="line"/>
      <point x="82" y="500" type="line"/>
      <point x="82" y="0" type="line"/>
      <point x="117" y="0" type="line"/>
    </contour>
    <contour>
      <point x="80" y="700" type="line"/>
      <point x="80" y="625" type="line"/>
      <point x="119" y="625" type="line"/>
      <point x="119" y="700" type="line"/>
    </contour>
  </outline>
</glyph>
<glyph name="j" format="2">
  <advance width="199"/>
  <unicode hex="006A"/>
  <note>
j
</note>
  <anchor x="99" y="-230" name="bottom"/>
  <anchor x="99" y="700" name="top"/>
  <outline>
    <contour>
      <point x="117" y="500" type="line"/>
      <point x="82" y="500" type="line"/>
      <point x="82" y="-16" type="line" smooth="yes"/>
      <point x="82" y="-120"/>
      <point x="58" y="-147"/>
      <point x="-56" y="-209" type="curve"/>
      <point x="-42" y="-240" type="line"/>
      <point x="87" y="-174"/>
      <point x="117" y="-129"/>
      <point x="117" y="-17" type="curve" smooth="yes"/>
    </contour>
    <contour>
      <point x="79" y="700" type="line"/>
      <point x="79" y="625" type="line"/>
      <point x="118" y="625" type="line"/>
      <point x="118" y="700" type="line"/>
    </contour>
  </outline>
</glyph>
<glyph name="braceright" format="2">
  <advance width="343"/>
  <unicode hex="007D"/>
  <note>
braceright
</note>
  <outline>
    <contour>
      <point x="166" y="169" type="curve" smooth="yes"/>
      <point x="168" y="126"/>
      <point x="173" y="88"/>
      <point x="173" y="49" type="curve" smooth="yes"/>
      <point x="173" y="-39"/>
      <point x="145" y="-92"/>
      <point x="31" y="-97" type="curve"/>
      <point x="33" y="-129" type="line"/>
      <point x="159" y="-124"/>
      <point x="208" y="-70"/>
      <point x="208" y="49" type="curve" smooth="yes"/>
      <point x="208" y="88"/>
      <point x="201" y="147"/>
      <point x="201" y="176" type="curve" smooth="yes"/>
      <point x="201" y="240"/>
      <point x="229" y="272"/>
      <point x="305" y="294" type="curve"/>
      <point x="305" y="326" type="line"/>
      <point x="228" y="345"/>
      <point x="201" y="381"/>
      <point x="201" y="446" type="curve" smooth="yes"/>
      <point x="201" y="478"/>
      <point x="208" y="541"/>
      <point x="208" y="578" type="curve" smooth="yes"/>
      <point x="208" y="697"/>
      <point x="159" y="749"/>
      <point x="33" y="754" type="curve"/>
      <point x="31" y="722" type="line"/>
      <point x="145" y="717"/>
      <point x="173" y="668"/>
      <point x="173" y="578" type="curve" smooth="yes"/>
      <point x="173" y="545"/>
      <point x="166" y="488"/>
      <point x="166" y="455" type="curve" smooth="yes"/>
      <point x="166" y="367"/>
      <point x="193" y="335"/>
      <point x="266" y="311" type="curve"/>
      <point x="193" y="287"/>
      <point x="162" y="253"/>
    </contour>
  </outline>
</glyph>
<glyph name="exclamdown" format="2">
  <advance width="200"/>
  <unicode hex="00A1"/>
  <note>
exclamdown
</note>
  <outline>
    <contour>
      <point x="80" y="500" type="line"/>
      <point x="80" y="420" type="line"/>
      <point x="120" y="420" type="line"/>
      <point x="120" y="500" type="line"/>
    </contour>
    <contour>
      <point x="83" y="286" type="line"/>
      <point x="83" y="-200" type="line"/>
      <point x="117" y="-200" type="line"/>
      <point x="117" y="286" type="line"/>
    </contour>
  </outline>
</glyph>
<glyph name="guillemotleft" format="2">
  <advance width="465"/>
  <unicode hex="00AB"/>
  <note>
guillemotleft
</note>
  <outline>
    <contour>
      <point x="248" y="153" type="line"/>
      <point x="85" y="291" type="line"/>
      <point x="248" y="429" type="line"/>
      <point x="231" y="455" type="line"/>
      <point x="54" y="306" type="line"/>
      <point x="54" y="276" type="line"/>
      <point x="231" y="127" type="line"/>
    </contour>
    <contour>
      <point x="204" y="306" type="line"/>
      <point x="204" y="277" type="line"/>
      <point x="378" y="131" type="line"/>
      <point x="394" y="156" type="line"/>
      <point x="234" y="291" type="line"/>
      <point x="394" y="427" type="line"/>
      <point x="378" y="452" type="line"/>
    </contour>
  </outline>
</glyph>
<glyph name="uni00AD" format="2">
  <advance width="0"/>
  <unicode hex="00AD"/>
  <note>
uni00AD
</note>
  <outline>
    <contour>
      <point x="150" y="308" type="line"/>
      <point x="-150" y="308" type="line"/>
      <point x="-150" y="274" type="line"/>
      <point x="150" y="274" type="line"/>
    </contour>
  </outline>
</glyph>
<glyph name="macron" format="2">
  <advance width="367"/>
  <unicode hex="00AF"/>
  <note>
macron
</note>
  <outline>
    <contour>
      <point x="317" y="674" type="line"/>
      <point x="50" y="674" type="line"/>
      <point x="50" y="642" type="line"/>
      <point x="317" y="642" type="line"/>
    </contour>
  </outline>
</glyph>
<glyph name="uni00B2" format="2">
  <advance width="250"/>
  <unicode hex="00B2"/>
  <note>
uni00B2
</note>
  <outline>
    <contour>
      <point x="26" y="449" type="line"/>
      <point x="26" y="418" type="line"/>
      <point x="220" y="418" type="line"/>
      <point x="220" y="451" type="line"/>
      <point x="69" y="451" type="line"/>
      <point x="149" y="534" type="line" smooth="yes"/>
      <point x="193" y="579"/>
      <point x="213" y="607"/>
      <point x="213" y="654" type="curve" smooth="yes"/>
      <point x="213" y="711"/>
      <point x="182" y="739"/>
      <point x="122" y="739" type="curve" smooth="yes"/>
      <point x="80" y="739"/>
      <point x="29" y="726"/>
      <point x="29" y="726" type="curve"/>
      <point x="31" y="697" type="line"/>
      <point x="31" y="697"/>
      <point x="87" y="707"/>
      <point x="121" y="707" type="curve" smooth="yes"/>
      <point x="153" y="707"/>
      <point x="178" y="691"/>
      <point x="178" y="655" type="curve" smooth="yes"/>
      <point x="178" y="615"/>
      <point x="153" y="587"/>
      <point x="124" y="556" type="curve" smooth="yes"/>
    </contour>
  </outline>
</glyph>
<glyph name="uni00B3" format="2">
  <advance width="264"/>
  <unicode hex="00B3"/>
  <note>
uni00B3
</note>
  <outline>
    <contour>
      <point x="30" y="728" type="curve"/>
      <point x="33" y="697" type="line"/>
      <point x="33" y="697"/>
      <point x="83" y="706"/>
      <point x="129" y="706" type="curve" smooth="yes"/>
      <point x="173" y="706"/>
      <point x="187" y="689"/>
      <point x="187" y="659" type="curve" smooth="yes"/>
      <point x="187" y="624"/>
      <point x="158" y="596"/>
      <point x="136" y="596" type="curve" smooth="yes"/>
      <point x="71" y="596" type="line"/>
      <point x="71" y="563" type="line"/>
      <point x="136" y="563" type="line" smooth="yes"/>
      <point x="170" y="563"/>
      <point x="196" y="547"/>
      <point x="196" y="501" type="curve" smooth="yes"/>
      <point x="196" y="467"/>
      <point x="177" y="441"/>
      <point x="133" y="441" type="curve" smooth="yes"/>
      <point x="83" y="441"/>
      <point x="29" y="451"/>
      <point x="29" y="451" type="curve"/>
      <point x="26" y="420" type="line"/>
      <point x="26" y="420"/>
      <point x="84" y="408"/>
      <point x="133" y="408" type="curve" smooth="yes"/>
      <point x="196" y="408"/>
      <point x="231" y="438"/>
      <point x="231" y="502" type="curve" smooth="yes"/>
      <point x="231" y="558"/>
      <point x="211" y="573"/>
      <point x="176" y="583" type="curve"/>
      <point x="182" y="585"/>
      <point x="222" y="603"/>
      <point x="222" y="659" type="curve" smooth="yes"/>
      <point x="222" y="715"/>
      <point x="193" y="739"/>
      <point x="128" y="739" type="curve" smooth="yes"/>
      <point x="83" y="739"/>
      <point x="30" y="728"/>
    </contour>
  </outline>
</glyph>
<glyph name="acute" format="2">
  <advance width="306"/>
  <unicode hex="00B4"/>
  <note>
acute
</note>
  <outline>
    <contour>
      <point x="241" y="732" type="line"/>
      <point x="50" y="636" type="line"/>
      <point x="63" y="609" type="line"/>
      <point x="256" y="701" type="line"/>
    </contour>
  </outline>
</glyph>
<glyph name="cedilla" format="2">
  <advance width="263"/>
  <unicode hex="00B8"/>
  <note>
cedilla
</note>
  <outline>
    <contour>
      <point x="213" y="-127" type="curve" smooth="yes"/>
      <point x="213" y="-71"/>
      <point x="180" y="-57"/>
      <point x="113" y="-57" type="curve"/>
      <point x="121" y="1" type="line"/>
      <point x="94" y="1" type="line"/>
      <point x="83" y="-85" type="line"/>
      <point x="134" y="-85" type="line" smooth="yes"/>
      <point x="159" y="-85"/>
      <point x="178" y="-96"/>
      <point x="178" y="-127" type="curve" smooth="yes"/>
      <point x="178" y="-162"/>
      <point x="159" y="-173"/>
      <point x="130" y="-173" type="curve" smooth="yes"/>
      <point x="96" y="-173"/>
      <point x="52" y="-169"/>
      <point x="52" y="-169" type="curve"/>
      <point x="50" y="-197" type="line"/>
      <point x="50" y="-197"/>
      <point x="87" y="-201"/>
      <point x="131" y="-201" type="curve" smooth="yes"/>
      <point x="179" y="-201"/>
      <point x="213" y="-180"/>
    </contour>
  </outline>
</glyph>
<glyph name="uni00B9" format="2">
  <advance width="192"/>
  <unicode hex="00B9"/>
  <note>
uni00B9
</note>
  <outline>
    <contour>
      <point x="145" y="730" type="line"/>
      <point x="110" y="730" type="line"/>
      <point x="11" y="663" type="line"/>
      <point x="28" y="635" type="line"/>
      <point x="110" y="691" type="line"/>
      <point x="110" y="418" type="line"/>
      <point x="145" y="418" type="line"/>
    </contour>
  </outline>
</glyph>
<glyph name="guillemotright" format="2">
  <advance width="465"/>
  <unicode hex="00BB"/>
  <note>
guillemotright
</note>
  <outline>
    <contour>
      <point x="217" y="429" type="line"/>
      <point x="380" y="291" type="line"/>
      <point x="217" y="153" type="line"/>
      <point x="234" y="127" type="line"/>
      <point x="411" y="276" type="line"/>
      <point x="411" y="306" type="line"/>
      <point x="234" y="455" type="line"/>
    </contour>
    <contour>
      <point x="231" y="291" type="line"/>
      <point x="71" y="156" type="line"/>
      <point x="87" y="131" type="line"/>
      <point x="261" y="277" type="line"/>
      <point x="261" y="306" type="line"/>
      <point x="87" y="452" type="line"/>
      <point x="71" y="427" type="line"/>
    </contour>
  </outline>
</glyph>
<glyph name="onequarter" format="2">
  <advance width="586"/>
  <unicode hex="00BC"/>
  <note>
onequarter
</note>
  <outline>
    <contour>
      <point x="177" y="700" type="line"/>
      <point x="142" y="700" type="line"/>
      <point x="43" y="633" type="line"/>
      <point x="60" y="605" type="line"/>
      <point x="142" y="661" type="line"/>
      <point x="142" y="388" type="line"/>
      <point x="177" y="388" type="line"/>
    </contour>
    <contour>
      <point x="472" y="710" type="line"/>
      <point x="42" y="9" type="line"/>
      <point x="71" y="-10" type="line"/>
      <point x="502" y="692" type="line"/>
    </contour>
    <contour>
      <point x="332" y="88" type="line"/>
      <point x="332" y="57" type="line"/>
      <point x="478" y="57" type="line"/>
      <point x="478" y="0" type="line"/>
      <point x="514" y="0" type="line"/>
      <point x="514" y="57" type="line"/>
      <point x="551" y="57" type="line"/>
      <point x="551" y="90" type="line"/>
      <point x="514" y="90" type="line"/>
      <point x="514" y="178" type="line"/>
      <point x="478" y="178" type="line"/>
      <point x="478" y="90" type="line"/>
      <point x="372" y="90" type="line"/>
      <point x="459" y="312" type="line"/>
      <point x="421" y="312" type="line"/>
    </contour>
  </outline>
</glyph>
<glyph name="onehalf" format="2">
  <advance width="582"/>
  <unicode hex="00BD"/>
  <note>
onehalf
</note>
  <outline>
    <contour>
      <point x="177" y="700" type="line"/>
      <point x="142" y="700" type="line"/>
      <point x="43" y="633" type="line"/>
      <point x="60" y="605" type="line"/>
      <point x="142" y="661" type="line"/>
      <point x="142" y="388" type="line"/>
      <point x="177" y="388" type="line"/>
    </contour>
    <contour>
      <point x="472" y="710" type="line"/>
      <point x="42" y="9" type="line"/>
      <point x="71" y="-10" type="line"/>
      <point x="502" y="692" type="line"/>
    </contour>
    <contour>
      <point x="337" y="31" type="line"/>
      <point x="337" y="0" type="line"/>
      <point x="531" y="0" type="line"/>
      <point x="531" y="33" type="line"/>
      <point x="380" y="33" type="line"/>
      <point x="460" y="116" type="line" smooth="yes"/>
      <point x="504" y="161"/>
      <point x="524" y="189"/>
      <point x="524" y="236" type="curve" smooth="yes"/>
      <point x="524" y="293"/>
      <point x="493" y="321"/>
      <point x="433" y="321" type="curve" smooth="yes"/>
      <point x="391" y="321"/>
      <point x="340" y="308"/>
      <point x="340" y="308" type="curve"/>
      <point x="342" y="279" type="line"/>
      <point x="342" y="279"/>
      <point x="398" y="289"/>
      <point x="432" y="289" type="curve" smooth="yes"/>
      <point x="464" y="289"/>
      <point x="489" y="273"/>
      <point x="489" y="237" type="curve" smooth="yes"/>
      <point x="489" y="197"/>
      <point x="464" y="169"/>
      <point x="435" y="138" type="curve" smooth="yes"/>
    </contour>
  </outline>
</glyph>
<glyph name="threequarters" format="2">
  <advance width="636"/>
  <unicode hex="00BE"/>
  <note>
threequarters
</note>
  <outline>
    <contour>
      <point x="56" y="698" type="curve"/>
      <point x="59" y="667" type="line"/>
      <point x="59" y="667"/>
      <point x="109" y="676"/>
      <point x="155" y="676" type="curve" smooth="yes"/>
      <point x="199" y="676"/>
      <point x="213" y="659"/>
      <point x="213" y="629" type="curve" smooth="yes"/>
      <point x="213" y="594"/>
      <point x="184" y="566"/>
      <point x="162" y="566" type="curve" smooth="yes"/>
      <point x="97" y="566" type="line"/>
      <point x="97" y="533" type="line"/>
      <point x="162" y="533" type="line" smooth="yes"/>
      <point x="196" y="533"/>
      <point x="222" y="517"/>
      <point x="222" y="471" type="curve" smooth="yes"/>
      <point x="222" y="437"/>
      <point x="203" y="411"/>
      <point x="159" y="411" type="curve" smooth="yes"/>
      <point x="109" y="411"/>
      <point x="55" y="421"/>
      <point x="55" y="421" type="curve"/>
      <point x="52" y="390" type="line"/>
      <point x="52" y="390"/>
      <point x="110" y="378"/>
      <point x="159" y="378" type="curve" smooth="yes"/>
      <point x="222" y="378"/>
      <point x="257" y="408"/>
      <point x="257" y="472" type="curve" smooth="yes"/>
      <point x="257" y="528"/>
      <point x="237" y="543"/>
      <point x="202" y="553" type="curve"/>
      <point x="208" y="555"/>
      <point x="248" y="573"/>
      <point x="248" y="629" type="curve" smooth="yes"/>
      <point x="248" y="685"/>
      <point x="219" y="709"/>
      <point x="154" y="709" type="curve" smooth="yes"/>
      <point x="109" y="709"/>
      <point x="56" y="698"/>
    </contour>
    <contour>
      <point x="522" y="710" type="line"/>
      <point x="92" y="9" type="line"/>
      <point x="121" y="-10" type="line"/>
      <point x="552" y="692" type="line"/>
    </contour>
    <contour>
      <point x="382" y="88" type="line"/>
      <point x="382" y="57" type="line"/>
      <point x="528" y="57" type="line"/>
      <point x="528" y="0" type="line"/>
      <point x="564" y="0" type="line"/>
      <point x="564" y="57" type="line"/>
      <point x="601" y="57" type="line"/>
      <point x="601" y="90" type="line"/>
      <point x="564" y="90" type="line"/>
      <point x="564" y="178" type="line"/>
      <point x="528" y="178" type="line"/>
      <point x="528" y="90" type="line"/>
      <point x="422" y="90" type="line"/>
      <point x="509" y="312" type="line"/>
      <point x="471" y="312" type="line"/>
    </contour>
  </outline>
</glyph>
<glyph name="questiondown" format="2">
  <advance width="425"/>
  <unicode hex="00BF"/>
  <note>
questiondown
</note>
  <outline>
    <contour>
      <point x="36" y="-46" type="curve" smooth="yes"/>
      <point x="36" y="-176"/>
      <point x="115" y="-210"/>
      <point x="230" y="-210" type="curve" smooth="yes"/>
      <point x="332" y="-210"/>
      <point x="402" y="-183"/>
      <point x="402" y="-183" type="curve"/>
      <point x="397" y="-149" type="line"/>
      <point x="397" y="-149"/>
      <point x="336" y="-177"/>
      <point x="233" y="-177" type="curve" smooth="yes"/>
      <point x="142" y="-177"/>
      <point x="71" y="-155"/>
      <point x="71" y="-48" type="curve" smooth="yes"/>
      <point x="71" y="10"/>
      <point x="92" y="44"/>
      <point x="163" y="108" type="curve" smooth="yes"/>
      <point x="215" y="155"/>
      <point x="270" y="203"/>
      <point x="270" y="268" type="curve" smooth="yes"/>
      <point x="270" y="287"/>
      <point x="269" y="309"/>
      <point x="269" y="309" type="curve"/>
      <point x="235" y="309" type="line"/>
      <point x="235" y="271" type="line" smooth="yes"/>
      <point x="235" y="215"/>
      <point x="188" y="175"/>
      <point x="137" y="130" type="curve" smooth="yes"/>
      <point x="53" y="56"/>
      <point x="36" y="19"/>
    </contour>
    <contour>
      <point x="232" y="500" type="line"/>
      <point x="232" y="420" type="line"/>
      <point x="272" y="420" type="line"/>
      <point x="272" y="500" type="line"/>
    </contour>
  </outline>
</glyph>
<glyph name="Aacute" format="2">
  <advance width="590"/>
  <unicode hex="00C1"/>
  <note>
Aacute
</note>
  <anchor x="295" y="0" name="bottom"/>
  <anchor x="563" y="0" name="ogonek"/>
  <anchor x="295" y="912" name="top"/>
  <outline>
    <contour>
      <point x="280" y="666" type="line"/>
      <point x="310" y="666" type="line"/>
      <point x="446" y="249" type="line"/>
      <point x="144" y="249" type="line"/>
    </contour>
    <contour>
      <point x="255" y="700" type="line"/>
      <point x="27" y="0" type="line"/>
      <point x="63" y="0" type="line"/>
      <point x="133" y="215" type="line"/>
      <point x="457" y="215" type="line"/>
      <point x="527" y="0" type="line"/>
      <point x="563" y="0" type="line"/>
      <point x="335" y="700" type="line"/>
    </contour>
    <contour>
      <point x="383" y="912" type="line"/>
      <point x="192" y="816" type="line"/>
      <point x="205" y="789" type="line"/>
      <point x="398" y="881" type="line"/>
    </contour>
  </outline>
</glyph>
<glyph name="Acircumflex" format="2">
  <advance width="590"/>
  <unicode hex="00C2"/>
  <note>
Acircumflex
</note>
  <anchor x="295" y="0" name="bottom"/>
  <anchor x="563" y="0" name="ogonek"/>
  <anchor x="295" y="908" name="top"/>
  <outline>
    <contour>
      <point x="280" y="666" type="line"/>
      <point x="310" y="666" type="line"/>
      <point x="446" y="249" type="line"/>
      <point x="144" y="249" type="line"/>
    </contour>
    <contour>
      <point x="255" y="700" type="line"/>
      <point x="27" y="0" type="line"/>
      <point x="63" y="0" type="line"/>
      <point x="133" y="215" type="line"/>
      <point x="457" y="215" type="line"/>
      <point x="527" y="0" type="line"/>
      <point x="563" y="0" type="line"/>
      <point x="335" y="700" type="line"/>
    </contour>
    <contour>
      <point x="278" y="908" type="line"/>
      <point x="159" y="793" type="line"/>
      <point x="202" y="793" type="line"/>
      <point x="295" y="878" type="line"/>
      <point x="388" y="793" type="line"/>
      <point x="431" y="793" type="line"/>
      <point x="312" y="908" type="line"/>
    </contour>
  </outline>
</glyph>
<glyph name="Atilde" format="2">
  <advance width="590"/>
  <unicode hex="00C3"/>
  <note>
Atilde
</note>
  <anchor x="295" y="0" name="bottom"/>
  <anchor x="563" y="0" name="ogonek"/>
  <anchor x="295" y="895" name="top"/>
  <outline>
    <contour>
      <point x="280" y="666" type="line"/>
      <point x="310" y="666" type="line"/>
      <point x="446" y="249" type="line"/>
      <point x="144" y="249" type="line"/>
    </contour>
    <contour>
      <point x="255" y="700" type="line"/>
      <point x="27" y="0" type="line"/>
      <point x="63" y="0" type="line"/>
      <point x="133" y="215" type="line"/>
      <point x="457" y="215" type="line"/>
      <point x="527" y="0" type="line"/>
      <point x="563" y="0" type="line"/>
      <point x="335" y="700" type="line"/>
    </contour>
    <contour>
      <point x="137" y="841" type="curve"/>
      <point x="154" y="819" type="line"/>
      <point x="154" y="819"/>
      <point x="203" y="864"/>
      <point x="224" y="864" type="curve" smooth="yes"/>
      <point x="256" y="864"/>
      <point x="331" y="810"/>
      <point x="371" y="810" type="curve" smooth="yes"/>
      <point x="402" y="810"/>
      <point x="452" y="861"/>
      <point x="452" y="861" type="curve"/>
      <point x="435" y="883" type="line"/>
      <point x="435" y="883"/>
      <point x="391" y="842"/>
      <point x="373" y="842" type="curve" smooth="yes"/>
      <point x="341" y="842"/>
      <point x="266" y="895"/>
      <point x="226" y="895" type="curve" smooth="yes"/>
      <point x="193" y="895"/>
      <point x="137" y="841"/>
    </contour>
  </outline>
</glyph>
<glyph name="Adieresis" format="2">
  <advance width="590"/>
  <unicode hex="00C4"/>
  <note>
Adieresis
</note>
  <anchor x="295" y="0" name="bottom"/>
  <anchor x="563" y="0" name="ogonek"/>
  <anchor x="295" y="880" name="top"/>
  <outline>
    <contour>
      <point x="280" y="666" type="line"/>
      <point x="310" y="666" type="line"/>
      <point x="446" y="249" type="line"/>
      <point x="144" y="249" type="line"/>
    </contour>
    <contour>
      <point x="255" y="700" type="line"/>
      <point x="27" y="0" type="line"/>
      <point x="63" y="0" type="line"/>
      <point x="133" y="215" type="line"/>
      <point x="457" y="215" type="line"/>
      <point x="527" y="0" type="line"/>
      <point x="563" y="0" type="line"/>
      <point x="335" y="700" type="line"/>
    </contour>
    <contour>
      <point x="182" y="880" type="line"/>
      <point x="182" y="822" type="line"/>
      <point x="222" y="822" type="line"/>
      <point x="222" y="880" type="line"/>
    </contour>
    <contour>
      <point x="367" y="880" type="line"/>
      <point x="367" y="822" type="line"/>
      <point x="407" y="822" type="line"/>
      <point x="407" y="880" type="line"/>
    </contour>
  </outline>
</glyph>
<glyph name="Aring" format="2">
  <advance width="590"/>
  <unicode hex="00C5"/>
  <note>
Aring
</note>
  <anchor x="295" y="0" name="bottom"/>
  <anchor x="563" y="0" name="ogonek"/>
  <anchor x="295" y="945" name="top"/>
  <outline>
    <contour>
      <point x="280" y="666" type="line"/>
      <point x="310" y="666" type="line"/>
      <point x="446" y="249" type="line"/>
      <point x="144" y="249" type="line"/>
    </contour>
    <contour>
      <point x="255" y="700" type="line"/>
      <point x="27" y="0" type="line"/>
      <point x="63" y="0" type="line"/>
      <point x="133" y="215" type="line"/>
      <point x="457" y="215" type="line"/>
      <point x="527" y="0" type="line"/>
      <point x="563" y="0" type="line"/>
      <point x="335" y="700" type="line"/>
    </contour>
    <contour>
      <point x="200" y="850" type="curve" smooth="yes"/>
      <point x="200" y="797"/>
      <point x="242" y="755"/>
      <point x="296" y="755" type="curve" smooth="yes"/>
      <point x="350" y="755"/>
      <point x="391" y="797"/>
      <point x="391" y="850" type="curve" smooth="yes"/>
      <point x="391" y="904"/>
      <point x="350" y="945"/>
      <point x="296" y="945" type="curve" smooth="yes"/>
      <point x="242" y="945"/>
      <point x="200" y="904"/>
    </contour>
    <contour>
      <point x="234" y="850" type="curve" smooth="yes"/>
      <point x="234" y="887"/>
      <point x="261" y="913"/>
      <point x="296" y="913" type="curve" smooth="yes"/>
      <point x="331" y="913"/>
      <point x="358" y="887"/>
      <point x="358" y="850" type="curve" smooth="yes"/>
      <point x="358" y="814"/>
      <point x="331" y="786"/>
      <point x="296" y="786" type="curve" smooth="yes"/>
      <point x="261" y="786"/>
      <point x="234" y="814"/>
    </contour>
  </outline>
</glyph>
<glyph name="AE" format="2">
  <advance width="859"/>
  <unicode hex="00C6"/>
  <note>
AE
</note>
  <anchor x="559" y="0" name="bottom"/>
  <anchor x="559" y="700" name="top"/>
  <outline>
    <contour>
      <point x="314" y="666" type="line"/>
      <point x="404" y="666" type="line"/>
      <point x="404" y="249" type="line"/>
      <point x="146" y="249" type="line"/>
    </contour>
    <contour>
      <point x="290" y="700" type="line"/>
      <point x="10" y="0" type="line"/>
      <point x="46" y="0" type="line"/>
      <point x="133" y="215" type="line"/>
      <point x="404" y="215" type="line"/>
      <point x="404" y="0" type="line"/>
      <point x="813" y="0" type="line"/>
      <point x="813" y="34" type="line"/>
      <point x="440" y="34" type="line"/>
      <point x="440" y="341" type="line"/>
      <point x="753" y="341" type="line"/>
      <point x="753" y="375" type="line"/>
      <point x="440" y="375" type="line"/>
      <point x="440" y="666" type="line"/>
      <point x="813" y="666" type="line"/>
      <point x="813" y="700" type="line"/>
    </contour>
  </outline>
</glyph>
<glyph name="Ccedilla" format="2">
  <advance width="537"/>
  <unicode hex="00C7"/>
  <note>
Ccedilla
</note>
  <anchor x="331" y="-201" name="bottom"/>
  <anchor x="327" y="700" name="top"/>
  <outline>
    <contour>
      <point x="499" y="11" type="curve"/>
      <point x="496" y="45" type="line"/>
      <point x="444" y="34"/>
      <point x="377" y="24"/>
      <point x="321" y="24" type="curve" smooth="yes"/>
      <point x="130" y="24"/>
      <point x="103" y="141"/>
      <point x="103" y="359" type="curve" smooth="yes"/>
      <point x="103" y="540"/>
      <point x="122" y="676"/>
      <point x="314" y="676" type="curve" smooth="yes"/>
      <point x="370" y="676"/>
      <point x="453" y="665"/>
      <point x="496" y="656" type="curve"/>
      <point x="499" y="690" type="line"/>
      <point x="453" y="700"/>
      <point x="377" y="710"/>
      <point x="318" y="710" type="curve" smooth="yes"/>
      <point x="94" y="710"/>
      <point x="65" y="559"/>
      <point x="65" y="359" type="curve" smooth="yes"/>
      <point x="65" y="130"/>
      <point x="103" y="2"/>
      <point x="293" y="-9" type="curve"/>
      <point x="283" y="-85" type="line"/>
      <point x="334" y="-85" type="line" smooth="yes"/>
      <point x="359" y="-85"/>
      <point x="378" y="-96"/>
      <point x="378" y="-127" type="curve" smooth="yes"/>
      <point x="378" y="-162"/>
      <point x="359" y="-173"/>
      <point x="330" y="-173" type="curve" smooth="yes"/>
      <point x="296" y="-173"/>
      <point x="252" y="-169"/>
      <point x="252" y="-169" type="curve"/>
      <point x="250" y="-197" type="line"/>
      <point x="250" y="-197"/>
      <point x="287" y="-201"/>
      <point x="331" y="-201" type="curve" smooth="yes"/>
      <point x="379" y="-201"/>
      <point x="413" y="-180"/>
      <point x="413" y="-127" type="curve" smooth="yes"/>
      <point x="413" y="-71"/>
      <point x="380" y="-57"/>
      <point x="313" y="-57" type="curve"/>
      <point x="319" y="-10" type="line"/>
      <point x="321" y="-10" type="line" smooth="yes"/>
      <point x="381" y="-10"/>
      <point x="449" y="0"/>
    </contour>
  </outline>
</glyph>
<glyph name="Egrave" format="2">
  <advance width="552"/>
  <unicode hex="00C8"/>
  <note>
Egrave
</note>
  <anchor x="304" y="0" name="bottom"/>
  <anchor x="458" y="0" name="ogonek"/>
  <anchor x="304" y="912" name="top"/>
  <outline>
    <contour>
      <point x="503" y="700" type="line"/>
      <point x="94" y="700" type="line"/>
      <point x="94" y="0" type="line"/>
      <point x="503" y="0" type="line"/>
      <point x="503" y="34" type="line"/>
      <point x="130" y="34" type="line"/>
      <point x="130" y="341" type="line"/>
      <point x="443" y="341" type="line"/>
      <point x="443" y="375" type="line"/>
      <point x="130" y="375" type="line"/>
      <point x="130" y="666" type="line"/>
      <point x="503" y="666" type="line"/>
    </contour>
    <contour>
      <point x="216" y="912" type="line"/>
      <point x="201" y="881" type="line"/>
      <point x="394" y="789" type="line"/>
      <point x="407" y="816" type="line"/>
    </contour>
  </outline>
</glyph>
<glyph name="Eacute" format="2">
  <advance width="552"/>
  <unicode hex="00C9"/>
  <note>
Eacute
</note>
  <anchor x="304" y="0" name="bottom"/>
  <anchor x="458" y="0" name="ogonek"/>
  <anchor x="304" y="912" name="top"/>
  <outline>
    <contour>
      <point x="503" y="700" type="line"/>
      <point x="94" y="700" type="line"/>
      <point x="94" y="0" type="line"/>
      <point x="503" y="0" type="line"/>
      <point x="503" y="34" type="line"/>
      <point x="130" y="34" type="line"/>
      <point x="130" y="341" type="line"/>
      <point x="443" y="341" type="line"/>
      <point x="443" y="375" type="line"/>
      <point x="130" y="375" type="line"/>
      <point x="130" y="666" type="line"/>
      <point x="503" y="666" type="line"/>
    </contour>
    <contour>
      <point x="392" y="912" type="line"/>
      <point x="201" y="816" type="line"/>
      <point x="214" y="789" type="line"/>
      <point x="407" y="881" type="line"/>
    </contour>
  </outline>
</glyph>
<glyph name="Ecircumflex" format="2">
  <advance width="552"/>
  <unicode hex="00CA"/>
  <note>
Ecircumflex
</note>
  <anchor x="304" y="0" name="bottom"/>
  <anchor x="458" y="0" name="ogonek"/>
  <anchor x="304" y="908" name="top"/>
  <outline>
    <contour>
      <point x="503" y="700" type="line"/>
      <point x="94" y="700" type="line"/>
      <point x="94" y="0" type="line"/>
      <point x="503" y="0" type="line"/>
      <point x="503" y="34" type="line"/>
      <point x="130" y="34" type="line"/>
      <point x="130" y="341" type="line"/>
      <point x="443" y="341" type="line"/>
      <point x="443" y="375" type="line"/>
      <point x="130" y="375" type="line"/>
      <point x="130" y="666" type="line"/>
      <point x="503" y="666" type="line"/>
    </contour>
    <contour>
      <point x="287" y="908" type="line"/>
      <point x="168" y="793" type="line"/>
      <point x="211" y="793" type="line"/>
      <point x="304" y="878" type="line"/>
      <point x="397" y="793" type="line"/>
      <point x="440" y="793" type="line"/>
      <point x="321" y="908" type="line"/>
    </contour>
  </outline>
</glyph>
<glyph name="Igrave" format="2">
  <advance width="224"/>
  <unicode hex="00CC"/>
  <note>
Igrave
</note>
  <anchor x="112" y="0" name="bottom"/>
  <anchor x="112" y="353" name="center"/>
  <anchor x="130" y="0" name="ogonek"/>
  <anchor x="112" y="912" name="top"/>
  <outline>
    <contour>
      <point x="130" y="700" type="line"/>
      <point x="94" y="700" type="line"/>
      <point x="94" y="0" type="line"/>
      <point x="130" y="0" type="line"/>
    </contour>
    <contour>
      <point x="24" y="912" type="line"/>
      <point x="9" y="881" type="line"/>
      <point x="202" y="789" type="line"/>
      <point x="215" y="816" type="line"/>
    </contour>
  </outline>
</glyph>
<glyph name="Iacute" format="2">
  <advance width="224"/>
  <unicode hex="00CD"/>
  <note>
Iacute
</note>
  <anchor x="112" y="0" name="bottom"/>
  <anchor x="112" y="353" name="center"/>
  <anchor x="130" y="0" name="ogonek"/>
  <anchor x="112" y="912" name="top"/>
  <outline>
    <contour>
      <point x="130" y="700" type="line"/>
      <point x="94" y="700" type="line"/>
      <point x="94" y="0" type="line"/>
      <point x="130" y="0" type="line"/>
    </contour>
    <contour>
      <point x="200" y="912" type="line"/>
      <point x="9" y="816" type="line"/>
      <point x="22" y="789" type="line"/>
      <point x="215" y="881" type="line"/>
    </contour>
  </outline>
</glyph>
<glyph name="Icircumflex" format="2">
  <advance width="224"/>
  <unicode hex="00CE"/>
  <note>
Icircumflex
</note>
  <anchor x="112" y="0" name="bottom"/>
  <anchor x="112" y="353" name="center"/>
  <anchor x="130" y="0" name="ogonek"/>
  <anchor x="112" y="908" name="top"/>
  <outline>
    <contour>
      <point x="130" y="700" type="line"/>
      <point x="94" y="700" type="line"/>
      <point x="94" y="0" type="line"/>
      <point x="130" y="0" type="line"/>
    </contour>
    <contour>
      <point x="95" y="908" type="line"/>
      <point x="-24" y="793" type="line"/>
      <point x="19" y="793" type="line"/>
      <point x="112" y="878" type="line"/>
      <point x="205" y="793" type="line"/>
      <point x="248" y="793" type="line"/>
      <point x="129" y="908" type="line"/>
    </contour>
  </outline>
</glyph>
<glyph name="Idieresis" format="2">
  <advance width="224"/>
  <unicode hex="00CF"/>
  <note>
Idieresis
</note>
  <anchor x="112" y="0" name="bottom"/>
  <anchor x="112" y="353" name="center"/>
  <anchor x="130" y="0" name="ogonek"/>
  <anchor x="112" y="880" name="top"/>
  <outline>
    <contour>
      <point x="130" y="700" type="line"/>
      <point x="94" y="700" type="line"/>
      <point x="94" y="0" type="line"/>
      <point x="130" y="0" type="line"/>
    </contour>
    <contour>
      <point x="-1" y="880" type="line"/>
      <point x="-1" y="822" type="line"/>
      <point x="39" y="822" type="line"/>
      <point x="39" y="880" type="line"/>
    </contour>
    <contour>
      <point x="184" y="880" type="line"/>
      <point x="184" y="822" type="line"/>
      <point x="224" y="822" type="line"/>
      <point x="224" y="880" type="line"/>
    </contour>
  </outline>
</glyph>
<glyph name="Eth" format="2">
  <advance width="668"/>
  <unicode hex="00D0"/>
  <note>
Eth
</note>
  <anchor x="319" y="0" name="bottom"/>
  <anchor x="130" y="354" name="center"/>
  <anchor x="319" y="700" name="top"/>
  <outline>
    <contour>
      <point x="112" y="338" type="line"/>
      <point x="112" y="0" type="line"/>
      <point x="372" y="0" type="line" smooth="yes"/>
      <point x="548" y="0"/>
      <point x="606" y="182"/>
      <point x="606" y="358" type="curve" smooth="yes"/>
      <point x="606" y="534"/>
      <point x="548" y="700"/>
      <point x="372" y="700" type="curve" smooth="yes"/>
      <point x="112" y="700" type="line"/>
      <point x="112" y="372" type="line"/>
      <point x="38" y="372" type="line"/>
      <point x="38" y="338" type="line"/>
    </contour>
    <contour>
      <point x="372" y="34" type="curve" smooth="yes"/>
      <point x="148" y="34" type="line"/>
      <point x="148" y="338" type="line"/>
      <point x="365" y="338" type="line"/>
      <point x="365" y="372" type="line"/>
      <point x="148" y="372" type="line"/>
      <point x="148" y="666" type="line"/>
      <point x="372" y="666" type="line" smooth="yes"/>
      <point x="522" y="666"/>
      <point x="568" y="508"/>
      <point x="568" y="358" type="curve" smooth="yes"/>
      <point x="568" y="208"/>
      <point x="522" y="34"/>
    </contour>
  </outline>
</glyph>
<glyph name="Ntilde" format="2">
  <advance width="669"/>
  <unicode hex="00D1"/>
  <note>
Ntilde
</note>
  <anchor x="335" y="0" name="bottom"/>
  <anchor x="356" y="895" name="top"/>
  <outline>
    <contour>
      <point x="182" y="700" type="line"/>
      <point x="94" y="700" type="line"/>
      <point x="94" y="0" type="line"/>
      <point x="130" y="0" type="line"/>
      <point x="130" y="666" type="line"/>
      <point x="160" y="666" type="line"/>
      <point x="487" y="0" type="line"/>
      <point x="575" y="0" type="line"/>
      <point x="575" y="700" type="line"/>
      <point x="539" y="700" type="line"/>
      <point x="539" y="34" type="line"/>
      <point x="509" y="34" type="line"/>
    </contour>
    <contour>
      <point x="198" y="841" type="curve"/>
      <point x="215" y="819" type="line"/>
      <point x="215" y="819"/>
      <point x="264" y="864"/>
      <point x="285" y="864" type="curve" smooth="yes"/>
      <point x="317" y="864"/>
      <point x="392" y="810"/>
      <point x="432" y="810" type="curve" smooth="yes"/>
      <point x="463" y="810"/>
      <point x="513" y="861"/>
      <point x="513" y="861" type="curve"/>
      <point x="496" y="883" type="line"/>
      <point x="496" y="883"/>
      <point x="452" y="842"/>
      <point x="434" y="842" type="curve" smooth="yes"/>
      <point x="402" y="842"/>
      <point x="327" y="895"/>
      <point x="287" y="895" type="curve" smooth="yes"/>
      <point x="254" y="895"/>
      <point x="198" y="841"/>
    </contour>
  </outline>
</glyph>
<glyph name="Oacute" format="2">
  <advance width="662"/>
  <unicode hex="00D3"/>
  <note>
Oacute
</note>
  <anchor x="331" y="0" name="bottom"/>
  <anchor x="331" y="350" name="center"/>
  <anchor x="386" y="0" name="ogonek"/>
  <anchor x="331" y="912" name="top"/>
  <anchor x="643" y="700" name="topright"/>
  <outline>
    <contour>
      <point x="331" y="24" type="curve" smooth="yes"/>
      <point x="141" y="24"/>
      <point x="102" y="139"/>
      <point x="102" y="347" type="curve" smooth="yes"/>
      <point x="102" y="557"/>
      <point x="141" y="675"/>
      <point x="331" y="675" type="curve" smooth="yes"/>
      <point x="522" y="675"/>
      <point x="560" y="557"/>
      <point x="560" y="347" type="curve" smooth="yes"/>
      <point x="560" y="139"/>
      <point x="522" y="24"/>
    </contour>
    <contour>
      <point x="64" y="347" type="curve" smooth="yes"/>
      <point x="64" y="117"/>
      <point x="117" y="-10"/>
      <point x="331" y="-10" type="curve" smooth="yes"/>
      <point x="545" y="-10"/>
      <point x="598" y="117"/>
      <point x="598" y="347" type="curve" smooth="yes"/>
      <point x="598" y="577"/>
      <point x="545" y="709"/>
      <point x="331" y="709" type="curve" smooth="yes"/>
      <point x="117" y="709"/>
      <point x="64" y="577"/>
    </contour>
    <contour>
      <point x="419" y="912" type="line"/>
      <point x="228" y="816" type="line"/>
      <point x="241" y="789" type="line"/>
      <point x="434" y="881" type="line"/>
    </contour>
  </outline>
</glyph>
<glyph name="Otilde" format="2">
  <advance width="662"/>
  <unicode hex="00D5"/>
  <note>
Otilde
</note>
  <anchor x="331" y="0" name="bottom"/>
  <anchor x="331" y="350" name="center"/>
  <anchor x="386" y="0" name="ogonek"/>
  <anchor x="331" y="895" name="top"/>
  <anchor x="643" y="700" name="topright"/>
  <outline>
    <contour>
      <point x="331" y="24" type="curve" smooth="yes"/>
      <point x="141" y="24"/>
      <point x="102" y="139"/>
      <point x="102" y="347" type="curve" smooth="yes"/>
      <point x="102" y="557"/>
      <point x="141" y="675"/>
      <point x="331" y="675" type="curve" smooth="yes"/>
      <point x="522" y="675"/>
      <point x="560" y="557"/>
      <point x="560" y="347" type="curve" smooth="yes"/>
      <point x="560" y="139"/>
      <point x="522" y="24"/>
    </contour>
    <contour>
      <point x="64" y="347" type="curve" smooth="yes"/>
      <point x="64" y="117"/>
      <point x="117" y="-10"/>
      <point x="331" y="-10" type="curve" smooth="yes"/>
      <point x="545" y="-10"/>
      <point x="598" y="117"/>
      <point x="598" y="347" type="curve" smooth="yes"/>
      <point x="598" y="577"/>
      <point x="545" y="709"/>
      <point x="331" y="709" type="curve" smooth="yes"/>
      <point x="117" y="709"/>
      <point x="64" y="577"/>
    </contour>
    <contour>
      <point x="173" y="841" type="curve"/>
      <point x="190" y="819" type="line"/>
      <point x="190" y="819"/>
      <point x="239" y="864"/>
      <point x="260" y="864" type="curve" smooth="yes"/>
      <point x="292" y="864"/>
      <point x="367" y="810"/>
      <point x="407" y="810" type="curve" smooth="yes"/>
      <point x="438" y="810"/>
      <point x="488" y="861"/>
      <point x="488" y="861" type="curve"/>
      <point x="471" y="883" type="line"/>
      <point x="471" y="883"/>
      <point x="427" y="842"/>
      <point x="409" y="842" type="curve" smooth="yes"/>
      <point x="377" y="842"/>
      <point x="302" y="895"/>
      <point x="262" y="895" type="curve" smooth="yes"/>
      <point x="229" y="895"/>
      <point x="173" y="841"/>
    </contour>
  </outline>
</glyph>
<glyph name="Udieresis" format="2">
  <advance width="640"/>
  <unicode hex="00DC"/>
  <note>
Udieresis
</note>
  <anchor x="320" y="0" name="bottom"/>
  <anchor x="387" y="0" name="ogonek"/>
  <anchor x="320" y="880" name="top"/>
  <anchor x="621" y="700" name="topright"/>
  <outline>
    <contour>
      <point x="125" y="196" type="curve" smooth="yes"/>
      <point x="125" y="700" type="line"/>
      <point x="89" y="700" type="line"/>
      <point x="89" y="196" type="line" smooth="yes"/>
      <point x="89" y="45"/>
      <point x="174" y="-10"/>
      <point x="319" y="-10" type="curve" smooth="yes"/>
      <point x="464" y="-10"/>
      <point x="551" y="46"/>
      <point x="551" y="196" type="curve" smooth="yes"/>
      <point x="551" y="700" type="line"/>
      <point x="515" y="700" type="line"/>
      <point x="515" y="196" type="line" smooth="yes"/>
      <point x="515" y="69"/>
      <point x="440" y="24"/>
      <point x="319" y="24" type="curve" smooth="yes"/>
      <point x="197" y="24"/>
      <point x="125" y="70"/>
    </contour>
    <contour>
      <point x="207" y="880" type="line"/>
      <point x="207" y="822" type="line"/>
      <point x="247" y="822" type="line"/>
      <point x="247" y="880" type="line"/>
    </contour>
    <contour>
      <point x="392" y="880" type="line"/>
      <point x="392" y="822" type="line"/>
      <point x="432" y="822" type="line"/>
      <point x="432" y="880" type="line"/>
    </contour>
  </outline>
</glyph>
<glyph name="Thorn" format="2">
  <advance width="579"/>
  <unicode hex="00DE"/>
  <note>
Thorn
</note>
  <anchor x="112" y="0" name="bottom"/>
  <anchor x="112" y="353" name="center"/>
  <anchor x="130" y="0" name="ogonek"/>
  <anchor x="112" y="700" name="top"/>
  <outline>
    <contour>
      <point x="319" y="568" type="curve" smooth="yes"/>
      <point x="130" y="568" type="line"/>
      <point x="130" y="700" type="line"/>
      <point x="94" y="700" type="line"/>
      <point x="94" y="0" type="line"/>
      <point x="130" y="0" type="line"/>
      <point x="130" y="165" type="line"/>
      <point x="319" y="165" type="line" smooth="yes"/>
      <point x="464" y="165"/>
      <point x="526" y="248"/>
      <point x="526" y="373" type="curve" smooth="yes"/>
      <point x="526" y="498"/>
      <point x="464" y="568"/>
    </contour>
    <contour>
      <point x="319" y="199" type="curve" smooth="yes"/>
      <point x="130" y="199" type="line"/>
      <point x="130" y="534" type="line"/>
      <point x="319" y="534" type="line" smooth="yes"/>
      <point x="440" y="534"/>
      <point x="488" y="474"/>
      <point x="488" y="373" type="curve" smooth="yes"/>
      <point x="488" y="272"/>
      <point x="440" y="199"/>
    </contour>
  </outline>
</glyph>
<glyph name="aring" format="2">
  <advance width="498"/>
  <unicode hex="00E5"/>
  <note>
aring
</note>
  <anchor x="251" y="0" name="bottom"/>
  <anchor x="458" y="0" name="ogonek"/>
  <anchor x="237" y="745" name="top"/>
  <outline>
    <contour>
      <point x="405" y="65" type="curve"/>
      <point x="405" y="353" type="line" smooth="yes"/>
      <point x="405" y="456"/>
      <point x="360" y="510"/>
      <point x="246" y="510" type="curve" smooth="yes"/>
      <point x="179" y="510"/>
      <point x="67" y="491"/>
      <point x="67" y="491" type="curve"/>
      <point x="70" y="458" type="line"/>
      <point x="70" y="458"/>
      <point x="188" y="476"/>
      <point x="248" y="476" type="curve" smooth="yes"/>
      <point x="334" y="476"/>
      <point x="370" y="440"/>
      <point x="370" y="353" type="curve" smooth="yes"/>
      <point x="370" y="301" type="line"/>
      <point x="180" y="281" type="line" smooth="yes"/>
      <point x="82" y="271"/>
      <point x="42" y="225"/>
      <point x="42" y="139" type="curve" smooth="yes"/>
      <point x="42" y="43"/>
      <point x="91" y="-10"/>
      <point x="188" y="-10" type="curve" smooth="yes"/>
      <point x="273" y="-10"/>
      <point x="375" y="34"/>
      <point x="375" y="34" type="curve"/>
      <point x="397" y="3"/>
      <point x="435" y="-8"/>
      <point x="478" y="-8" type="curve"/>
      <point x="480" y="23" type="line"/>
      <point x="445" y="26"/>
      <point x="408" y="36"/>
    </contour>
    <contour>
      <point x="79" y="139" type="curve" smooth="yes"/>
      <point x="79" y="206"/>
      <point x="106" y="242"/>
      <point x="184" y="250" type="curve" smooth="yes"/>
      <point x="370" y="269" type="line"/>
      <point x="370" y="64" type="line"/>
      <point x="370" y="64"/>
      <point x="268" y="22"/>
      <point x="189" y="22" type="curve" smooth="yes"/>
      <point x="113" y="22"/>
      <point x="79" y="64"/>
    </contour>
    <contour>
      <point x="142" y="650" type="curve" smooth="yes"/>
      <point x="142" y="597"/>
      <point x="184" y="555"/>
      <point x="238" y="555" type="curve" smooth="yes"/>
      <point x="292" y="555"/>
      <point x="333" y="597"/>
      <point x="333" y="650" type="curve" smooth="yes"/>
      <point x="333" y="704"/>
      <point x="292" y="745"/>
      <point x="238" y="745" type="curve" smooth="yes"/>
      <point x="184" y="745"/>
      <point x="142" y="704"/>
    </contour>
    <contour>
      <point x="176" y="650" type="curve" smooth="yes"/>
      <point x="176" y="687"/>
      <point x="203" y="713"/>
      <point x="238" y="713" type="curve" smooth="yes"/>
      <point x="273" y="713"/>
      <point x="300" y="687"/>
      <point x="300" y="650" type="curve" smooth="yes"/>
      <point x="300" y="614"/>
      <point x="273" y="586"/>
      <point x="238" y="586" type="curve" smooth="yes"/>
      <point x="203" y="586"/>
      <point x="176" y="614"/>
    </contour>
  </outline>
</glyph>
<glyph name="ccedilla" format="2">
  <advance width="426"/>
  <unicode hex="00E7"/>
  <note>
ccedilla
</note>
  <anchor x="258" y="-201" name="bottom"/>
  <anchor x="244" y="500" name="top"/>
  <outline>
    <contour>
      <point x="251" y="510" type="curve" smooth="yes"/>
      <point x="118" y="510"/>
      <point x="57" y="445"/>
      <point x="57" y="246" type="curve" smooth="yes"/>
      <point x="57" y="78"/>
      <point x="100" y="5"/>
      <point x="220" y="-8" type="curve"/>
      <point x="210" y="-85" type="line"/>
      <point x="261" y="-85" type="line" smooth="yes"/>
      <point x="286" y="-85"/>
      <point x="305" y="-96"/>
      <point x="305" y="-127" type="curve" smooth="yes"/>
      <point x="305" y="-162"/>
      <point x="286" y="-173"/>
      <point x="257" y="-173" type="curve" smooth="yes"/>
      <point x="223" y="-173"/>
      <point x="179" y="-169"/>
      <point x="179" y="-169" type="curve"/>
      <point x="177" y="-197" type="line"/>
      <point x="177" y="-197"/>
      <point x="214" y="-201"/>
      <point x="258" y="-201" type="curve" smooth="yes"/>
      <point x="306" y="-201"/>
      <point x="340" y="-180"/>
      <point x="340" y="-127" type="curve" smooth="yes"/>
      <point x="340" y="-71"/>
      <point x="307" y="-57"/>
      <point x="240" y="-57" type="curve"/>
      <point x="247" y="-10" type="line"/>
      <point x="264" y="-10" type="line" smooth="yes"/>
      <point x="316" y="-10"/>
      <point x="384" y="0"/>
      <point x="384" y="0" type="curve"/>
      <point x="382" y="32" type="line"/>
      <point x="382" y="32"/>
      <point x="308" y="22"/>
      <point x="261" y="22" type="curve" smooth="yes"/>
      <point x="128" y="22"/>
      <point x="94" y="88"/>
      <point x="94" y="246" type="curve" smooth="yes"/>
      <point x="94" y="418"/>
      <point x="136" y="478"/>
      <point x="252" y="478" type="curve" smooth="yes"/>
      <point x="302" y="478"/>
      <point x="380" y="467"/>
      <point x="380" y="467" type="curve"/>
      <point x="382" y="499" type="line"/>
      <point x="382" y="499"/>
      <point x="305" y="510"/>
    </contour>
  </outline>
</glyph>
<glyph name="igrave" format="2">
  <advance width="199"/>
  <unicode hex="00EC"/>
  <note>
igrave
</note>
  <anchor x="100" y="0" name="bottom"/>
  <anchor x="117" y="0" name="ogonek"/>
  <anchor x="100" y="732" name="top"/>
  <outline>
    <contour>
      <point x="117" y="500" type="line"/>
      <point x="82" y="500" type="line"/>
      <point x="82" y="0" type="line"/>
      <point x="117" y="0" type="line"/>
    </contour>
    <contour>
      <point x="12" y="732" type="line"/>
      <point x="-3" y="701" type="line"/>
      <point x="190" y="609" type="line"/>
      <point x="203" y="636" type="line"/>
    </contour>
  </outline>
</glyph>
<glyph name="iacute" format="2">
  <advance width="199"/>
  <unicode hex="00ED"/>
  <note>
iacute
</note>
  <anchor x="100" y="0" name="bottom"/>
  <anchor x="117" y="0" name="ogonek"/>
  <anchor x="100" y="732" name="top"/>
  <outline>
    <contour>
      <point x="117" y="500" type="line"/>
      <point x="82" y="500" type="line"/>
      <point x="82" y="0" type="line"/>
      <point x="117" y="0" type="line"/>
    </contour>
    <contour>
      <point x="188" y="732" type="line"/>
      <point x="-3" y="636" type="line"/>
      <point x="10" y="609" type="line"/>
      <point x="203" y="701" type="line"/>
    </contour>
  </outline>
</glyph>
<glyph name="icircumflex" format="2">
  <advance width="199"/>
  <unicode hex="00EE"/>
  <note>
icircumflex
</note>
  <anchor x="100" y="0" name="bottom"/>
  <anchor x="117" y="0" name="ogonek"/>
  <anchor x="100" y="732" name="top"/>
  <outline>
    <contour>
      <point x="117" y="500" type="line"/>
      <point x="82" y="500" type="line"/>
      <point x="82" y="0" type="line"/>
      <point x="117" y="0" type="line"/>
    </contour>
    <contour>
      <point x="83" y="728" type="line"/>
      <point x="-36" y="613" type="line"/>
      <point x="7" y="613" type="line"/>
      <point x="100" y="698" type="line"/>
      <point x="193" y="613" type="line"/>
      <point x="236" y="613" type="line"/>
      <point x="117" y="728" type="line"/>
    </contour>
  </outline>
</glyph>
<glyph name="idieresis" format="2">
  <advance width="199"/>
  <unicode hex="00EF"/>
  <note>
idieresis
</note>
  <anchor x="100" y="0" name="bottom"/>
  <anchor x="117" y="0" name="ogonek"/>
  <anchor x="100" y="700" name="top"/>
  <outline>
    <contour>
      <point x="117" y="500" type="line"/>
      <point x="82" y="500" type="line"/>
      <point x="82" y="0" type="line"/>
      <point x="117" y="0" type="line"/>
    </contour>
    <contour>
      <point x="-13" y="700" type="line"/>
      <point x="-13" y="642" type="line"/>
      <point x="25" y="642" type="line"/>
      <point x="25" y="700" type="line"/>
    </contour>
    <contour>
      <point x="174" y="700" type="line"/>
      <point x="174" y="642" type="line"/>
      <point x="212" y="642" type="line"/>
      <point x="212" y="700" type="line"/>
    </contour>
  </outline>
</glyph>
<glyph name="ntilde" format="2">
  <advance width="533"/>
  <unicode hex="00F1"/>
  <note>
ntilde
</note>
  <anchor x="278" y="0" name="bottom"/>
  <anchor x="264" y="715" name="top"/>
  <outline>
    <contour>
      <point x="82" y="500" type="line"/>
      <point x="82" y="0" type="line"/>
      <point x="117" y="0" type="line"/>
      <point x="117" y="427" type="line"/>
      <point x="117" y="427"/>
      <point x="196" y="478"/>
      <point x="297" y="478" type="curve" smooth="yes"/>
      <point x="399" y="478"/>
      <point x="421" y="432"/>
      <point x="421" y="258" type="curve" smooth="yes"/>
      <point x="421" y="0" type="line"/>
      <point x="456" y="0" type="line"/>
      <point x="456" y="260" type="line" smooth="yes"/>
      <point x="456" y="458"/>
      <point x="420" y="510"/>
      <point x="302" y="510" type="curve" smooth="yes"/>
      <point x="195" y="510"/>
      <point x="117" y="460"/>
      <point x="117" y="460" type="curve"/>
      <point x="117" y="500" type="line"/>
    </contour>
    <contour>
      <point x="106" y="661" type="curve"/>
      <point x="123" y="639" type="line"/>
      <point x="123" y="639"/>
      <point x="172" y="684"/>
      <point x="193" y="684" type="curve" smooth="yes"/>
      <point x="225" y="684"/>
      <point x="300" y="630"/>
      <point x="340" y="630" type="curve" smooth="yes"/>
      <point x="371" y="630"/>
      <point x="421" y="681"/>
      <point x="421" y="681" type="curve"/>
      <point x="404" y="703" type="line"/>
      <point x="404" y="703"/>
      <point x="360" y="662"/>
      <point x="342" y="662" type="curve" smooth="yes"/>
      <point x="310" y="662"/>
      <point x="235" y="715"/>
      <point x="195" y="715" type="curve" smooth="yes"/>
      <point x="162" y="715"/>
      <point x="106" y="661"/>
    </contour>
  </outline>
</glyph>
<glyph name="oacute" format="2">
  <advance width="518"/>
  <unicode hex="00F3"/>
  <note>
oacute
</note>
  <anchor x="259" y="0" name="bottom"/>
  <anchor x="259" y="250" name="center"/>
  <anchor x="306" y="0" name="ogonek"/>
  <anchor x="259" y="732" name="top"/>
  <anchor x="502" y="500" name="topright"/>
  <outline>
    <contour>
      <point x="259" y="510" type="curve" smooth="yes"/>
      <point x="111" y="510"/>
      <point x="56" y="430"/>
      <point x="56" y="243" type="curve" smooth="yes"/>
      <point x="56" y="94"/>
      <point x="99" y="-10"/>
      <point x="259" y="-10" type="curve" smooth="yes"/>
      <point x="419" y="-10"/>
      <point x="462" y="94"/>
      <point x="462" y="243" type="curve" smooth="yes"/>
      <point x="462" y="430"/>
      <point x="407" y="510"/>
    </contour>
    <contour>
      <point x="93" y="243" type="curve" smooth="yes"/>
      <point x="93" y="413"/>
      <point x="131" y="478"/>
      <point x="259" y="478" type="curve" smooth="yes"/>
      <point x="387" y="478"/>
      <point x="425" y="413"/>
      <point x="425" y="243" type="curve" smooth="yes"/>
      <point x="425" y="113"/>
      <point x="392" y="22"/>
      <point x="259" y="22" type="curve" smooth="yes"/>
      <point x="126" y="22"/>
      <point x="93" y="113"/>
    </contour>
    <contour>
      <point x="347" y="732" type="line"/>
      <point x="156" y="636" type="line"/>
      <point x="169" y="609" type="line"/>
      <point x="362" y="701" type="line"/>
    </contour>
  </outline>
</glyph>
<glyph name="ocircumflex" format="2">
  <advance width="518"/>
  <unicode hex="00F4"/>
  <note>
ocircumflex
</note>
  <anchor x="259" y="0" name="bottom"/>
  <anchor x="259" y="250" name="center"/>
  <anchor x="306" y="0" name="ogonek"/>
  <anchor x="259" y="732" name="top"/>
  <anchor x="502" y="500" name="topright"/>
  <outline>
    <contour>
      <point x="259" y="510" type="curve" smooth="yes"/>
      <point x="111" y="510"/>
      <point x="56" y="430"/>
      <point x="56" y="243" type="curve" smooth="yes"/>
      <point x="56" y="94"/>
      <point x="99" y="-10"/>
      <point x="259" y="-10" type="curve" smooth="yes"/>
      <point x="419" y="-10"/>
      <point x="462" y="94"/>
      <point x="462" y="243" type="curve" smooth="yes"/>
      <point x="462" y="430"/>
      <point x="407" y="510"/>
    </contour>
    <contour>
      <point x="93" y="243" type="curve" smooth="yes"/>
      <point x="93" y="413"/>
      <point x="131" y="478"/>
      <point x="259" y="478" type="curve" smooth="yes"/>
      <point x="387" y="478"/>
      <point x="425" y="413"/>
      <point x="425" y="243" type="curve" smooth="yes"/>
      <point x="425" y="113"/>
      <point x="392" y="22"/>
      <point x="259" y="22" type="curve" smooth="yes"/>
      <point x="126" y="22"/>
      <point x="93" y="113"/>
    </contour>
    <contour>
      <point x="242" y="728" type="line"/>
      <point x="123" y="613" type="line"/>
      <point x="166" y="613" type="line"/>
      <point x="259" y="698" type="line"/>
      <point x="352" y="613" type="line"/>
      <point x="395" y="613" type="line"/>
      <point x="276" y="728" type="line"/>
    </contour>
  </outline>
</glyph>
<glyph name="otilde" format="2">
  <advance width="518"/>
  <unicode hex="00F5"/>
  <note>
otilde
</note>
  <anchor x="259" y="0" name="bottom"/>
  <anchor x="259" y="250" name="center"/>
  <anchor x="306" y="0" name="ogonek"/>
  <anchor x="259" y="715" name="top"/>
  <anchor x="502" y="500" name="topright"/>
  <outline>
    <contour>
      <point x="259" y="510" type="curve" smooth="yes"/>
      <point x="111" y="510"/>
      <point x="56" y="430"/>
      <point x="56" y="243" type="curve" smooth="yes"/>
      <point x="56" y="94"/>
      <point x="99" y="-10"/>
      <point x="259" y="-10" type="curve" smooth="yes"/>
      <point x="419" y="-10"/>
      <point x="462" y="94"/>
      <point x="462" y="243" type="curve" smooth="yes"/>
      <point x="462" y="430"/>
      <point x="407" y="510"/>
    </contour>
    <contour>
      <point x="93" y="243" type="curve" smooth="yes"/>
      <point x="93" y="413"/>
      <point x="131" y="478"/>
      <point x="259" y="478" type="curve" smooth="yes"/>
      <point x="387" y="478"/>
      <point x="425" y="413"/>
      <point x="425" y="243" type="curve" smooth="yes"/>
      <point x="425" y="113"/>
      <point x="392" y="22"/>
      <point x="259" y="22" type="curve" smooth="yes"/>
      <point x="126" y="22"/>
      <point x="93" y="113"/>
    </contour>
    <contour>
      <point x="101" y="661" type="curve"/>
      <point x="118" y="639" type="line"/>
      <point x="118" y="639"/>
      <point x="167" y="684"/>
      <point x="188" y="684" type="curve" smooth="yes"/>
      <point x="220" y="684"/>
      <point x="295" y="630"/>
      <point x="335" y="630" type="curve" smooth="yes"/>
      <point x="366" y="630"/>
      <point x="416" y="681"/>
      <point x="416" y="681" type="curve"/>
      <point x="399" y="703" type="line"/>
      <point x="399" y="703"/>
      <point x="355" y="662"/>
      <point x="337" y="662" type="curve" smooth="yes"/>
      <point x="305" y="662"/>
      <point x="230" y="715"/>
      <point x="190" y="715" type="curve" smooth="yes"/>
      <point x="157" y="715"/>
      <point x="101" y="661"/>
    </contour>
  </outline>
</glyph>
<glyph name="ugrave" format="2">
  <advance width="522"/>
  <unicode hex="00F9"/>
  <note>
ugrave
</note>
  <anchor x="261" y="0" name="bottom"/>
  <anchor x="440" y="0" name="ogonek"/>
  <anchor x="261" y="732" name="top"/>
  <anchor x="500" y="500" name="topright"/>
  <outline>
    <contour>
      <point x="440" y="0" type="line"/>
      <point x="440" y="500" type="line"/>
      <point x="405" y="500" type="line"/>
      <point x="405" y="73" type="line"/>
      <point x="405" y="73"/>
      <point x="339" y="23"/>
      <point x="237" y="23" type="curve" smooth="yes"/>
      <point x="139" y="23"/>
      <point x="112" y="72"/>
      <point x="112" y="242" type="curve" smooth="yes"/>
      <point x="112" y="500" type="line"/>
      <point x="77" y="500" type="line"/>
      <point x="77" y="240" type="line" smooth="yes"/>
      <point x="77" y="46"/>
      <point x="121" y="-9"/>
      <point x="236" y="-9" type="curve" smooth="yes"/>
      <point x="343" y="-9"/>
      <point x="405" y="40"/>
      <point x="405" y="40" type="curve"/>
      <point x="405" y="0" type="line"/>
    </contour>
    <contour>
      <point x="173" y="732" type="line"/>
      <point x="158" y="701" type="line"/>
      <point x="351" y="609" type="line"/>
      <point x="364" y="636" type="line"/>
    </contour>
  </outline>
</glyph>
<glyph name="udieresis" format="2">
  <advance width="522"/>
  <unicode hex="00FC"/>
  <note>
udieresis
</note>
  <anchor x="261" y="0" name="bottom"/>
  <anchor x="440" y="0" name="ogonek"/>
  <anchor x="261" y="700" name="top"/>
  <anchor x="500" y="500" name="topright"/>
  <outline>
    <contour>
      <point x="440" y="0" type="line"/>
      <point x="440" y="500" type="line"/>
      <point x="405" y="500" type="line"/>
      <point x="405" y="73" type="line"/>
      <point x="405" y="73"/>
      <point x="339" y="23"/>
      <point x="237" y="23" type="curve" smooth="yes"/>
      <point x="139" y="23"/>
      <point x="112" y="72"/>
      <point x="112" y="242" type="curve" smooth="yes"/>
      <point x="112" y="500" type="line"/>
      <point x="77" y="500" type="line"/>
      <point x="77" y="240" type="line" smooth="yes"/>
      <point x="77" y="46"/>
      <point x="121" y="-9"/>
      <point x="236" y="-9" type="curve" smooth="yes"/>
      <point x="343" y="-9"/>
      <point x="405" y="40"/>
      <point x="405" y="40" type="curve"/>
      <point x="405" y="0" type="line"/>
    </contour>
    <contour>
      <point x="148" y="700" type="line"/>
      <point x="148" y="642" type="line"/>
      <point x="186" y="642" type="line"/>
      <point x="186" y="700" type="line"/>
    </contour>
    <contour>
      <point x="335" y="700" type="line"/>
      <point x="335" y="642" type="line"/>
      <point x="373" y="642" type="line"/>
      <point x="373" y="700" type="line"/>
    </contour>
  </outline>
</glyph>
<glyph name="yacute" format="2">
  <advance width="474"/>
  <unicode hex="00FD"/>
  <note>
yacute
</note>
  <anchor x="237" y="0" name="bottom"/>
  <anchor x="237" y="732" name="top"/>
  <outline>
    <contour>
      <point x="224" y="32" type="line"/>
      <point x="66" y="500" type="line"/>
      <point x="30" y="500" type="line"/>
      <point x="199" y="0" type="line"/>
      <point x="235" y="0" type="line"/>
      <point x="161" y="-230" type="line"/>
      <point x="198" y="-230" type="line"/>
      <point x="443" y="500" type="line"/>
      <point x="407" y="500" type="line"/>
      <point x="244" y="32" type="line"/>
    </contour>
    <contour>
      <point x="325" y="732" type="line"/>
      <point x="134" y="636" type="line"/>
      <point x="147" y="609" type="line"/>
      <point x="340" y="701" type="line"/>
    </contour>
  </outline>
</glyph>
<glyph name="ydieresis" format="2">
  <advance width="474"/>
  <unicode hex="00FF"/>
  <note>
ydieresis
</note>
  <anchor x="237" y="0" name="bottom"/>
  <anchor x="237" y="700" name="top"/>
  <outline>
    <contour>
      <point x="224" y="32" type="line"/>
      <point x="66" y="500" type="line"/>
      <point x="30" y="500" type="line"/>
      <point x="199" y="0" type="line"/>
      <point x="235" y="0" type="line"/>
      <point x="161" y="-230" type="line"/>
      <point x="198" y="-230" type="line"/>
      <point x="443" y="500" type="line"/>
      <point x="407" y="500" type="line"/>
      <point x="244" y="32" type="line"/>
    </contour>
    <contour>
      <point x="124" y="700" type="line"/>
      <point x="124" y="642" type="line"/>
      <point x="162" y="642" type="line"/>
      <point x="162" y="700" type="line"/>
    </contour>
    <contour>
      <point x="311" y="700" type="line"/>
      <point x="311" y="642" type="line"/>
      <point x="349" y="642" type="line"/>
      <point x="349" y="700" type="line"/>
    </contour>
  </outline>
</glyph>
<glyph name="Abreve" format="2">
  <advance width="590"/>
  <unicode hex="0102"/>
  <note>
Abreve
</note>
  <anchor x="295" y="0" name="bottom"/>
  <anchor x="563" y="0" name="ogonek"/>
  <anchor x="295" y="912" name="top"/>
  <outline>
    <contour>
      <point x="280" y="666" type="line"/>
      <point x="310" y="666" type="line"/>
      <point x="446" y="249" type="line"/>
      <point x="144" y="249" type="line"/>
    </contour>
    <contour>
      <point x="255" y="700" type="line"/>
      <point x="27" y="0" type="line"/>
      <point x="63" y="0" type="line"/>
      <point x="133" y="215" type="line"/>
      <point x="457" y="215" type="line"/>
      <point x="527" y="0" type="line"/>
      <point x="563" y="0" type="line"/>
      <point x="335" y="700" type="line"/>
    </contour>
    <contour>
      <point x="197" y="912" type="curve"/>
      <point x="162" y="912" type="line"/>
      <point x="167" y="843"/>
      <point x="216" y="789"/>
      <point x="295" y="789" type="curve" smooth="yes"/>
      <point x="374" y="789"/>
      <point x="423" y="843"/>
      <point x="428" y="912" type="curve"/>
      <point x="393" y="912" type="line"/>
      <point x="388" y="862"/>
      <point x="355" y="821"/>
      <point x="295" y="821" type="curve" smooth="yes"/>
      <point x="235" y="821"/>
      <point x="202" y="862"/>
    </contour>
  </outline>
</glyph>
<glyph name="Aogonek" format="2">
  <advance width="590"/>
  <unicode hex="0104"/>
  <note>
Aogonek
</note>
  <anchor x="295" y="0" name="bottom"/>
  <anchor x="563" y="0" name="ogonek"/>
  <anchor x="295" y="700" name="top"/>
  <outline>
    <contour>
      <point x="280" y="666" type="line"/>
      <point x="310" y="666" type="line"/>
      <point x="446" y="249" type="line"/>
      <point x="144" y="249" type="line"/>
    </contour>
    <contour>
      <point x="255" y="700" type="line"/>
      <point x="27" y="0" type="line"/>
      <point x="63" y="0" type="line"/>
      <point x="133" y="215" type="line"/>
      <point x="457" y="215" type="line"/>
      <point x="527" y="0" type="line"/>
      <point x="507" y="-19"/>
      <point x="445" y="-81"/>
      <point x="445" y="-118" type="curve" smooth="yes"/>
      <point x="445" y="-169"/>
      <point x="479" y="-200"/>
      <point x="525" y="-200" type="curve" smooth="yes"/>
      <point x="553" y="-200"/>
      <point x="589" y="-192"/>
      <point x="589" y="-192" type="curve"/>
      <point x="585" y="-159" type="line"/>
      <point x="585" y="-159"/>
      <point x="548" y="-166"/>
      <point x="529" y="-166" type="curve" smooth="yes"/>
      <point x="501" y="-166"/>
      <point x="482" y="-143"/>
      <point x="482" y="-116" type="curve" smooth="yes"/>
      <point x="482" y="-84"/>
      <point x="563" y="0"/>
      <point x="563" y="0" type="curve"/>
      <point x="335" y="700" type="line"/>
    </contour>
  </outline>
</glyph>
<glyph name="aogonek" format="2">
  <advance width="498"/>
  <unicode hex="0105"/>
  <note>
aogonek
</note>
  <anchor x="251" y="0" name="bottom"/>
  <anchor x="458" y="0" name="ogonek"/>
  <anchor x="237" y="500" name="top"/>
  <outline>
    <contour>
      <point x="405" y="65" type="curve"/>
      <point x="405" y="353" type="line" smooth="yes"/>
      <point x="405" y="456"/>
      <point x="360" y="510"/>
      <point x="246" y="510" type="curve" smooth="yes"/>
      <point x="179" y="510"/>
      <point x="67" y="491"/>
      <point x="67" y="491" type="curve"/>
      <point x="70" y="458" type="line"/>
      <point x="70" y="458"/>
      <point x="188" y="476"/>
      <point x="248" y="476" type="curve" smooth="yes"/>
      <point x="334" y="476"/>
      <point x="370" y="440"/>
      <point x="370" y="353" type="curve" smooth="yes"/>
      <point x="370" y="301" type="line"/>
      <point x="180" y="281" type="line" smooth="yes"/>
      <point x="82" y="271"/>
      <point x="42" y="225"/>
      <point x="42" y="139" type="curve" smooth="yes"/>
      <point x="42" y="43"/>
      <point x="91" y="-10"/>
      <point x="188" y="-10" type="curve" smooth="yes"/>
      <point x="273" y="-10"/>
      <point x="375" y="34"/>
      <point x="375" y="34" type="curve"/>
      <point x="387" y="18"/>
      <point x="403" y="7"/>
      <point x="422" y="0" type="curve"/>
      <point x="402" y="-19"/>
      <point x="340" y="-81"/>
      <point x="340" y="-118" type="curve" smooth="yes"/>
      <point x="340" y="-169"/>
      <point x="374" y="-200"/>
      <point x="420" y="-200" type="curve" smooth="yes"/>
      <point x="448" y="-200"/>
      <point x="484" y="-192"/>
      <point x="484" y="-192" type="curve"/>
      <point x="480" y="-159" type="line"/>
      <point x="480" y="-159"/>
      <point x="443" y="-166"/>
      <point x="424" y="-166" type="curve" smooth="yes"/>
      <point x="396" y="-166"/>
      <point x="377" y="-143"/>
      <point x="377" y="-116" type="curve" smooth="yes"/>
      <point x="377" y="-89"/>
      <point x="433" y="-27"/>
      <point x="452" y="-6" type="curve"/>
      <point x="460" y="-8"/>
      <point x="469" y="-8"/>
      <point x="478" y="-8" type="curve"/>
      <point x="480" y="23" type="line"/>
      <point x="445" y="26"/>
      <point x="408" y="36"/>
    </contour>
    <contour>
      <point x="79" y="139" type="curve" smooth="yes"/>
      <point x="79" y="206"/>
      <point x="106" y="242"/>
      <point x="184" y="250" type="curve" smooth="yes"/>
      <point x="370" y="269" type="line"/>
      <point x="370" y="64" type="line"/>
      <point x="370" y="64"/>
      <point x="268" y="22"/>
      <point x="189" y="22" type="curve" smooth="yes"/>
      <point x="113" y="22"/>
      <point x="79" y="64"/>
    </contour>
  </outline>
</glyph>
<glyph name="ccaron" format="2">
  <advance width="426"/>
  <unicode hex="010D"/>
  <note>
ccaron
</note>
  <anchor x="234" y="0" name="bottom"/>
  <anchor x="244" y="732" name="top"/>
  <outline>
    <contour>
      <point x="251" y="510" type="curve" smooth="yes"/>
      <point x="118" y="510"/>
      <point x="57" y="445"/>
      <point x="57" y="246" type="curve" smooth="yes"/>
      <point x="57" y="59"/>
      <point x="111" y="-10"/>
      <point x="264" y="-10" type="curve" smooth="yes"/>
      <point x="316" y="-10"/>
      <point x="384" y="0"/>
      <point x="384" y="0" type="curve"/>
      <point x="382" y="32" type="line"/>
      <point x="382" y="32"/>
      <point x="308" y="22"/>
      <point x="261" y="22" type="curve" smooth="yes"/>
      <point x="128" y="22"/>
      <point x="94" y="88"/>
      <point x="94" y="246" type="curve" smooth="yes"/>
      <point x="94" y="418"/>
      <point x="136" y="478"/>
      <point x="252" y="478" type="curve" smooth="yes"/>
      <point x="302" y="478"/>
      <point x="380" y="467"/>
      <point x="380" y="467" type="curve"/>
      <point x="382" y="499" type="line"/>
      <point x="382" y="499"/>
      <point x="305" y="510"/>
    </contour>
    <contour>
      <point x="151" y="728" type="line"/>
      <point x="108" y="728" type="line"/>
      <point x="227" y="613" type="line"/>
      <point x="261" y="613" type="line"/>
      <point x="380" y="728" type="line"/>
      <point x="337" y="728" type="line"/>
      <point x="244" y="643" type="line"/>
    </contour>
  </outline>
</glyph>
<glyph name="Dcaron" format="2">
  <advance width="650"/>
  <unicode hex="010E"/>
  <note>
Dcaron
</note>
  <anchor x="301" y="0" name="bottom"/>
  <anchor x="112" y="354" name="center"/>
  <anchor x="301" y="912" name="top"/>
  <outline>
    <contour>
      <point x="94" y="700" type="line"/>
      <point x="94" y="0" type="line"/>
      <point x="354" y="0" type="line" smooth="yes"/>
      <point x="530" y="0"/>
      <point x="588" y="182"/>
      <point x="588" y="358" type="curve" smooth="yes"/>
      <point x="588" y="534"/>
      <point x="530" y="700"/>
      <point x="354" y="700" type="curve" smooth="yes"/>
    </contour>
    <contour>
      <point x="354" y="34" type="curve" smooth="yes"/>
      <point x="130" y="34" type="line"/>
      <point x="130" y="666" type="line"/>
      <point x="354" y="666" type="line" smooth="yes"/>
      <point x="504" y="666"/>
      <point x="550" y="508"/>
      <point x="550" y="358" type="curve" smooth="yes"/>
      <point x="550" y="208"/>
      <point x="504" y="34"/>
    </contour>
    <contour>
      <point x="208" y="908" type="line"/>
      <point x="165" y="908" type="line"/>
      <point x="284" y="793" type="line"/>
      <point x="318" y="793" type="line"/>
      <point x="437" y="908" type="line"/>
      <point x="394" y="908" type="line"/>
      <point x="301" y="823" type="line"/>
    </contour>
  </outline>
</glyph>
<glyph name="Emacron" format="2">
  <advance width="552"/>
  <unicode hex="0112"/>
  <note>
Emacron
</note>
  <anchor x="304" y="0" name="bottom"/>
  <anchor x="458" y="0" name="ogonek"/>
  <anchor x="304" y="854" name="top"/>
  <outline>
    <contour>
      <point x="503" y="700" type="line"/>
      <point x="94" y="700" type="line"/>
      <point x="94" y="0" type="line"/>
      <point x="503" y="0" type="line"/>
      <point x="503" y="34" type="line"/>
      <point x="130" y="34" type="line"/>
      <point x="130" y="341" type="line"/>
      <point x="443" y="341" type="line"/>
      <point x="443" y="375" type="line"/>
      <point x="130" y="375" type="line"/>
      <point x="130" y="666" type="line"/>
      <point x="503" y="666" type="line"/>
    </contour>
    <contour>
      <point x="170" y="854" type="line"/>
      <point x="170" y="822" type="line"/>
      <point x="437" y="822" type="line"/>
      <point x="437" y="854" type="line"/>
    </contour>
  </outline>
</glyph>
<glyph name="Ebreve" format="2">
  <advance width="552"/>
  <unicode hex="0114"/>
  <note>
Ebreve
</note>
  <anchor x="304" y="0" name="bottom"/>
  <anchor x="458" y="0" name="ogonek"/>
  <anchor x="304" y="912" name="top"/>
  <outline>
    <contour>
      <point x="503" y="700" type="line"/>
      <point x="94" y="700" type="line"/>
      <point x="94" y="0" type="line"/>
      <point x="503" y="0" type="line"/>
      <point x="503" y="34" type="line"/>
      <point x="130" y="34" type="line"/>
      <point x="130" y="341" type="line"/>
      <point x="443" y="341" type="line"/>
      <point x="443" y="375" type="line"/>
      <point x="130" y="375" type="line"/>
      <point x="130" y="666" type="line"/>
      <point x="503" y="666" type="line"/>
    </contour>
    <contour>
      <point x="206" y="912" type="curve"/>
      <point x="171" y="912" type="line"/>
      <point x="176" y="843"/>
      <point x="225" y="789"/>
      <point x="304" y="789" type="curve" smooth="yes"/>
      <point x="383" y="789"/>
      <point x="432" y="843"/>
      <point x="437" y="912" type="curve"/>
      <point x="402" y="912" type="line"/>
      <point x="397" y="862"/>
      <point x="364" y="821"/>
      <point x="304" y="821" type="curve" smooth="yes"/>
      <point x="244" y="821"/>
      <point x="211" y="862"/>
    </contour>
  </outline>
</glyph>
<glyph name="Edotaccent" format="2">
  <advance width="552"/>
  <unicode hex="0116"/>
  <note>
Edotaccent
</note>
  <anchor x="304" y="0" name="bottom"/>
  <anchor x="458" y="0" name="ogonek"/>
  <anchor x="304" y="883" name="top"/>
  <outline>
    <contour>
      <point x="503" y="700" type="line"/>
      <point x="94" y="700" type="line"/>
      <point x="94" y="0" type="line"/>
      <point x="503" y="0" type="line"/>
      <point x="503" y="34" type="line"/>
      <point x="130" y="34" type="line"/>
      <point x="130" y="341" type="line"/>
      <point x="443" y="341" type="line"/>
      <point x="443" y="375" type="line"/>
      <point x="130" y="375" type="line"/>
      <point x="130" y="666" type="line"/>
      <point x="503" y="666" type="line"/>
    </contour>
    <contour>
      <point x="283" y="883" type="line"/>
      <point x="283" y="822" type="line"/>
      <point x="325" y="822" type="line"/>
      <point x="325" y="883" type="line"/>
    </contour>
  </outline>
</glyph>
<glyph name="Eogonek" format="2">
  <advance width="552"/>
  <unicode hex="0118"/>
  <note>
Eogonek
</note>
  <anchor x="304" y="0" name="bottom"/>
  <anchor x="458" y="0" name="ogonek"/>
  <anchor x="304" y="700" name="top"/>
  <outline>
    <contour>
      <point x="503" y="700" type="line"/>
      <point x="94" y="700" type="line"/>
      <point x="94" y="0" type="line"/>
      <point x="422" y="0" type="line"/>
      <point x="401" y="-19"/>
      <point x="340" y="-81"/>
      <point x="340" y="-118" type="curve" smooth="yes"/>
      <point x="340" y="-169"/>
      <point x="374" y="-200"/>
      <point x="420" y="-200" type="curve" smooth="yes"/>
      <point x="448" y="-200"/>
      <point x="484" y="-192"/>
      <point x="484" y="-192" type="curve"/>
      <point x="480" y="-159" type="line"/>
      <point x="480" y="-159"/>
      <point x="443" y="-166"/>
      <point x="424" y="-166" type="curve" smooth="yes"/>
      <point x="396" y="-166"/>
      <point x="377" y="-143"/>
      <point x="377" y="-116" type="curve" smooth="yes"/>
      <point x="377" y="-84"/>
      <point x="458" y="0"/>
      <point x="458" y="0" type="curve"/>
      <point x="503" y="0" type="line"/>
      <point x="503" y="34" type="line"/>
      <point x="130" y="34" type="line"/>
      <point x="130" y="341" type="line"/>
      <point x="443" y="341" type="line"/>
      <point x="443" y="375" type="line"/>
      <point x="130" y="375" type="line"/>
      <point x="130" y="666" type="line"/>
      <point x="503" y="666" type="line"/>
    </contour>
  </outline>
</glyph>
<glyph name="eogonek" format="2">
  <advance width="498"/>
  <unicode hex="0119"/>
  <note>
eogonek
</note>
  <anchor x="252" y="0" name="bottom"/>
  <anchor x="377" y="0" name="ogonek"/>
  <anchor x="258" y="500" name="top"/>
  <outline>
    <contour>
      <point x="252" y="22" type="curve" smooth="yes"/>
      <point x="124" y="22"/>
      <point x="93" y="98"/>
      <point x="93" y="236" type="curve"/>
      <point x="448" y="236" type="line"/>
      <point x="448" y="269" type="line" smooth="yes"/>
      <point x="448" y="442"/>
      <point x="384" y="510"/>
      <point x="259" y="510" type="curve" smooth="yes"/>
      <point x="137" y="510"/>
      <point x="56" y="445"/>
      <point x="56" y="239" type="curve" smooth="yes"/>
      <point x="56" y="94"/>
      <point x="90" y="-9"/>
      <point x="251" y="-10" type="curve" smooth="yes"/>
      <point x="269" y="-10"/>
      <point x="293" y="-9"/>
      <point x="317" y="-8" type="curve"/>
      <point x="292" y="-33"/>
      <point x="243" y="-85"/>
      <point x="243" y="-118" type="curve" smooth="yes"/>
      <point x="243" y="-169"/>
      <point x="277" y="-200"/>
      <point x="323" y="-200" type="curve" smooth="yes"/>
      <point x="351" y="-200"/>
      <point x="387" y="-192"/>
      <point x="387" y="-192" type="curve"/>
      <point x="383" y="-159" type="line"/>
      <point x="383" y="-159"/>
      <point x="346" y="-166"/>
      <point x="327" y="-166" type="curve" smooth="yes"/>
      <point x="299" y="-166"/>
      <point x="280" y="-143"/>
      <point x="280" y="-116" type="curve" smooth="yes"/>
      <point x="280" y="-89"/>
      <point x="338" y="-25"/>
      <point x="356" y="-5" type="curve"/>
      <point x="396" y="-3"/>
      <point x="429" y="0"/>
      <point x="429" y="0" type="curve"/>
      <point x="427" y="32" type="line"/>
      <point x="427" y="32"/>
      <point x="310" y="22"/>
    </contour>
    <contour>
      <point x="411" y="268" type="curve"/>
      <point x="93" y="268" type="line"/>
      <point x="93" y="425"/>
      <point x="158" y="478"/>
      <point x="259" y="478" type="curve" smooth="yes"/>
      <point x="365" y="478"/>
      <point x="411" y="421"/>
    </contour>
  </outline>
</glyph>
<glyph name="Ecaron" format="2">
  <advance width="552"/>
  <unicode hex="011A"/>
  <note>
Ecaron
</note>
  <anchor x="304" y="0" name="bottom"/>
  <anchor x="458" y="0" name="ogonek"/>
  <anchor x="304" y="912" name="top"/>
  <outline>
    <contour>
      <point x="503" y="700" type="line"/>
      <point x="94" y="700" type="line"/>
      <point x="94" y="0" type="line"/>
      <point x="503" y="0" type="line"/>
      <point x="503" y="34" type="line"/>
      <point x="130" y="34" type="line"/>
      <point x="130" y="341" type="line"/>
      <point x="443" y="341" type="line"/>
      <point x="443" y="375" type="line"/>
      <point x="130" y="375" type="line"/>
      <point x="130" y="666" type="line"/>
      <point x="503" y="666" type="line"/>
    </contour>
    <contour>
      <point x="211" y="908" type="line"/>
      <point x="168" y="908" type="line"/>
      <point x="287" y="793" type="line"/>
      <point x="321" y="793" type="line"/>
      <point x="440" y="908" type="line"/>
      <point x="397" y="908" type="line"/>
      <point x="304" y="823" type="line"/>
    </contour>
  </outline>
</glyph>
<glyph name="ecaron" format="2">
  <advance width="498"/>
  <unicode hex="011B"/>
  <note>
ecaron
</note>
  <anchor x="252" y="0" name="bottom"/>
  <anchor x="377" y="0" name="ogonek"/>
  <anchor x="258" y="732" name="top"/>
  <outline>
    <contour>
      <point x="252" y="22" type="curve" smooth="yes"/>
      <point x="124" y="22"/>
      <point x="93" y="98"/>
      <point x="93" y="236" type="curve"/>
      <point x="448" y="236" type="line"/>
      <point x="448" y="269" type="line" smooth="yes"/>
      <point x="448" y="442"/>
      <point x="384" y="510"/>
      <point x="259" y="510" type="curve" smooth="yes"/>
      <point x="137" y="510"/>
      <point x="56" y="445"/>
      <point x="56" y="239" type="curve" smooth="yes"/>
      <point x="56" y="94"/>
      <point x="90" y="-9"/>
      <point x="251" y="-10" type="curve" smooth="yes"/>
      <point x="312" y="-10"/>
      <point x="429" y="0"/>
      <point x="429" y="0" type="curve"/>
      <point x="427" y="32" type="line"/>
      <point x="427" y="32"/>
      <point x="310" y="22"/>
    </contour>
    <contour>
      <point x="411" y="268" type="curve"/>
      <point x="93" y="268" type="line"/>
      <point x="93" y="425"/>
      <point x="158" y="478"/>
      <point x="259" y="478" type="curve" smooth="yes"/>
      <point x="365" y="478"/>
      <point x="411" y="421"/>
    </contour>
    <contour>
      <point x="165" y="728" type="line"/>
      <point x="122" y="728" type="line"/>
      <point x="241" y="613" type="line"/>
      <point x="275" y="613" type="line"/>
      <point x="394" y="728" type="line"/>
      <point x="351" y="728" type="line"/>
      <point x="258" y="643" type="line"/>
    </contour>
  </outline>
</glyph>
<glyph name="Hcircumflex" format="2">
  <advance width="678"/>
  <unicode hex="0124"/>
  <note>
Hcircumflex
</note>
  <anchor x="339" y="0" name="bottom"/>
  <anchor x="339" y="537" name="center"/>
  <anchor x="339" y="908" name="top"/>
  <outline>
    <contour>
      <point x="130" y="339" type="line"/>
      <point x="548" y="339" type="line"/>
      <point x="548" y="0" type="line"/>
      <point x="584" y="0" type="line"/>
      <point x="584" y="700" type="line"/>
      <point x="548" y="700" type="line"/>
      <point x="548" y="373" type="line"/>
      <point x="130" y="373" type="line"/>
      <point x="130" y="700" type="line"/>
      <point x="94" y="700" type="line"/>
      <point x="94" y="0" type="line"/>
      <point x="130" y="0" type="line"/>
    </contour>
    <contour>
      <point x="322" y="908" type="line"/>
      <point x="203" y="793" type="line"/>
      <point x="246" y="793" type="line"/>
      <point x="339" y="878" type="line"/>
      <point x="432" y="793" type="line"/>
      <point x="475" y="793" type="line"/>
      <point x="356" y="908" type="line"/>
    </contour>
  </outline>
</glyph>
<glyph name="hcircumflex" format="2">
  <advance width="532"/>
  <unicode hex="0125"/>
  <note>
hcircumflex
</note>
  <anchor x="265" y="0" name="bottom"/>
  <anchor x="208" y="614" name="center"/>
  <anchor x="100" y="938" name="top"/>
  <outline>
    <contour>
      <point x="82" y="730" type="line"/>
      <point x="82" y="0" type="line"/>
      <point x="117" y="0" type="line"/>
      <point x="117" y="438" type="line"/>
      <point x="117" y="438"/>
      <point x="202" y="478"/>
      <point x="298" y="478" type="curve" smooth="yes"/>
      <point x="402" y="478"/>
      <point x="420" y="429"/>
      <point x="420" y="259" type="curve" smooth="yes"/>
      <point x="420" y="0" type="line"/>
      <point x="455" y="0" type="line"/>
      <point x="455" y="261" type="line" smooth="yes"/>
      <point x="455" y="455"/>
      <point x="423" y="510"/>
      <point x="303" y="510" type="curve" smooth="yes"/>
      <point x="201" y="510"/>
      <point x="117" y="470"/>
      <point x="117" y="470" type="curve"/>
      <point x="117" y="730" type="line"/>
    </contour>
    <contour>
      <point x="83" y="938" type="line"/>
      <point x="-36" y="823" type="line"/>
      <point x="7" y="823" type="line"/>
      <point x="100" y="908" type="line"/>
      <point x="193" y="823" type="line"/>
      <point x="236" y="823" type="line"/>
      <point x="117" y="938" type="line"/>
    </contour>
  </outline>
</glyph>
<glyph name="Hbar" format="2">
  <advance width="708"/>
  <unicode hex="0126"/>
  <note>
Hbar
</note>
  <anchor x="354" y="0" name="bottom"/>
  <anchor x="354" y="537" name="center"/>
  <anchor x="354" y="700" name="top"/>
  <outline>
    <contour>
      <point x="145" y="339" type="line"/>
      <point x="563" y="339" type="line"/>
      <point x="563" y="0" type="line"/>
      <point x="599" y="0" type="line"/>
      <point x="599" y="520" type="line"/>
      <point x="681" y="520" type="line"/>
      <point x="681" y="554" type="line"/>
      <point x="599" y="554" type="line"/>
      <point x="599" y="700" type="line"/>
      <point x="563" y="700" type="line"/>
      <point x="563" y="554" type="line"/>
      <point x="145" y="554" type="line"/>
      <point x="145" y="700" type="line"/>
      <point x="109" y="700" type="line"/>
      <point x="109" y="554" type="line"/>
      <point x="27" y="554" type="line"/>
      <point x="27" y="520" type="line"/>
      <point x="109" y="520" type="line"/>
      <point x="109" y="0" type="line"/>
      <point x="145" y="0" type="line"/>
    </contour>
    <contour>
      <point x="563" y="373" type="line"/>
      <point x="145" y="373" type="line"/>
      <point x="145" y="520" type="line"/>
      <point x="563" y="520" type="line"/>
    </contour>
  </outline>
</glyph>
<glyph name="Itilde" format="2">
  <advance width="224"/>
  <unicode hex="0128"/>
  <note>
Itilde
</note>
  <anchor x="112" y="0" name="bottom"/>
  <anchor x="112" y="353" name="center"/>
  <anchor x="130" y="0" name="ogonek"/>
  <anchor x="112" y="895" name="top"/>
  <outline>
    <contour>
      <point x="130" y="700" type="line"/>
      <point x="94" y="700" type="line"/>
      <point x="94" y="0" type="line"/>
      <point x="130" y="0" type="line"/>
    </contour>
    <contour>
      <point x="-46" y="841" type="curve"/>
      <point x="-29" y="819" type="line"/>
      <point x="-29" y="819"/>
      <point x="20" y="864"/>
      <point x="41" y="864" type="curve" smooth="yes"/>
      <point x="73" y="864"/>
      <point x="148" y="810"/>
      <point x="188" y="810" type="curve" smooth="yes"/>
      <point x="219" y="810"/>
      <point x="269" y="861"/>
      <point x="269" y="861" type="curve"/>
      <point x="252" y="883" type="line"/>
      <point x="252" y="883"/>
      <point x="208" y="842"/>
      <point x="190" y="842" type="curve" smooth="yes"/>
      <point x="158" y="842"/>
      <point x="83" y="895"/>
      <point x="43" y="895" type="curve" smooth="yes"/>
      <point x="10" y="895"/>
      <point x="-46" y="841"/>
    </contour>
  </outline>
</glyph>
<glyph name="itilde" format="2">
  <advance width="199"/>
  <unicode hex="0129"/>
  <note>
itilde
</note>
  <anchor x="100" y="0" name="bottom"/>
  <anchor x="117" y="0" name="ogonek"/>
  <anchor x="100" y="715" name="top"/>
  <outline>
    <contour>
      <point x="117" y="500" type="line"/>
      <point x="82" y="500" type="line"/>
      <point x="82" y="0" type="line"/>
      <point x="117" y="0" type="line"/>
    </contour>
    <contour>
      <point x="-58" y="661" type="curve"/>
      <point x="-41" y="639" type="line"/>
      <point x="-41" y="639"/>
      <point x="8" y="684"/>
      <point x="29" y="684" type="curve" smooth="yes"/>
      <point x="61" y="684"/>
      <point x="136" y="630"/>
      <point x="176" y="630" type="curve" smooth="yes"/>
      <point x="207" y="630"/>
      <point x="257" y="681"/>
      <point x="257" y="681" type="curve"/>
      <point x="240" y="703" type="line"/>
      <point x="240" y="703"/>
      <point x="196" y="662"/>
      <point x="178" y="662" type="curve" smooth="yes"/>
      <point x="146" y="662"/>
      <point x="71" y="715"/>
      <point x="31" y="715" type="curve" smooth="yes"/>
      <point x="-2" y="715"/>
      <point x="-58" y="661"/>
    </contour>
  </outline>
</glyph>
<glyph name="Imacron" format="2">
  <advance width="224"/>
  <unicode hex="012A"/>
  <note>
Imacron
</note>
  <anchor x="112" y="0" name="bottom"/>
  <anchor x="112" y="353" name="center"/>
  <anchor x="130" y="0" name="ogonek"/>
  <anchor x="112" y="854" name="top"/>
  <outline>
    <contour>
      <point x="130" y="700" type="line"/>
      <point x="94" y="700" type="line"/>
      <point x="94" y="0" type="line"/>
      <point x="130" y="0" type="line"/>
    </contour>
    <contour>
      <point x="-22" y="854" type="line"/>
      <point x="-22" y="822" type="line"/>
      <point x="245" y="822" type="line"/>
      <point x="245" y="854" type="line"/>
    </contour>
  </outline>
</glyph>
<glyph name="imacron" format="2">
  <advance width="199"/>
  <unicode hex="012B"/>
  <note>
imacron
</note>
  <anchor x="100" y="0" name="bottom"/>
  <anchor x="117" y="0" name="ogonek"/>
  <anchor x="100" y="674" name="top"/>
  <outline>
    <contour>
      <point x="117" y="500" type="line"/>
      <point x="82" y="500" type="line"/>
      <point x="82" y="0" type="line"/>
      <point x="117" y="0" type="line"/>
    </contour>
    <contour>
      <point x="-34" y="674" type="line"/>
      <point x="-34" y="642" type="line"/>
      <point x="233" y="642" type="line"/>
      <point x="233" y="674" type="line"/>
    </contour>
  </outline>
</glyph>
<glyph name="Ibreve" format="2">
  <advance width="224"/>
  <unicode hex="012C"/>
  <note>
Ibreve
</note>
  <anchor x="112" y="0" name="bottom"/>
  <anchor x="112" y="353" name="center"/>
  <anchor x="130" y="0" name="ogonek"/>
  <anchor x="112" y="912" name="top"/>
  <outline>
    <contour>
      <point x="130" y="700" type="line"/>
      <point x="94" y="700" type="line"/>
      <point x="94" y="0" type="line"/>
      <point x="130" y="0" type="line"/>
    </contour>
    <contour>
      <point x="14" y="912" type="curve"/>
      <point x="-21" y="912" type="line"/>
      <point x="-16" y="843"/>
      <point x="33" y="789"/>
      <point x="112" y="789" type="curve" smooth="yes"/>
      <point x="191" y="789"/>
      <point x="240" y="843"/>
      <point x="245" y="912" type="curve"/>
      <point x="210" y="912" type="line"/>
      <point x="205" y="862"/>
      <point x="172" y="821"/>
      <point x="112" y="821" type="curve" smooth="yes"/>
      <point x="52" y="821"/>
      <point x="19" y="862"/>
    </contour>
  </outline>
</glyph>
<glyph name="ibreve" format="2">
  <advance width="199"/>
  <unicode hex="012D"/>
  <note>
ibreve
</note>
  <anchor x="100" y="0" name="bottom"/>
  <anchor x="117" y="0" name="ogonek"/>
  <anchor x="100" y="732" name="top"/>
  <outline>
    <contour>
      <point x="117" y="500" type="line"/>
      <point x="82" y="500" type="line"/>
      <point x="82" y="0" type="line"/>
      <point x="117" y="0" type="line"/>
    </contour>
    <contour>
      <point x="2" y="732" type="curve"/>
      <point x="-33" y="732" type="line"/>
      <point x="-28" y="663"/>
      <point x="21" y="609"/>
      <point x="100" y="609" type="curve" smooth="yes"/>
      <point x="179" y="609"/>
      <point x="228" y="663"/>
      <point x="233" y="732" type="curve"/>
      <point x="198" y="732" type="line"/>
      <point x="193" y="682"/>
      <point x="160" y="641"/>
      <point x="100" y="641" type="curve" smooth="yes"/>
      <point x="40" y="641"/>
      <point x="7" y="682"/>
    </contour>
  </outline>
</glyph>
<glyph name="Iogonek" format="2">
  <advance width="224"/>
  <unicode hex="012E"/>
  <note>
Iogonek
</note>
  <anchor x="112" y="0" name="bottom"/>
  <anchor x="112" y="353" name="center"/>
  <anchor x="130" y="0" name="ogonek"/>
  <anchor x="112" y="700" name="top"/>
  <outline>
    <contour>
      <point x="130" y="700" type="line"/>
      <point x="94" y="700" type="line"/>
      <point x="94" y="0" type="line"/>
      <point x="74" y="-19"/>
      <point x="12" y="-81"/>
      <point x="12" y="-118" type="curve" smooth="yes"/>
      <point x="12" y="-169"/>
      <point x="46" y="-200"/>
      <point x="92" y="-200" type="curve" smooth="yes"/>
      <point x="120" y="-200"/>
      <point x="156" y="-192"/>
      <point x="156" y="-192" type="curve"/>
      <point x="152" y="-159" type="line"/>
      <point x="152" y="-159"/>
      <point x="115" y="-166"/>
      <point x="96" y="-166" type="curve" smooth="yes"/>
      <point x="68" y="-166"/>
      <point x="49" y="-143"/>
      <point x="49" y="-116" type="curve" smooth="yes"/>
      <point x="49" y="-84"/>
      <point x="130" y="0"/>
      <point x="130" y="0" type="curve"/>
    </contour>
  </outline>
</glyph>
<glyph name="iogonek" format="2">
  <advance width="199"/>
  <unicode hex="012F"/>
  <note>
iogonek
</note>
  <anchor x="100" y="0" name="bottom"/>
  <anchor x="117" y="0" name="ogonek"/>
  <anchor x="100" y="700" name="top"/>
  <outline>
    <contour>
      <point x="117" y="500" type="line"/>
      <point x="82" y="500" type="line"/>
      <point x="82" y="1" type="line"/>
      <point x="63" y="-16"/>
      <point x="-1" y="-80"/>
      <point x="-1" y="-118" type="curve" smooth="yes"/>
      <point x="-1" y="-169"/>
      <point x="33" y="-200"/>
      <point x="79" y="-200" type="curve" smooth="yes"/>
      <point x="107" y="-200"/>
      <point x="143" y="-192"/>
      <point x="143" y="-192" type="curve"/>
      <point x="139" y="-159" type="line"/>
      <point x="139" y="-159"/>
      <point x="102" y="-166"/>
      <point x="83" y="-166" type="curve" smooth="yes"/>
      <point x="55" y="-166"/>
      <point x="36" y="-143"/>
      <point x="36" y="-116" type="curve" smooth="yes"/>
      <point x="36" y="-84"/>
      <point x="117" y="0"/>
      <point x="117" y="0" type="curve"/>
    </contour>
    <contour>
      <point x="80" y="700" type="line"/>
      <point x="80" y="625" type="line"/>
      <point x="119" y="625" type="line"/>
      <point x="119" y="700" type="line"/>
    </contour>
  </outline>
</glyph>
<glyph name="Idotaccent" format="2">
  <advance width="224"/>
  <unicode hex="0130"/>
  <note>
Idotaccent
</note>
  <anchor x="112" y="0" name="bottom"/>
  <anchor x="112" y="353" name="center"/>
  <anchor x="130" y="0" name="ogonek"/>
  <anchor x="112" y="883" name="top"/>
  <outline>
    <contour>
      <point x="130" y="700" type="line"/>
      <point x="94" y="700" type="line"/>
      <point x="94" y="0" type="line"/>
      <point x="130" y="0" type="line"/>
    </contour>
    <contour>
      <point x="91" y="883" type="line"/>
      <point x="91" y="822" type="line"/>
      <point x="133" y="822" type="line"/>
      <point x="133" y="883" type="line"/>
    </contour>
  </outline>
</glyph>
<glyph name="dotlessi" format="2">
  <advance width="199"/>
  <unicode hex="0131"/>
  <note>
dotlessi
</note>
  <anchor x="100" y="0" name="bottom"/>
  <anchor x="117" y="0" name="ogonek"/>
  <anchor x="100" y="500" name="top"/>
  <outline>
    <contour>
      <point x="117" y="500" type="line"/>
      <point x="82" y="500" type="line"/>
      <point x="82" y="0" type="line"/>
      <point x="117" y="0" type="line"/>
    </contour>
  </outline>
</glyph>
<glyph name="IJ" format="2">
  <advance width="509"/>
  <unicode hex="0132"/>
  <note>
IJ
</note>
  <anchor x="374" y="0" name="bottom"/>
  <anchor x="112" y="353" name="center"/>
  <anchor x="130" y="0" name="ogonek"/>
  <anchor x="401" y="700" name="top"/>
  <outline>
    <contour>
      <point x="130" y="700" type="line"/>
      <point x="94" y="700" type="line"/>
      <point x="94" y="0" type="line"/>
      <point x="130" y="0" type="line"/>
    </contour>
    <contour>
      <point x="245" y="27" type="curve"/>
      <point x="245" y="-7" type="line"/>
      <point x="387" y="-7"/>
      <point x="418" y="16"/>
      <point x="418" y="114" type="curve" smooth="yes"/>
      <point x="418" y="700" type="line"/>
      <point x="382" y="700" type="line"/>
      <point x="382" y="124" type="line" smooth="yes"/>
      <point x="382" y="51"/>
      <point x="372" y="27"/>
    </contour>
  </outline>
</glyph>
<glyph name="ij" format="2">
  <advance width="424"/>
  <unicode hex="0133"/>
  <note>
ij
</note>
  <anchor x="324" y="-230" name="bottom"/>
  <anchor x="117" y="0" name="ogonek"/>
  <anchor x="324" y="700" name="top"/>
  <outline>
    <contour>
      <point x="117" y="500" type="line"/>
      <point x="82" y="500" type="line"/>
      <point x="82" y="0" type="line"/>
      <point x="117" y="0" type="line"/>
    </contour>
    <contour>
      <point x="80" y="700" type="line"/>
      <point x="80" y="625" type="line"/>
      <point x="119" y="625" type="line"/>
      <point x="119" y="700" type="line"/>
    </contour>
    <contour>
      <point x="169" y="-209" type="curve"/>
      <point x="183" y="-240" type="line"/>
      <point x="312" y="-174"/>
      <point x="342" y="-129"/>
      <point x="342" y="-17" type="curve" smooth="yes"/>
      <point x="342" y="500" type="line"/>
      <point x="307" y="500" type="line"/>
      <point x="307" y="-16" type="line" smooth="yes"/>
      <point x="307" y="-120"/>
      <point x="283" y="-147"/>
    </contour>
    <contour>
      <point x="304" y="700" type="line"/>
      <point x="304" y="625" type="line"/>
      <point x="343" y="625" type="line"/>
      <point x="343" y="700" type="line"/>
    </contour>
  </outline>
</glyph>
<glyph name="Jcircumflex" format="2">
  <advance width="279"/>
  <unicode hex="0134"/>
  <note>
Jcircumflex
</note>
  <anchor x="144" y="0" name="bottom"/>
  <anchor x="171" y="908" name="top"/>
  <outline>
    <contour>
      <point x="188" y="114" type="curve" smooth="yes"/>
      <point x="188" y="700" type="line"/>
      <point x="152" y="700" type="line"/>
      <point x="152" y="124" type="line" smooth="yes"/>
      <point x="152" y="51"/>
      <point x="142" y="27"/>
      <point x="15" y="27" type="curve"/>
      <point x="15" y="-7" type="line"/>
      <point x="157" y="-7"/>
      <point x="188" y="16"/>
    </contour>
    <contour>
      <point x="154" y="908" type="line"/>
      <point x="35" y="793" type="line"/>
      <point x="78" y="793" type="line"/>
      <point x="171" y="878" type="line"/>
      <point x="264" y="793" type="line"/>
      <point x="307" y="793" type="line"/>
      <point x="188" y="908" type="line"/>
    </contour>
  </outline>
</glyph>
<glyph name="jcircumflex" format="2">
  <advance width="199"/>
  <unicode hex="0135"/>
  <note>
jcircumflex
</note>
  <anchor x="99" y="-230" name="bottom"/>
  <anchor x="99" y="732" name="top"/>
  <outline>
    <contour>
      <point x="117" y="500" type="line"/>
      <point x="82" y="500" type="line"/>
      <point x="82" y="-16" type="line" smooth="yes"/>
      <point x="82" y="-120"/>
      <point x="58" y="-147"/>
      <point x="-56" y="-209" type="curve"/>
      <point x="-42" y="-240" type="line"/>
      <point x="87" y="-174"/>
      <point x="117" y="-129"/>
      <point x="117" y="-17" type="curve" smooth="yes"/>
    </contour>
    <contour>
      <point x="82" y="728" type="line"/>
      <point x="-37" y="613" type="line"/>
      <point x="6" y="613" type="line"/>
      <point x="99" y="698" type="line"/>
      <point x="192" y="613" type="line"/>
      <point x="235" y="613" type="line"/>
      <point x="116" y="728" type="line"/>
    </contour>
  </outline>
</glyph>
<glyph name="uni0136" format="2">
  <advance width="553"/>
  <unicode hex="0136"/>
  <note>
uni0136
</note>
  <anchor x="243" y="-238" name="bottom"/>
  <anchor x="281" y="700" name="top"/>
  <outline>
    <contour>
      <point x="130" y="329" type="line"/>
      <point x="262" y="329" type="line"/>
      <point x="492" y="0" type="line"/>
      <point x="536" y="0" type="line"/>
      <point x="291" y="348" type="line"/>
      <point x="522" y="700" type="line"/>
      <point x="481" y="700" type="line"/>
      <point x="261" y="363" type="line"/>
      <point x="130" y="363" type="line"/>
      <point x="130" y="700" type="line"/>
      <point x="94" y="700" type="line"/>
      <point x="94" y="0" type="line"/>
      <point x="130" y="0" type="line"/>
    </contour>
    <contour>
      <point x="287" y="-99" type="line"/>
      <point x="204" y="-236" type="line"/>
      <point x="225" y="-251" type="line"/>
      <point x="316" y="-121" type="line"/>
    </contour>
  </outline>
</glyph>
<glyph name="uni0137" format="2">
  <advance width="453"/>
  <unicode hex="0137"/>
  <note>
uni0137
</note>
  <anchor x="204" y="-238" name="bottom"/>
  <anchor x="99" y="730" name="top"/>
  <outline>
    <contour>
      <point x="82" y="730" type="line"/>
      <point x="82" y="0" type="line"/>
      <point x="117" y="0" type="line"/>
      <point x="117" y="257" type="line"/>
      <point x="213" y="257" type="line"/>
      <point x="393" y="0" type="line"/>
      <point x="435" y="0" type="line"/>
      <point x="243" y="274" type="line"/>
      <point x="427" y="500" type="line"/>
      <point x="385" y="500" type="line"/>
      <point x="213" y="289" type="line"/>
      <point x="117" y="289" type="line"/>
      <point x="117" y="730" type="line"/>
    </contour>
    <contour>
      <point x="248" y="-99" type="line"/>
      <point x="165" y="-236" type="line"/>
      <point x="186" y="-251" type="line"/>
      <point x="277" y="-121" type="line"/>
    </contour>
  </outline>
</glyph>
<glyph name="Lacute" format="2">
  <advance width="484"/>
  <unicode hex="0139"/>
  <note>
Lacute
</note>
  <anchor x="279" y="0" name="bottom"/>
  <anchor x="113" y="350" name="center"/>
  <anchor x="113" y="912" name="top"/>
  <anchor x="296" y="700" name="topright"/>
  <outline>
    <contour>
      <point x="94" y="700" type="line"/>
      <point x="94" y="0" type="line"/>
      <point x="471" y="0" type="line"/>
      <point x="471" y="34" type="line"/>
      <point x="130" y="34" type="line"/>
      <point x="130" y="700" type="line"/>
    </contour>
    <contour>
      <point x="201" y="912" type="line"/>
      <point x="10" y="816" type="line"/>
      <point x="23" y="789" type="line"/>
      <point x="216" y="881" type="line"/>
    </contour>
  </outline>
</glyph>
<glyph name="lacute" format="2">
  <advance width="252"/>
  <unicode hex="013A"/>
  <note>
lacute
</note>
  <anchor x="163" y="0" name="bottom"/>
  <anchor x="96" y="365" name="center"/>
  <anchor x="97" y="942" name="top"/>
  <anchor x="182" y="730" name="topright"/>
  <outline>
    <contour>
      <point x="114" y="98" type="curve" smooth="yes"/>
      <point x="114" y="730" type="line"/>
      <point x="79" y="730" type="line"/>
      <point x="79" y="87" type="line" smooth="yes"/>
      <point x="79" y="23"/>
      <point x="105" y="-10"/>
      <point x="176" y="-10" type="curve" smooth="yes"/>
      <point x="211" y="-10"/>
      <point x="237" y="-3"/>
      <point x="237" y="-3" type="curve"/>
      <point x="234" y="26" type="line"/>
      <point x="234" y="26"/>
      <point x="207" y="23"/>
      <point x="179" y="23" type="curve" smooth="yes"/>
      <point x="128" y="23"/>
      <point x="114" y="44"/>
    </contour>
    <contour>
      <point x="185" y="942" type="line"/>
      <point x="-6" y="846" type="line"/>
      <point x="7" y="819" type="line"/>
      <point x="200" y="911" type="line"/>
    </contour>
  </outline>
</glyph>
<glyph name="uni013B" format="2">
  <advance width="484"/>
  <unicode hex="013B"/>
  <note>
uni013B
</note>
  <anchor x="236" y="-238" name="bottom"/>
  <anchor x="113" y="350" name="center"/>
  <anchor x="113" y="700" name="top"/>
  <anchor x="296" y="700" name="topright"/>
  <outline>
    <contour>
      <point x="94" y="700" type="line"/>
      <point x="94" y="0" type="line"/>
      <point x="471" y="0" type="line"/>
      <point x="471" y="34" type="line"/>
      <point x="130" y="34" type="line"/>
      <point x="130" y="700" type="line"/>
    </contour>
    <contour>
      <point x="280" y="-99" type="line"/>
      <point x="197" y="-236" type="line"/>
      <point x="218" y="-251" type="line"/>
      <point x="309" y="-121" type="line"/>
    </contour>
  </outline>
</glyph>
<glyph name="uni013C" format="2">
  <advance width="252"/>
  <unicode hex="013C"/>
  <note>
uni013C
</note>
  <anchor x="120" y="-238" name="bottom"/>
  <anchor x="96" y="365" name="center"/>
  <anchor x="97" y="730" name="top"/>
  <anchor x="182" y="730" name="topright"/>
  <outline>
    <contour>
      <point x="114" y="98" type="curve" smooth="yes"/>
      <point x="114" y="730" type="line"/>
      <point x="79" y="730" type="line"/>
      <point x="79" y="87" type="line" smooth="yes"/>
      <point x="79" y="23"/>
      <point x="105" y="-10"/>
      <point x="176" y="-10" type="curve" smooth="yes"/>
      <point x="211" y="-10"/>
      <point x="237" y="-3"/>
      <point x="237" y="-3" type="curve"/>
      <point x="234" y="26" type="line"/>
      <point x="234" y="26"/>
      <point x="207" y="23"/>
      <point x="179" y="23" type="curve" smooth="yes"/>
      <point x="128" y="23"/>
      <point x="114" y="44"/>
    </contour>
    <contour>
      <point x="164" y="-99" type="line"/>
      <point x="81" y="-236" type="line"/>
      <point x="102" y="-251" type="line"/>
      <point x="193" y="-121" type="line"/>
    </contour>
  </outline>
</glyph>
<glyph name="Lcaron" format="2">
  <advance width="485"/>
  <unicode hex="013D"/>
  <note>
Lcaron
</note>
  <anchor x="279" y="0" name="bottom"/>
  <anchor x="113" y="350" name="center"/>
  <anchor x="113" y="700" name="top"/>
  <anchor x="296" y="700" name="topright"/>
  <outline>
    <contour>
      <point x="94" y="700" type="line"/>
      <point x="94" y="0" type="line"/>
      <point x="471" y="0" type="line"/>
      <point x="471" y="34" type="line"/>
      <point x="130" y="34" type="line"/>
      <point x="130" y="700" type="line"/>
    </contour>
    <contour>
      <point x="309" y="571" type="curve"/>
      <point x="323" y="564" type="line"/>
      <point x="323" y="564"/>
      <point x="366" y="604"/>
      <point x="366" y="639" type="curve" smooth="yes"/>
      <point x="366" y="700" type="line"/>
      <point x="332" y="700" type="line"/>
      <point x="332" y="700"/>
      <point x="333" y="660"/>
      <point x="333" y="638" type="curve" smooth="yes"/>
      <point x="333" y="622"/>
      <point x="309" y="571"/>
    </contour>
  </outline>
</glyph>
<glyph name="lcaron" format="2">
  <advance width="252"/>
  <unicode hex="013E"/>
  <note>
lcaron
</note>
  <anchor x="163" y="0" name="bottom"/>
  <anchor x="96" y="365" name="center"/>
  <anchor x="97" y="730" name="top"/>
  <anchor x="182" y="730" name="topright"/>
  <outline>
    <contour>
      <point x="114" y="98" type="curve" smooth="yes"/>
      <point x="114" y="730" type="line"/>
      <point x="79" y="730" type="line"/>
      <point x="79" y="87" type="line" smooth="yes"/>
      <point x="79" y="23"/>
      <point x="105" y="-10"/>
      <point x="176" y="-10" type="curve" smooth="yes"/>
      <point x="211" y="-10"/>
      <point x="237" y="-3"/>
      <point x="237" y="-3" type="curve"/>
      <point x="234" y="26" type="line"/>
      <point x="234" y="26"/>
      <point x="207" y="23"/>
      <point x="179" y="23" type="curve" smooth="yes"/>
      <point x="128" y="23"/>
      <point x="114" y="44"/>
    </contour>
    <contour>
      <point x="195" y="601" type="curve"/>
      <point x="209" y="594" type="line"/>
      <point x="209" y="594"/>
      <point x="252" y="634"/>
      <point x="252" y="669" type="curve" smooth="yes"/>
      <point x="252" y="730" type="line"/>
      <point x="218" y="730" type="line"/>
      <point x="218" y="730"/>
      <point x="219" y="690"/>
      <point x="219" y="668" type="curve" smooth="yes"/>
      <point x="219" y="652"/>
      <point x="195" y="601"/>
    </contour>
  </outline>
</glyph>
<glyph name="Ldot" format="2">
  <advance width="489"/>
  <unicode hex="013F"/>
  <note>
Ldot
</note>
  <anchor x="279" y="0" name="bottom"/>
  <anchor x="113" y="350" name="center"/>
  <anchor x="113" y="700" name="top"/>
  <anchor x="296" y="700" name="topright"/>
  <outline>
    <contour>
      <point x="94" y="700" type="line"/>
      <point x="94" y="0" type="line"/>
      <point x="471" y="0" type="line"/>
      <point x="471" y="34" type="line"/>
      <point x="130" y="34" type="line"/>
      <point x="130" y="700" type="line"/>
    </contour>
    <contour>
      <point x="371" y="421" type="line"/>
      <point x="371" y="341" type="line"/>
      <point x="411" y="341" type="line"/>
      <point x="411" y="421" type="line"/>
    </contour>
  </outline>
</glyph>
<glyph name="ldot" format="2">
  <advance width="281"/>
  <unicode hex="0140"/>
  <note>
ldot
</note>
  <anchor x="163" y="0" name="bottom"/>
  <anchor x="96" y="365" name="center"/>
  <anchor x="97" y="730" name="top"/>
  <anchor x="182" y="730" name="topright"/>
  <outline>
    <contour>
      <point x="114" y="98" type="curve" smooth="yes"/>
      <point x="114" y="730" type="line"/>
      <point x="79" y="730" type="line"/>
      <point x="79" y="87" type="line" smooth="yes"/>
      <point x="79" y="23"/>
      <point x="105" y="-10"/>
      <point x="176" y="-10" type="curve" smooth="yes"/>
      <point x="211" y="-10"/>
      <point x="237" y="-3"/>
      <point x="237" y="-3" type="curve"/>
      <point x="234" y="26" type="line"/>
      <point x="234" y="26"/>
      <point x="207" y="23"/>
      <point x="179" y="23" type="curve" smooth="yes"/>
      <point x="128" y="23"/>
      <point x="114" y="44"/>
    </contour>
    <contour>
      <point x="217" y="421" type="line"/>
      <point x="217" y="341" type="line"/>
      <point x="257" y="341" type="line"/>
      <point x="257" y="421" type="line"/>
    </contour>
  </outline>
</glyph>
<glyph name="Lslash" format="2">
  <advance width="516"/>
  <unicode hex="0141"/>
  <note>
Lslash
</note>
  <anchor x="311" y="0" name="bottom"/>
  <anchor x="145" y="350" name="center"/>
  <anchor x="145" y="700" name="top"/>
  <anchor x="328" y="700" name="topright"/>
  <outline>
    <contour>
      <point x="126" y="319" type="line"/>
      <point x="126" y="0" type="line"/>
      <point x="503" y="0" type="line"/>
      <point x="503" y="34" type="line"/>
      <point x="162" y="34" type="line"/>
      <point x="162" y="333" type="line"/>
      <point x="324" y="414" type="line"/>
      <point x="309" y="445" type="line"/>
      <point x="162" y="371" type="line"/>
      <point x="162" y="700" type="line"/>
      <point x="126" y="700" type="line"/>
      <point x="126" y="357" type="line"/>
      <point x="24" y="306" type="line"/>
      <point x="40" y="276" type="line"/>
    </contour>
  </outline>
</glyph>
<glyph name="lslash" format="2">
  <advance width="285"/>
  <unicode hex="0142"/>
  <note>
lslash
</note>
  <anchor x="189" y="0" name="bottom"/>
  <anchor x="122" y="365" name="center"/>
  <anchor x="123" y="730" name="top"/>
  <anchor x="208" y="730" name="topright"/>
  <outline>
    <contour>
      <point x="140" y="98" type="curve" smooth="yes"/>
      <point x="140" y="349" type="line"/>
      <point x="231" y="393" type="line"/>
      <point x="216" y="424" type="line"/>
      <point x="140" y="386" type="line"/>
      <point x="140" y="730" type="line"/>
      <point x="105" y="730" type="line"/>
      <point x="105" y="372" type="line"/>
      <point x="24" y="332" type="line"/>
      <point x="37" y="301" type="line"/>
      <point x="105" y="335" type="line"/>
      <point x="105" y="87" type="line" smooth="yes"/>
      <point x="105" y="23"/>
      <point x="131" y="-10"/>
      <point x="202" y="-10" type="curve" smooth="yes"/>
      <point x="237" y="-10"/>
      <point x="263" y="-3"/>
      <point x="263" y="-3" type="curve"/>
      <point x="260" y="26" type="line"/>
      <point x="260" y="26"/>
      <point x="233" y="23"/>
      <point x="205" y="23" type="curve" smooth="yes"/>
      <point x="154" y="23"/>
      <point x="140" y="44"/>
    </contour>
  </outline>
</glyph>
<glyph name="Nacute" format="2">
  <advance width="669"/>
  <unicode hex="0143"/>
  <note>
Nacute
</note>
  <anchor x="335" y="0" name="bottom"/>
  <anchor x="356" y="912" name="top"/>
  <outline>
    <contour>
      <point x="182" y="700" type="line"/>
      <point x="94" y="700" type="line"/>
      <point x="94" y="0" type="line"/>
      <point x="130" y="0" type="line"/>
      <point x="130" y="666" type="line"/>
      <point x="160" y="666" type="line"/>
      <point x="487" y="0" type="line"/>
      <point x="575" y="0" type="line"/>
      <point x="575" y="700" type="line"/>
      <point x="539" y="700" type="line"/>
      <point x="539" y="34" type="line"/>
      <point x="509" y="34" type="line"/>
    </contour>
    <contour>
      <point x="444" y="912" type="line"/>
      <point x="253" y="816" type="line"/>
      <point x="266" y="789" type="line"/>
      <point x="459" y="881" type="line"/>
    </contour>
  </outline>
</glyph>
<glyph name="uni0145" format="2">
  <advance width="669"/>
  <unicode hex="0145"/>
  <note>
uni0145
</note>
  <anchor x="292" y="-238" name="bottom"/>
  <anchor x="356" y="700" name="top"/>
  <outline>
    <contour>
      <point x="182" y="700" type="line"/>
      <point x="94" y="700" type="line"/>
      <point x="94" y="0" type="line"/>
      <point x="130" y="0" type="line"/>
      <point x="130" y="666" type="line"/>
      <point x="160" y="666" type="line"/>
      <point x="487" y="0" type="line"/>
      <point x="575" y="0" type="line"/>
      <point x="575" y="700" type="line"/>
      <point x="539" y="700" type="line"/>
      <point x="539" y="34" type="line"/>
      <point x="509" y="34" type="line"/>
    </contour>
    <contour>
      <point x="336" y="-99" type="line"/>
      <point x="253" y="-236" type="line"/>
      <point x="274" y="-251" type="line"/>
      <point x="365" y="-121" type="line"/>
    </contour>
  </outline>
</glyph>
<glyph name="Ncaron" format="2">
  <advance width="669"/>
  <unicode hex="0147"/>
  <note>
Ncaron
</note>
  <anchor x="335" y="0" name="bottom"/>
  <anchor x="356" y="912" name="top"/>
  <outline>
    <contour>
      <point x="182" y="700" type="line"/>
      <point x="94" y="700" type="line"/>
      <point x="94" y="0" type="line"/>
      <point x="130" y="0" type="line"/>
      <point x="130" y="666" type="line"/>
      <point x="160" y="666" type="line"/>
      <point x="487" y="0" type="line"/>
      <point x="575" y="0" type="line"/>
      <point x="575" y="700" type="line"/>
      <point x="539" y="700" type="line"/>
      <point x="539" y="34" type="line"/>
      <point x="509" y="34" type="line"/>
    </contour>
    <contour>
      <point x="263" y="908" type="line"/>
      <point x="220" y="908" type="line"/>
      <point x="339" y="793" type="line"/>
      <point x="373" y="793" type="line"/>
      <point x="492" y="908" type="line"/>
      <point x="449" y="908" type="line"/>
      <point x="356" y="823" type="line"/>
    </contour>
  </outline>
</glyph>
<glyph name="napostrophe" format="2">
  <advance width="649"/>
  <unicode hex="0149"/>
  <note>
napostrophe
</note>
  <anchor x="394" y="0" name="bottom"/>
  <anchor x="380" y="500" name="top"/>
  <outline>
    <contour>
      <point x="108" y="730" type="line"/>
      <point x="68" y="730" type="line"/>
      <point x="26" y="527" type="line"/>
      <point x="57" y="527" type="line"/>
    </contour>
    <contour>
      <point x="198" y="500" type="line"/>
      <point x="198" y="0" type="line"/>
      <point x="233" y="0" type="line"/>
      <point x="233" y="427" type="line"/>
      <point x="233" y="427"/>
      <point x="312" y="478"/>
      <point x="413" y="478" type="curve" smooth="yes"/>
      <point x="515" y="478"/>
      <point x="537" y="432"/>
      <point x="537" y="258" type="curve" smooth="yes"/>
      <point x="537" y="0" type="line"/>
      <point x="572" y="0" type="line"/>
      <point x="572" y="260" type="line" smooth="yes"/>
      <point x="572" y="458"/>
      <point x="536" y="510"/>
      <point x="418" y="510" type="curve" smooth="yes"/>
      <point x="311" y="510"/>
      <point x="233" y="460"/>
      <point x="233" y="460" type="curve"/>
      <point x="233" y="500" type="line"/>
    </contour>
  </outline>
</glyph>
<glyph name="Obreve" format="2">
  <advance width="662"/>
  <unicode hex="014E"/>
  <note>
Obreve
</note>
  <anchor x="331" y="0" name="bottom"/>
  <anchor x="331" y="350" name="center"/>
  <anchor x="386" y="0" name="ogonek"/>
  <anchor x="331" y="912" name="top"/>
  <anchor x="643" y="700" name="topright"/>
  <outline>
    <contour>
      <point x="331" y="24" type="curve" smooth="yes"/>
      <point x="141" y="24"/>
      <point x="102" y="139"/>
      <point x="102" y="347" type="curve" smooth="yes"/>
      <point x="102" y="557"/>
      <point x="141" y="675"/>
      <point x="331" y="675" type="curve" smooth="yes"/>
      <point x="522" y="675"/>
      <point x="560" y="557"/>
      <point x="560" y="347" type="curve" smooth="yes"/>
      <point x="560" y="139"/>
      <point x="522" y="24"/>
    </contour>
    <contour>
      <point x="64" y="347" type="curve" smooth="yes"/>
      <point x="64" y="117"/>
      <point x="117" y="-10"/>
      <point x="331" y="-10" type="curve" smooth="yes"/>
      <point x="545" y="-10"/>
      <point x="598" y="117"/>
      <point x="598" y="347" type="curve" smooth="yes"/>
      <point x="598" y="577"/>
      <point x="545" y="709"/>
      <point x="331" y="709" type="curve" smooth="yes"/>
      <point x="117" y="709"/>
      <point x="64" y="577"/>
    </contour>
    <contour>
      <point x="233" y="912" type="curve"/>
      <point x="198" y="912" type="line"/>
      <point x="203" y="843"/>
      <point x="252" y="789"/>
      <point x="331" y="789" type="curve" smooth="yes"/>
      <point x="410" y="789"/>
      <point x="459" y="843"/>
      <point x="464" y="912" type="curve"/>
      <point x="429" y="912" type="line"/>
      <point x="424" y="862"/>
      <point x="391" y="821"/>
      <point x="331" y="821" type="curve" smooth="yes"/>
      <point x="271" y="821"/>
      <point x="238" y="862"/>
    </contour>
  </outline>
</glyph>
<glyph name="obreve" format="2">
  <advance width="518"/>
  <unicode hex="014F"/>
  <note>
obreve
</note>
  <anchor x="259" y="0" name="bottom"/>
  <anchor x="259" y="250" name="center"/>
  <anchor x="306" y="0" name="ogonek"/>
  <anchor x="259" y="732" name="top"/>
  <anchor x="502" y="500" name="topright"/>
  <outline>
    <contour>
      <point x="259" y="510" type="curve" smooth="yes"/>
      <point x="111" y="510"/>
      <point x="56" y="430"/>
      <point x="56" y="243" type="curve" smooth="yes"/>
      <point x="56" y="94"/>
      <point x="99" y="-10"/>
      <point x="259" y="-10" type="curve" smooth="yes"/>
      <point x="419" y="-10"/>
      <point x="462" y="94"/>
      <point x="462" y="243" type="curve" smooth="yes"/>
      <point x="462" y="430"/>
      <point x="407" y="510"/>
    </contour>
    <contour>
      <point x="93" y="243" type="curve" smooth="yes"/>
      <point x="93" y="413"/>
      <point x="131" y="478"/>
      <point x="259" y="478" type="curve" smooth="yes"/>
      <point x="387" y="478"/>
      <point x="425" y="413"/>
      <point x="425" y="243" type="curve" smooth="yes"/>
      <point x="425" y="113"/>
      <point x="392" y="22"/>
      <point x="259" y="22" type="curve" smooth="yes"/>
      <point x="126" y="22"/>
      <point x="93" y="113"/>
    </contour>
    <contour>
      <point x="161" y="732" type="curve"/>
      <point x="126" y="732" type="line"/>
      <point x="131" y="663"/>
      <point x="180" y="609"/>
      <point x="259" y="609" type="curve" smooth="yes"/>
      <point x="338" y="609"/>
      <point x="387" y="663"/>
      <point x="392" y="732" type="curve"/>
      <point x="357" y="732" type="line"/>
      <point x="352" y="682"/>
      <point x="319" y="641"/>
      <point x="259" y="641" type="curve" smooth="yes"/>
      <point x="199" y="641"/>
      <point x="166" y="682"/>
    </contour>
  </outline>
</glyph>
<glyph name="Ohungarumlaut" format="2">
  <advance width="662"/>
  <unicode hex="0150"/>
  <note>
Ohungarumlaut
</note>
  <anchor x="331" y="0" name="bottom"/>
  <anchor x="331" y="350" name="center"/>
  <anchor x="386" y="0" name="ogonek"/>
  <anchor x="367" y="912" name="top"/>
  <anchor x="643" y="700" name="topright"/>
  <outline>
    <contour>
      <point x="331" y="24" type="curve" smooth="yes"/>
      <point x="141" y="24"/>
      <point x="102" y="139"/>
      <point x="102" y="347" type="curve" smooth="yes"/>
      <point x="102" y="557"/>
      <point x="141" y="675"/>
      <point x="331" y="675" type="curve" smooth="yes"/>
      <point x="522" y="675"/>
      <point x="560" y="557"/>
      <point x="560" y="347" type="curve" smooth="yes"/>
      <point x="560" y="139"/>
      <point x="522" y="24"/>
    </contour>
    <contour>
      <point x="64" y="347" type="curve" smooth="yes"/>
      <point x="64" y="117"/>
      <point x="117" y="-10"/>
      <point x="331" y="-10" type="curve" smooth="yes"/>
      <point x="545" y="-10"/>
      <point x="598" y="117"/>
      <point x="598" y="347" type="curve" smooth="yes"/>
      <point x="598" y="577"/>
      <point x="545" y="709"/>
      <point x="331" y="709" type="curve" smooth="yes"/>
      <point x="117" y="709"/>
      <point x="64" y="577"/>
    </contour>
    <contour>
      <point x="341" y="912" type="line"/>
      <point x="202" y="814" type="line"/>
      <point x="218" y="789" type="line"/>
      <point x="361" y="881" type="line"/>
    </contour>
    <contour>
      <point x="511" y="912" type="line"/>
      <point x="372" y="814" type="line"/>
      <point x="388" y="789" type="line"/>
      <point x="531" y="881" type="line"/>
    </contour>
  </outline>
</glyph>
<glyph name="ohungarumlaut" format="2">
  <advance width="518"/>
  <unicode hex="0151"/>
  <note>
ohungarumlaut
</note>
  <anchor x="259" y="0" name="bottom"/>
  <anchor x="259" y="250" name="center"/>
  <anchor x="306" y="0" name="ogonek"/>
  <anchor x="259" y="732" name="top"/>
  <anchor x="502" y="500" name="topright"/>
  <outline>
    <contour>
      <point x="259" y="510" type="curve" smooth="yes"/>
      <point x="111" y="510"/>
      <point x="56" y="430"/>
      <point x="56" y="243" type="curve" smooth="yes"/>
      <point x="56" y="94"/>
      <point x="99" y="-10"/>
      <point x="259" y="-10" type="curve" smooth="yes"/>
      <point x="419" y="-10"/>
      <point x="462" y="94"/>
      <point x="462" y="243" type="curve" smooth="yes"/>
      <point x="462" y="430"/>
      <point x="407" y="510"/>
    </contour>
    <contour>
      <point x="93" y="243" type="curve" smooth="yes"/>
      <point x="93" y="413"/>
      <point x="131" y="478"/>
      <point x="259" y="478" type="curve" smooth="yes"/>
      <point x="387" y="478"/>
      <point x="425" y="413"/>
      <point x="425" y="243" type="curve" smooth="yes"/>
      <point x="425" y="113"/>
      <point x="392" y="22"/>
      <point x="259" y="22" type="curve" smooth="yes"/>
      <point x="126" y="22"/>
      <point x="93" y="113"/>
    </contour>
    <contour>
      <point x="243" y="732" type="line"/>
      <point x="104" y="634" type="line"/>
      <point x="120" y="609" type="line"/>
      <point x="263" y="701" type="line"/>
    </contour>
    <contour>
      <point x="393" y="732" type="line"/>
      <point x="254" y="634" type="line"/>
      <point x="270" y="609" type="line"/>
      <point x="413" y="701" type="line"/>
    </contour>
  </outline>
</glyph>
<glyph name="racute" format="2">
  <advance width="324"/>
  <unicode hex="0155"/>
  <note>
racute
</note>
  <anchor x="100" y="0" name="bottom"/>
  <anchor x="198" y="732" name="top"/>
  <outline>
    <contour>
      <point x="117" y="500" type="line"/>
      <point x="82" y="500" type="line"/>
      <point x="82" y="0" type="line"/>
      <point x="117" y="0" type="line"/>
      <point x="117" y="388" type="line"/>
      <point x="117" y="388"/>
      <point x="217" y="454"/>
      <point x="315" y="474" type="curve"/>
      <point x="315" y="510" type="line"/>
      <point x="205" y="489"/>
      <point x="117" y="422"/>
      <point x="117" y="422" type="curve"/>
    </contour>
    <contour>
      <point x="286" y="732" type="line"/>
      <point x="95" y="636" type="line"/>
      <point x="108" y="609" type="line"/>
      <point x="301" y="701" type="line"/>
    </contour>
  </outline>
</glyph>
<glyph name="rcaron" format="2">
  <advance width="324"/>
  <unicode hex="0159"/>
  <note>
rcaron
</note>
  <anchor x="100" y="0" name="bottom"/>
  <anchor x="198" y="732" name="top"/>
  <outline>
    <contour>
      <point x="117" y="500" type="line"/>
      <point x="82" y="500" type="line"/>
      <point x="82" y="0" type="line"/>
      <point x="117" y="0" type="line"/>
      <point x="117" y="388" type="line"/>
      <point x="117" y="388"/>
      <point x="217" y="454"/>
      <point x="315" y="474" type="curve"/>
      <point x="315" y="510" type="line"/>
      <point x="205" y="489"/>
      <point x="117" y="422"/>
      <point x="117" y="422" type="curve"/>
    </contour>
    <contour>
      <point x="105" y="728" type="line"/>
      <point x="62" y="728" type="line"/>
      <point x="181" y="613" type="line"/>
      <point x="215" y="613" type="line"/>
      <point x="334" y="728" type="line"/>
      <point x="291" y="728" type="line"/>
      <point x="198" y="643" type="line"/>
    </contour>
  </outline>
</glyph>
<glyph name="Scedilla" format="2">
  <advance width="540"/>
  <unicode hex="015E"/>
  <note>
Scedilla
</note>
  <anchor x="289" y="-201" name="bottom"/>
  <anchor x="278" y="700" name="top"/>
  <outline>
    <contour>
      <point x="465" y="659" type="curve"/>
      <point x="469" y="694" type="line"/>
      <point x="469" y="694"/>
      <point x="351" y="710"/>
      <point x="272" y="710" type="curve" smooth="yes"/>
      <point x="142" y="710"/>
      <point x="57" y="668"/>
      <point x="57" y="530" type="curve" smooth="yes"/>
      <point x="57" y="416"/>
      <point x="113" y="375"/>
      <point x="211" y="355" type="curve" smooth="yes"/>
      <point x="332" y="330" type="line" smooth="yes"/>
      <point x="424" y="311"/>
      <point x="450" y="271"/>
      <point x="450" y="195" type="curve" smooth="yes"/>
      <point x="450" y="73"/>
      <point x="388" y="24"/>
      <point x="274" y="24" type="curve" smooth="yes"/>
      <point x="203" y="24"/>
      <point x="62" y="44"/>
      <point x="62" y="44" type="curve"/>
      <point x="58" y="9" type="line"/>
      <point x="58" y="9"/>
      <point x="173" y="-7"/>
      <point x="251" y="-10" type="curve"/>
      <point x="241" y="-85" type="line"/>
      <point x="292" y="-85" type="line" smooth="yes"/>
      <point x="317" y="-85"/>
      <point x="336" y="-96"/>
      <point x="336" y="-127" type="curve" smooth="yes"/>
      <point x="336" y="-162"/>
      <point x="317" y="-173"/>
      <point x="288" y="-173" type="curve" smooth="yes"/>
      <point x="254" y="-173"/>
      <point x="210" y="-169"/>
      <point x="210" y="-169" type="curve"/>
      <point x="208" y="-197" type="line"/>
      <point x="208" y="-197"/>
      <point x="245" y="-201"/>
      <point x="289" y="-201" type="curve" smooth="yes"/>
      <point x="337" y="-201"/>
      <point x="371" y="-180"/>
      <point x="371" y="-127" type="curve" smooth="yes"/>
      <point x="371" y="-71"/>
      <point x="338" y="-57"/>
      <point x="271" y="-57" type="curve"/>
      <point x="277" y="-10" type="line"/>
      <point x="413" y="-9"/>
      <point x="488" y="51"/>
      <point x="488" y="195" type="curve" smooth="yes"/>
      <point x="488" y="301"/>
      <point x="449" y="346"/>
      <point x="338" y="368" type="curve" smooth="yes"/>
      <point x="222" y="391" type="line" smooth="yes"/>
      <point x="137" y="408"/>
      <point x="95" y="439"/>
      <point x="95" y="532" type="curve" smooth="yes"/>
      <point x="95" y="640"/>
      <point x="150" y="676"/>
      <point x="263" y="676" type="curve" smooth="yes"/>
      <point x="341" y="676"/>
      <point x="465" y="659"/>
    </contour>
  </outline>
</glyph>
<glyph name="scedilla" format="2">
  <advance width="455"/>
  <unicode hex="015F"/>
  <note>
scedilla
</note>
  <anchor x="240" y="-201" name="bottom"/>
  <anchor x="228" y="500" name="top"/>
  <outline>
    <contour>
      <point x="387" y="462" type="curve"/>
      <point x="389" y="494" type="line"/>
      <point x="389" y="494"/>
      <point x="297" y="509"/>
      <point x="220" y="509" type="curve" smooth="yes"/>
      <point x="139" y="509"/>
      <point x="49" y="481"/>
      <point x="49" y="375" type="curve" smooth="yes"/>
      <point x="49" y="301"/>
      <point x="81" y="271"/>
      <point x="163" y="255" type="curve" smooth="yes"/>
      <point x="279" y="232" type="line" smooth="yes"/>
      <point x="352" y="218"/>
      <point x="372" y="196"/>
      <point x="372" y="141" type="curve" smooth="yes"/>
      <point x="372" y="45"/>
      <point x="311" y="23"/>
      <point x="217" y="23" type="curve" smooth="yes"/>
      <point x="166" y="23"/>
      <point x="58" y="40"/>
      <point x="58" y="40" type="curve"/>
      <point x="54" y="8" type="line"/>
      <point x="54" y="8"/>
      <point x="143" y="-6"/>
      <point x="202" y="-9" type="curve"/>
      <point x="192" y="-85" type="line"/>
      <point x="243" y="-85" type="line" smooth="yes"/>
      <point x="268" y="-85"/>
      <point x="287" y="-96"/>
      <point x="287" y="-127" type="curve" smooth="yes"/>
      <point x="287" y="-162"/>
      <point x="268" y="-173"/>
      <point x="239" y="-173" type="curve" smooth="yes"/>
      <point x="205" y="-173"/>
      <point x="161" y="-169"/>
      <point x="161" y="-169" type="curve"/>
      <point x="159" y="-197" type="line"/>
      <point x="159" y="-197"/>
      <point x="196" y="-201"/>
      <point x="240" y="-201" type="curve" smooth="yes"/>
      <point x="288" y="-201"/>
      <point x="322" y="-180"/>
      <point x="322" y="-127" type="curve" smooth="yes"/>
      <point x="322" y="-71"/>
      <point x="289" y="-57"/>
      <point x="222" y="-57" type="curve"/>
      <point x="229" y="-9" type="line"/>
      <point x="341" y="-7"/>
      <point x="409" y="30"/>
      <point x="409" y="144" type="curve" smooth="yes"/>
      <point x="409" y="218"/>
      <point x="378" y="249"/>
      <point x="289" y="267" type="curve" smooth="yes"/>
      <point x="173" y="290" type="line" smooth="yes"/>
      <point x="101" y="304"/>
      <point x="85" y="329"/>
      <point x="85" y="377" type="curve" smooth="yes"/>
      <point x="85" y="458"/>
      <point x="156" y="477"/>
      <point x="220" y="477" type="curve" smooth="yes"/>
      <point x="288" y="477"/>
      <point x="387" y="462"/>
    </contour>
  </outline>
</glyph>
<glyph name="uni0162" format="2">
  <advance width="522"/>
  <unicode hex="0162"/>
  <note>
uni0162
</note>
  <anchor x="284" y="-201" name="bottom"/>
  <anchor x="260" y="344" name="center"/>
  <anchor x="260" y="700" name="top"/>
  <outline>
    <contour>
      <point x="509" y="700" type="line"/>
      <point x="13" y="700" type="line"/>
      <point x="13" y="666" type="line"/>
      <point x="243" y="666" type="line"/>
      <point x="243" y="0" type="line"/>
      <point x="247" y="0" type="line"/>
      <point x="236" y="-85" type="line"/>
      <point x="287" y="-85" type="line" smooth="yes"/>
      <point x="312" y="-85"/>
      <point x="331" y="-96"/>
      <point x="331" y="-127" type="curve" smooth="yes"/>
      <point x="331" y="-162"/>
      <point x="312" y="-173"/>
      <point x="283" y="-173" type="curve" smooth="yes"/>
      <point x="249" y="-173"/>
      <point x="205" y="-169"/>
      <point x="205" y="-169" type="curve"/>
      <point x="203" y="-197" type="line"/>
      <point x="203" y="-197"/>
      <point x="240" y="-201"/>
      <point x="284" y="-201" type="curve" smooth="yes"/>
      <point x="332" y="-201"/>
      <point x="366" y="-180"/>
      <point x="366" y="-127" type="curve" smooth="yes"/>
      <point x="366" y="-71"/>
      <point x="333" y="-57"/>
      <point x="266" y="-57" type="curve"/>
      <point x="274" y="0" type="line"/>
      <point x="279" y="0" type="line"/>
      <point x="279" y="666" type="line"/>
      <point x="509" y="666" type="line"/>
    </contour>
  </outline>
</glyph>
<glyph name="uni0163" format="2">
  <advance width="345"/>
  <unicode hex="0163"/>
  <note>
uni0163
</note>
  <anchor x="240" y="-201" name="bottom"/>
  <anchor x="120" y="272" name="center"/>
  <anchor x="121" y="663" name="top"/>
  <anchor x="216" y="730" name="topright"/>
  <outline>
    <contour>
      <point x="138" y="178" type="curve" smooth="yes"/>
      <point x="138" y="468" type="line"/>
      <point x="320" y="468" type="line"/>
      <point x="320" y="500" type="line"/>
      <point x="138" y="500" type="line"/>
      <point x="138" y="663" type="line"/>
      <point x="103" y="663" type="line"/>
      <point x="103" y="500" type="line"/>
      <point x="24" y="500" type="line"/>
      <point x="24" y="468" type="line"/>
      <point x="103" y="468" type="line"/>
      <point x="103" y="168" type="line" smooth="yes"/>
      <point x="103" y="40"/>
      <point x="131" y="-1"/>
      <point x="202" y="-9" type="curve"/>
      <point x="192" y="-85" type="line"/>
      <point x="243" y="-85" type="line" smooth="yes"/>
      <point x="268" y="-85"/>
      <point x="287" y="-96"/>
      <point x="287" y="-127" type="curve" smooth="yes"/>
      <point x="287" y="-162"/>
      <point x="268" y="-173"/>
      <point x="239" y="-173" type="curve" smooth="yes"/>
      <point x="205" y="-173"/>
      <point x="161" y="-169"/>
      <point x="161" y="-169" type="curve"/>
      <point x="159" y="-197" type="line"/>
      <point x="159" y="-197"/>
      <point x="196" y="-201"/>
      <point x="240" y="-201" type="curve" smooth="yes"/>
      <point x="288" y="-201"/>
      <point x="322" y="-180"/>
      <point x="322" y="-127" type="curve" smooth="yes"/>
      <point x="322" y="-71"/>
      <point x="289" y="-57"/>
      <point x="222" y="-57" type="curve"/>
      <point x="228" y="-10" type="line"/>
      <point x="230" y="-10" type="line" smooth="yes"/>
      <point x="265" y="-10"/>
      <point x="331" y="-2"/>
      <point x="331" y="-2" type="curve"/>
      <point x="328" y="30" type="line"/>
      <point x="328" y="30"/>
      <point x="258" y="22"/>
      <point x="230" y="22" type="curve" smooth="yes"/>
      <point x="149" y="22"/>
      <point x="138" y="59"/>
    </contour>
  </outline>
</glyph>
<glyph name="Tcaron" format="2">
  <advance width="522"/>
  <unicode hex="0164"/>
  <note>
Tcaron
</note>
  <anchor x="260" y="0" name="bottom"/>
  <anchor x="260" y="344" name="center"/>
  <anchor x="260" y="912" name="top"/>
  <outline>
    <contour>
      <point x="509" y="700" type="line"/>
      <point x="13" y="700" type="line"/>
      <point x="13" y="666" type="line"/>
      <point x="243" y="666" type="line"/>
      <point x="243" y="0" type="line"/>
      <point x="279" y="0" type="line"/>
      <point x="279" y="666" type="line"/>
      <point x="509" y="666" type="line"/>
    </contour>
    <contour>
      <point x="167" y="908" type="line"/>
      <point x="124" y="908" type="line"/>
      <point x="243" y="793" type="line"/>
      <point x="277" y="793" type="line"/>
      <point x="396" y="908" type="line"/>
      <point x="353" y="908" type="line"/>
      <point x="260" y="823" type="line"/>
    </contour>
  </outline>
</glyph>
<glyph name="tcaron" format="2">
  <advance width="345"/>
  <unicode hex="0165"/>
  <note>
tcaron
</note>
  <anchor x="216" y="0" name="bottom"/>
  <anchor x="120" y="272" name="center"/>
  <anchor x="121" y="663" name="top"/>
  <anchor x="216" y="730" name="topright"/>
  <outline>
    <contour>
      <point x="138" y="178" type="curve" smooth="yes"/>
      <point x="138" y="468" type="line"/>
      <point x="320" y="468" type="line"/>
      <point x="320" y="500" type="line"/>
      <point x="138" y="500" type="line"/>
      <point x="138" y="663" type="line"/>
      <point x="103" y="663" type="line"/>
      <point x="103" y="500" type="line"/>
      <point x="24" y="500" type="line"/>
      <point x="24" y="468" type="line"/>
      <point x="103" y="468" type="line"/>
      <point x="103" y="168" type="line" smooth="yes"/>
      <point x="103" y="24"/>
      <point x="139" y="-10"/>
      <point x="230" y="-10" type="curve" smooth="yes"/>
      <point x="265" y="-10"/>
      <point x="331" y="-2"/>
      <point x="331" y="-2" type="curve"/>
      <point x="328" y="30" type="line"/>
      <point x="328" y="30"/>
      <point x="258" y="22"/>
      <point x="230" y="22" type="curve" smooth="yes"/>
      <point x="149" y="22"/>
      <point x="138" y="59"/>
    </contour>
    <contour>
      <point x="229" y="601" type="curve"/>
      <point x="243" y="594" type="line"/>
      <point x="243" y="594"/>
      <point x="286" y="634"/>
      <point x="286" y="669" type="curve" smooth="yes"/>
      <point x="286" y="730" type="line"/>
      <point x="252" y="730" type="line"/>
      <point x="252" y="730"/>
      <point x="253" y="690"/>
      <point x="253" y="668" type="curve" smooth="yes"/>
      <point x="253" y="652"/>
      <point x="229" y="601"/>
    </contour>
  </outline>
</glyph>
<glyph name="Tbar" format="2">
  <advance width="536"/>
  <unicode hex="0166"/>
  <note>
Tbar
</note>
  <anchor x="267" y="0" name="bottom"/>
  <anchor x="267" y="344" name="center"/>
  <anchor x="267" y="700" name="top"/>
  <outline>
    <contour>
      <point x="516" y="700" type="line"/>
      <point x="20" y="700" type="line"/>
      <point x="20" y="666" type="line"/>
      <point x="250" y="666" type="line"/>
      <point x="250" y="361" type="line"/>
      <point x="120" y="361" type="line"/>
      <point x="120" y="327" type="line"/>
      <point x="250" y="327" type="line"/>
      <point x="250" y="0" type="line"/>
      <point x="286" y="0" type="line"/>
      <point x="286" y="327" type="line"/>
      <point x="416" y="327" type="line"/>
      <point x="416" y="361" type="line"/>
      <point x="286" y="361" type="line"/>
      <point x="286" y="666" type="line"/>
      <point x="516" y="666" type="line"/>
    </contour>
  </outline>
</glyph>
<glyph name="tbar" format="2">
  <advance width="360"/>
  <unicode hex="0167"/>
  <note>
tbar
</note>
  <anchor x="226" y="0" name="bottom"/>
  <anchor x="130" y="272" name="center"/>
  <anchor x="131" y="663" name="top"/>
  <anchor x="226" y="730" name="topright"/>
  <outline>
    <contour>
      <point x="148" y="178" type="curve" smooth="yes"/>
      <point x="148" y="256" type="line"/>
      <point x="330" y="256" type="line"/>
      <point x="330" y="288" type="line"/>
      <point x="148" y="288" type="line"/>
      <point x="148" y="468" type="line"/>
      <point x="330" y="468" type="line"/>
      <point x="330" y="500" type="line"/>
      <point x="148" y="500" type="line"/>
      <point x="148" y="663" type="line"/>
      <point x="113" y="663" type="line"/>
      <point x="113" y="500" type="line"/>
      <point x="34" y="500" type="line"/>
      <point x="34" y="468" type="line"/>
      <point x="113" y="468" type="line"/>
      <point x="113" y="288" type="line"/>
      <point x="34" y="288" type="line"/>
      <point x="34" y="256" type="line"/>
      <point x="113" y="256" type="line"/>
      <point x="113" y="168" type="line" smooth="yes"/>
      <point x="113" y="24"/>
      <point x="149" y="-10"/>
      <point x="240" y="-10" type="curve" smooth="yes"/>
      <point x="275" y="-10"/>
      <point x="341" y="-2"/>
      <point x="341" y="-2" type="curve"/>
      <point x="338" y="30" type="line"/>
      <point x="338" y="30"/>
      <point x="268" y="22"/>
      <point x="240" y="22" type="curve" smooth="yes"/>
      <point x="159" y="22"/>
      <point x="148" y="59"/>
    </contour>
  </outline>
</glyph>
<glyph name="Utilde" format="2">
  <advance width="640"/>
  <unicode hex="0168"/>
  <note>
Utilde
</note>
  <anchor x="320" y="0" name="bottom"/>
  <anchor x="387" y="0" name="ogonek"/>
  <anchor x="320" y="895" name="top"/>
  <anchor x="621" y="700" name="topright"/>
  <outline>
    <contour>
      <point x="125" y="196" type="curve" smooth="yes"/>
      <point x="125" y="700" type="line"/>
      <point x="89" y="700" type="line"/>
      <point x="89" y="196" type="line" smooth="yes"/>
      <point x="89" y="45"/>
      <point x="174" y="-10"/>
      <point x="319" y="-10" type="curve" smooth="yes"/>
      <point x="464" y="-10"/>
      <point x="551" y="46"/>
      <point x="551" y="196" type="curve" smooth="yes"/>
      <point x="551" y="700" type="line"/>
      <point x="515" y="700" type="line"/>
      <point x="515" y="196" type="line" smooth="yes"/>
      <point x="515" y="69"/>
      <point x="440" y="24"/>
      <point x="319" y="24" type="curve" smooth="yes"/>
      <point x="197" y="24"/>
      <point x="125" y="70"/>
    </contour>
    <contour>
      <point x="162" y="841" type="curve"/>
      <point x="179" y="819" type="line"/>
      <point x="179" y="819"/>
      <point x="228" y="864"/>
      <point x="249" y="864" type="curve" smooth="yes"/>
      <point x="281" y="864"/>
      <point x="356" y="810"/>
      <point x="396" y="810" type="curve" smooth="yes"/>
      <point x="427" y="810"/>
      <point x="477" y="861"/>
      <point x="477" y="861" type="curve"/>
      <point x="460" y="883" type="line"/>
      <point x="460" y="883"/>
      <point x="416" y="842"/>
      <point x="398" y="842" type="curve" smooth="yes"/>
      <point x="366" y="842"/>
      <point x="291" y="895"/>
      <point x="251" y="895" type="curve" smooth="yes"/>
      <point x="218" y="895"/>
      <point x="162" y="841"/>
    </contour>
  </outline>
</glyph>
<glyph name="utilde" format="2">
  <advance width="522"/>
  <unicode hex="0169"/>
  <note>
utilde
</note>
  <anchor x="261" y="0" name="bottom"/>
  <anchor x="440" y="0" name="ogonek"/>
  <anchor x="261" y="715" name="top"/>
  <anchor x="500" y="500" name="topright"/>
  <outline>
    <contour>
      <point x="440" y="0" type="line"/>
      <point x="440" y="500" type="line"/>
      <point x="405" y="500" type="line"/>
      <point x="405" y="73" type="line"/>
      <point x="405" y="73"/>
      <point x="339" y="23"/>
      <point x="237" y="23" type="curve" smooth="yes"/>
      <point x="139" y="23"/>
      <point x="112" y="72"/>
      <point x="112" y="242" type="curve" smooth="yes"/>
      <point x="112" y="500" type="line"/>
      <point x="77" y="500" type="line"/>
      <point x="77" y="240" type="line" smooth="yes"/>
      <point x="77" y="46"/>
      <point x="121" y="-9"/>
      <point x="236" y="-9" type="curve" smooth="yes"/>
      <point x="343" y="-9"/>
      <point x="405" y="40"/>
      <point x="405" y="40" type="curve"/>
      <point x="405" y="0" type="line"/>
    </contour>
    <contour>
      <point x="103" y="661" type="curve"/>
      <point x="120" y="639" type="line"/>
      <point x="120" y="639"/>
      <point x="169" y="684"/>
      <point x="190" y="684" type="curve" smooth="yes"/>
      <point x="222" y="684"/>
      <point x="297" y="630"/>
      <point x="337" y="630" type="curve" smooth="yes"/>
      <point x="368" y="630"/>
      <point x="418" y="681"/>
      <point x="418" y="681" type="curve"/>
      <point x="401" y="703" type="line"/>
      <point x="401" y="703"/>
      <point x="357" y="662"/>
      <point x="339" y="662" type="curve" smooth="yes"/>
      <point x="307" y="662"/>
      <point x="232" y="715"/>
      <point x="192" y="715" type="curve" smooth="yes"/>
      <point x="159" y="715"/>
      <point x="103" y="661"/>
    </contour>
  </outline>
</glyph>
<glyph name="Uring" format="2">
  <advance width="640"/>
  <unicode hex="016E"/>
  <note>
Uring
</note>
  <anchor x="320" y="0" name="bottom"/>
  <anchor x="387" y="0" name="ogonek"/>
  <anchor x="320" y="945" name="top"/>
  <anchor x="621" y="700" name="topright"/>
  <outline>
    <contour>
      <point x="125" y="196" type="curve" smooth="yes"/>
      <point x="125" y="700" type="line"/>
      <point x="89" y="700" type="line"/>
      <point x="89" y="196" type="line" smooth="yes"/>
      <point x="89" y="45"/>
      <point x="174" y="-10"/>
      <point x="319" y="-10" type="curve" smooth="yes"/>
      <point x="464" y="-10"/>
      <point x="551" y="46"/>
      <point x="551" y="196" type="curve" smooth="yes"/>
      <point x="551" y="700" type="line"/>
      <point x="515" y="700" type="line"/>
      <point x="515" y="196" type="line" smooth="yes"/>
      <point x="515" y="69"/>
      <point x="440" y="24"/>
      <point x="319" y="24" type="curve" smooth="yes"/>
      <point x="197" y="24"/>
      <point x="125" y="70"/>
    </contour>
    <contour>
      <point x="225" y="850" type="curve" smooth="yes"/>
      <point x="225" y="797"/>
      <point x="267" y="755"/>
      <point x="321" y="755" type="curve" smooth="yes"/>
      <point x="375" y="755"/>
      <point x="416" y="797"/>
      <point x="416" y="850" type="curve" smooth="yes"/>
      <point x="416" y="904"/>
      <point x="375" y="945"/>
      <point x="321" y="945" type="curve" smooth="yes"/>
      <point x="267" y="945"/>
      <point x="225" y="904"/>
    </contour>
    <contour>
      <point x="259" y="850" type="curve" smooth="yes"/>
      <point x="259" y="887"/>
      <point x="286" y="913"/>
      <point x="321" y="913" type="curve" smooth="yes"/>
      <point x="356" y="913"/>
      <point x="383" y="887"/>
      <point x="383" y="850" type="curve" smooth="yes"/>
      <point x="383" y="814"/>
      <point x="356" y="786"/>
      <point x="321" y="786" type="curve" smooth="yes"/>
      <point x="286" y="786"/>
      <point x="259" y="814"/>
    </contour>
  </outline>
</glyph>
<glyph name="uring" format="2">
  <advance width="522"/>
  <unicode hex="016F"/>
  <note>
uring
</note>
  <anchor x="261" y="0" name="bottom"/>
  <anchor x="440" y="0" name="ogonek"/>
  <anchor x="261" y="745" name="top"/>
  <anchor x="500" y="500" name="topright"/>
  <outline>
    <contour>
      <point x="440" y="0" type="line"/>
      <point x="440" y="500" type="line"/>
      <point x="405" y="500" type="line"/>
      <point x="405" y="73" type="line"/>
      <point x="405" y="73"/>
      <point x="339" y="23"/>
      <point x="237" y="23" type="curve" smooth="yes"/>
      <point x="139" y="23"/>
      <point x="112" y="72"/>
      <point x="112" y="242" type="curve" smooth="yes"/>
      <point x="112" y="500" type="line"/>
      <point x="77" y="500" type="line"/>
      <point x="77" y="240" type="line" smooth="yes"/>
      <point x="77" y="46"/>
      <point x="121" y="-9"/>
      <point x="236" y="-9" type="curve" smooth="yes"/>
      <point x="343" y="-9"/>
      <point x="405" y="40"/>
      <point x="405" y="40" type="curve"/>
      <point x="405" y="0" type="line"/>
    </contour>
    <contour>
      <point x="166" y="650" type="curve" smooth="yes"/>
      <point x="166" y="597"/>
      <point x="208" y="555"/>
      <point x="262" y="555" type="curve" smooth="yes"/>
      <point x="316" y="555"/>
      <point x="357" y="597"/>
      <point x="357" y="650" type="curve" smooth="yes"/>
      <point x="357" y="704"/>
      <point x="316" y="745"/>
      <point x="262" y="745" type="curve" smooth="yes"/>
      <point x="208" y="745"/>
      <point x="166" y="704"/>
    </contour>
    <contour>
      <point x="200" y="650" type="curve" smooth="yes"/>
      <point x="200" y="687"/>
      <point x="227" y="713"/>
      <point x="262" y="713" type="curve" smooth="yes"/>
      <point x="297" y="713"/>
      <point x="324" y="687"/>
      <point x="324" y="650" type="curve" smooth="yes"/>
      <point x="324" y="614"/>
      <point x="297" y="586"/>
      <point x="262" y="586" type="curve" smooth="yes"/>
      <point x="227" y="586"/>
      <point x="200" y="614"/>
    </contour>
  </outline>
</glyph>
<glyph name="Uhungarumlaut" format="2">
  <advance width="640"/>
  <unicode hex="0170"/>
  <note>
Uhungarumlaut
</note>
  <anchor x="320" y="0" name="bottom"/>
  <anchor x="387" y="0" name="ogonek"/>
  <anchor x="356" y="912" name="top"/>
  <anchor x="621" y="700" name="topright"/>
  <outline>
    <contour>
      <point x="125" y="196" type="curve" smooth="yes"/>
      <point x="125" y="700" type="line"/>
      <point x="89" y="700" type="line"/>
      <point x="89" y="196" type="line" smooth="yes"/>
      <point x="89" y="45"/>
      <point x="174" y="-10"/>
      <point x="319" y="-10" type="curve" smooth="yes"/>
      <point x="464" y="-10"/>
      <point x="551" y="46"/>
      <point x="551" y="196" type="curve" smooth="yes"/>
      <point x="551" y="700" type="line"/>
      <point x="515" y="700" type="line"/>
      <point x="515" y="196" type="line" smooth="yes"/>
      <point x="515" y="69"/>
      <point x="440" y="24"/>
      <point x="319" y="24" type="curve" smooth="yes"/>
      <point x="197" y="24"/>
      <point x="125" y="70"/>
    </contour>
    <contour>
      <point x="330" y="912" type="line"/>
      <point x="191" y="814" type="line"/>
      <point x="207" y="789" type="line"/>
      <point x="350" y="881" type="line"/>
    </contour>
    <contour>
      <point x="500" y="912" type="line"/>
      <point x="361" y="814" type="line"/>
      <point x="377" y="789" type="line"/>
      <point x="520" y="881" type="line"/>
    </contour>
  </outline>
</glyph>
<glyph name="Uogonek" format="2">
  <advance width="640"/>
  <unicode hex="0172"/>
  <note>
Uogonek
</note>
  <anchor x="320" y="0" name="bottom"/>
  <anchor x="387" y="0" name="ogonek"/>
  <anchor x="320" y="700" name="top"/>
  <anchor x="621" y="700" name="topright"/>
  <outline>
    <contour>
      <point x="125" y="196" type="curve" smooth="yes"/>
      <point x="125" y="700" type="line"/>
      <point x="89" y="700" type="line"/>
      <point x="89" y="196" type="line" smooth="yes"/>
      <point x="89" y="45"/>
      <point x="174" y="-10"/>
      <point x="319" y="-10" type="curve" smooth="yes"/>
      <point x="341" y="-10" type="line"/>
      <point x="315" y="-35"/>
      <point x="269" y="-86"/>
      <point x="269" y="-118" type="curve" smooth="yes"/>
      <point x="269" y="-169"/>
      <point x="303" y="-200"/>
      <point x="349" y="-200" type="curve" smooth="yes"/>
      <point x="377" y="-200"/>
      <point x="413" y="-192"/>
      <point x="413" y="-192" type="curve"/>
      <point x="409" y="-159" type="line"/>
      <point x="409" y="-159"/>
      <point x="372" y="-166"/>
      <point x="353" y="-166" type="curve" smooth="yes"/>
      <point x="325" y="-166"/>
      <point x="306" y="-143"/>
      <point x="306" y="-116" type="curve" smooth="yes"/>
      <point x="306" y="-89"/>
      <point x="363" y="-26"/>
      <point x="381" y="-6" type="curve"/>
      <point x="489" y="9"/>
      <point x="551" y="69"/>
      <point x="551" y="196" type="curve" smooth="yes"/>
      <point x="551" y="700" type="line"/>
      <point x="515" y="700" type="line"/>
      <point x="515" y="196" type="line" smooth="yes"/>
      <point x="515" y="69"/>
      <point x="440" y="24"/>
      <point x="319" y="24" type="curve" smooth="yes"/>
      <point x="197" y="24"/>
      <point x="125" y="70"/>
    </contour>
  </outline>
</glyph>
<glyph name="uogonek" format="2">
  <advance width="522"/>
  <unicode hex="0173"/>
  <note>
uogonek
</note>
  <anchor x="261" y="0" name="bottom"/>
  <anchor x="440" y="0" name="ogonek"/>
  <anchor x="261" y="500" name="top"/>
  <anchor x="500" y="500" name="topright"/>
  <outline>
    <contour>
      <point x="440" y="0" type="curve"/>
      <point x="440" y="500" type="line"/>
      <point x="405" y="500" type="line"/>
      <point x="405" y="73" type="line"/>
      <point x="405" y="73"/>
      <point x="339" y="23"/>
      <point x="237" y="23" type="curve" smooth="yes"/>
      <point x="139" y="23"/>
      <point x="112" y="72"/>
      <point x="112" y="242" type="curve" smooth="yes"/>
      <point x="112" y="500" type="line"/>
      <point x="77" y="500" type="line"/>
      <point x="77" y="240" type="line" smooth="yes"/>
      <point x="77" y="46"/>
      <point x="121" y="-9"/>
      <point x="236" y="-9" type="curve" smooth="yes"/>
      <point x="343" y="-9"/>
      <point x="405" y="40"/>
      <point x="405" y="40" type="curve"/>
      <point x="405" y="1" type="line"/>
      <point x="386" y="-16"/>
      <point x="322" y="-80"/>
      <point x="322" y="-118" type="curve" smooth="yes"/>
      <point x="322" y="-169"/>
      <point x="356" y="-200"/>
      <point x="402" y="-200" type="curve" smooth="yes"/>
      <point x="430" y="-200"/>
      <point x="466" y="-192"/>
      <point x="466" y="-192" type="curve"/>
      <point x="462" y="-159" type="line"/>
      <point x="462" y="-159"/>
      <point x="425" y="-166"/>
      <point x="406" y="-166" type="curve" smooth="yes"/>
      <point x="378" y="-166"/>
      <point x="359" y="-143"/>
      <point x="359" y="-116" type="curve" smooth="yes"/>
      <point x="359" y="-84"/>
      <point x="440" y="0"/>
    </contour>
  </outline>
</glyph>
<glyph name="Wcircumflex" format="2">
  <advance width="862"/>
  <unicode hex="0174"/>
  <note>
Wcircumflex
</note>
  <anchor x="431" y="0" name="bottom"/>
  <anchor x="431" y="908" name="top"/>
  <outline>
    <contour>
      <point x="217" y="34" type="line"/>
      <point x="76" y="700" type="line"/>
      <point x="41" y="700" type="line"/>
      <point x="189" y="0" type="line"/>
      <point x="272" y="0" type="line"/>
      <point x="431" y="641" type="line"/>
      <point x="590" y="0" type="line"/>
      <point x="673" y="0" type="line"/>
      <point x="820" y="700" type="line"/>
      <point x="785" y="700" type="line"/>
      <point x="645" y="34" type="line"/>
      <point x="615" y="34" type="line"/>
      <point x="452" y="690" type="line"/>
      <point x="410" y="690" type="line"/>
      <point x="247" y="34" type="line"/>
    </contour>
    <contour>
      <point x="414" y="908" type="line"/>
      <point x="295" y="793" type="line"/>
      <point x="338" y="793" type="line"/>
      <point x="431" y="878" type="line"/>
      <point x="524" y="793" type="line"/>
      <point x="567" y="793" type="line"/>
      <point x="448" y="908" type="line"/>
    </contour>
  </outline>
</glyph>
<glyph name="wcircumflex" format="2">
  <advance width="778"/>
  <unicode hex="0175"/>
  <note>
wcircumflex
</note>
  <anchor x="389" y="0" name="bottom"/>
  <anchor x="389" y="732" name="top"/>
  <outline>
    <contour>
      <point x="199" y="32" type="line"/>
      <point x="70" y="500" type="line"/>
      <point x="35" y="500" type="line"/>
      <point x="172" y="0" type="line"/>
      <point x="243" y="0" type="line"/>
      <point x="389" y="448" type="line"/>
      <point x="535" y="0" type="line"/>
      <point x="606" y="0" type="line"/>
      <point x="743" y="500" type="line"/>
      <point x="708" y="500" type="line"/>
      <point x="579" y="32" type="line"/>
      <point x="559" y="32" type="line"/>
      <point x="409" y="490" type="line"/>
      <point x="369" y="490" type="line"/>
      <point x="219" y="32" type="line"/>
    </contour>
    <contour>
      <point x="372" y="728" type="line"/>
      <point x="253" y="613" type="line"/>
      <point x="296" y="613" type="line"/>
      <point x="389" y="698" type="line"/>
      <point x="482" y="613" type="line"/>
      <point x="525" y="613" type="line"/>
      <point x="406" y="728" type="line"/>
    </contour>
  </outline>
</glyph>
<glyph name="Ycircumflex" format="2">
  <advance width="542"/>
  <unicode hex="0176"/>
  <note>
Ycircumflex
</note>
  <anchor x="271" y="0" name="bottom"/>
  <anchor x="271" y="908" name="top"/>
  <outline>
    <contour>
      <point x="253" y="301" type="line"/>
      <point x="253" y="0" type="line"/>
      <point x="289" y="0" type="line"/>
      <point x="289" y="301" type="line"/>
      <point x="517" y="700" type="line"/>
      <point x="477" y="700" type="line"/>
      <point x="271" y="337" type="line"/>
      <point x="65" y="700" type="line"/>
      <point x="25" y="700" type="line"/>
    </contour>
    <contour>
      <point x="254" y="908" type="line"/>
      <point x="135" y="793" type="line"/>
      <point x="178" y="793" type="line"/>
      <point x="271" y="878" type="line"/>
      <point x="364" y="793" type="line"/>
      <point x="407" y="793" type="line"/>
      <point x="288" y="908" type="line"/>
    </contour>
  </outline>
</glyph>
<glyph name="ycircumflex" format="2">
  <advance width="474"/>
  <unicode hex="0177"/>
  <note>
ycircumflex
</note>
  <anchor x="237" y="0" name="bottom"/>
  <anchor x="237" y="732" name="top"/>
  <outline>
    <contour>
      <point x="224" y="32" type="line"/>
      <point x="66" y="500" type="line"/>
      <point x="30" y="500" type="line"/>
      <point x="199" y="0" type="line"/>
      <point x="235" y="0" type="line"/>
      <point x="161" y="-230" type="line"/>
      <point x="198" y="-230" type="line"/>
      <point x="443" y="500" type="line"/>
      <point x="407" y="500" type="line"/>
      <point x="244" y="32" type="line"/>
    </contour>
    <contour>
      <point x="220" y="728" type="line"/>
      <point x="101" y="613" type="line"/>
      <point x="144" y="613" type="line"/>
      <point x="237" y="698" type="line"/>
      <point x="330" y="613" type="line"/>
      <point x="373" y="613" type="line"/>
      <point x="254" y="728" type="line"/>
    </contour>
  </outline>
</glyph>
<glyph name="Ydieresis" format="2">
  <advance width="542"/>
  <unicode hex="0178"/>
  <note>
Ydieresis
</note>
  <anchor x="271" y="0" name="bottom"/>
  <anchor x="271" y="880" name="top"/>
  <outline>
    <contour>
      <point x="253" y="301" type="line"/>
      <point x="253" y="0" type="line"/>
      <point x="289" y="0" type="line"/>
      <point x="289" y="301" type="line"/>
      <point x="517" y="700" type="line"/>
      <point x="477" y="700" type="line"/>
      <point x="271" y="337" type="line"/>
      <point x="65" y="700" type="line"/>
      <point x="25" y="700" type="line"/>
    </contour>
    <contour>
      <point x="158" y="880" type="line"/>
      <point x="158" y="822" type="line"/>
      <point x="198" y="822" type="line"/>
      <point x="198" y="880" type="line"/>
    </contour>
    <contour>
      <point x="343" y="880" type="line"/>
      <point x="343" y="822" type="line"/>
      <point x="383" y="822" type="line"/>
      <point x="383" y="880" type="line"/>
    </contour>
  </outline>
</glyph>
<glyph name="Zacute" format="2">
  <advance width="536"/>
  <unicode hex="0179"/>
  <note>
Zacute
</note>
  <anchor x="278" y="0" name="bottom"/>
  <anchor x="217" y="350" name="center"/>
  <anchor x="260" y="912" name="top"/>
  <outline>
    <contour>
      <point x="491" y="700" type="line"/>
      <point x="46" y="700" type="line"/>
      <point x="46" y="666" type="line"/>
      <point x="454" y="666" type="line"/>
      <point x="454" y="641" type="line"/>
      <point x="44" y="67" type="line"/>
      <point x="44" y="-1" type="line"/>
      <point x="491" y="-1" type="line"/>
      <point x="491" y="33" type="line"/>
      <point x="81" y="33" type="line"/>
      <point x="81" y="58" type="line"/>
      <point x="491" y="632" type="line"/>
    </contour>
    <contour>
      <point x="348" y="912" type="line"/>
      <point x="157" y="816" type="line"/>
      <point x="170" y="789" type="line"/>
      <point x="363" y="881" type="line"/>
    </contour>
  </outline>
</glyph>
<glyph name="zacute" format="2">
  <advance width="456"/>
  <unicode hex="017A"/>
  <note>
zacute
</note>
  <anchor x="225" y="0" name="bottom"/>
  <anchor x="225" y="250" name="center"/>
  <anchor x="225" y="732" name="top"/>
  <outline>
    <contour>
      <point x="412" y="500" type="line"/>
      <point x="46" y="500" type="line"/>
      <point x="46" y="468" type="line"/>
      <point x="377" y="468" type="line"/>
      <point x="377" y="453" type="line"/>
      <point x="41" y="58" type="line"/>
      <point x="41" y="0" type="line"/>
      <point x="414" y="0" type="line"/>
      <point x="414" y="32" type="line"/>
      <point x="76" y="32" type="line"/>
      <point x="76" y="47" type="line"/>
      <point x="412" y="443" type="line"/>
    </contour>
    <contour>
      <point x="313" y="732" type="line"/>
      <point x="122" y="636" type="line"/>
      <point x="135" y="609" type="line"/>
      <point x="328" y="701" type="line"/>
    </contour>
  </outline>
</glyph>
<glyph name="Zcaron" format="2">
  <advance width="536"/>
  <unicode hex="017D"/>
  <note>
Zcaron
</note>
  <anchor x="278" y="0" name="bottom"/>
  <anchor x="217" y="350" name="center"/>
  <anchor x="260" y="912" name="top"/>
  <outline>
    <contour>
      <point x="491" y="700" type="line"/>
      <point x="46" y="700" type="line"/>
      <point x="46" y="666" type="line"/>
      <point x="454" y="666" type="line"/>
      <point x="454" y="641" type="line"/>
      <point x="44" y="67" type="line"/>
      <point x="44" y="-1" type="line"/>
      <point x="491" y="-1" type="line"/>
      <point x="491" y="33" type="line"/>
      <point x="81" y="33" type="line"/>
      <point x="81" y="58" type="line"/>
      <point x="491" y="632" type="line"/>
    </contour>
    <contour>
      <point x="167" y="908" type="line"/>
      <point x="124" y="908" type="line"/>
      <point x="243" y="793" type="line"/>
      <point x="277" y="793" type="line"/>
      <point x="396" y="908" type="line"/>
      <point x="353" y="908" type="line"/>
      <point x="260" y="823" type="line"/>
    </contour>
  </outline>
</glyph>
<glyph name="zcaron" format="2">
  <advance width="456"/>
  <unicode hex="017E"/>
  <note>
zcaron
</note>
  <anchor x="225" y="0" name="bottom"/>
  <anchor x="225" y="250" name="center"/>
  <anchor x="225" y="732" name="top"/>
  <outline>
    <contour>
      <point x="412" y="500" type="line"/>
      <point x="46" y="500" type="line"/>
      <point x="46" y="468" type="line"/>
      <point x="377" y="468" type="line"/>
      <point x="377" y="453" type="line"/>
      <point x="41" y="58" type="line"/>
      <point x="41" y="0" type="line"/>
      <point x="414" y="0" type="line"/>
      <point x="414" y="32" type="line"/>
      <point x="76" y="32" type="line"/>
      <point x="76" y="47" type="line"/>
      <point x="412" y="443" type="line"/>
    </contour>
    <contour>
      <point x="132" y="728" type="line"/>
      <point x="89" y="728" type="line"/>
      <point x="208" y="613" type="line"/>
      <point x="242" y="613" type="line"/>
      <point x="361" y="728" type="line"/>
      <point x="318" y="728" type="line"/>
      <point x="225" y="643" type="line"/>
    </contour>
  </outline>
</glyph>
<glyph name="uni0197" format="2">
  <advance width="264"/>
  <unicode hex="0197"/>
  <note>
uni0197
</note>
  <anchor x="132" y="0" name="bottom"/>
  <anchor x="132" y="353" name="center"/>
  <anchor x="150" y="0" name="ogonek"/>
  <anchor x="132" y="700" name="top"/>
  <outline>
    <contour>
      <point x="150" y="700" type="line"/>
      <point x="114" y="700" type="line"/>
      <point x="114" y="370" type="line"/>
      <point x="14" y="370" type="line"/>
      <point x="14" y="336" type="line"/>
      <point x="114" y="336" type="line"/>
      <point x="114" y="0" type="line"/>
      <point x="150" y="0" type="line"/>
      <point x="150" y="336" type="line"/>
      <point x="250" y="336" type="line"/>
      <point x="250" y="370" type="line"/>
      <point x="150" y="370" type="line"/>
    </contour>
  </outline>
</glyph>
<glyph name="uni019D" format="2">
  <advance width="669"/>
  <unicode hex="019D"/>
  <note>
uni019D
</note>
  <anchor x="335" y="0" name="bottom"/>
  <anchor x="356" y="700" name="top"/>
  <outline>
    <contour>
      <point x="130" y="-10" type="curve" smooth="yes"/>
      <point x="130" y="666" type="line"/>
      <point x="160" y="666" type="line"/>
      <point x="487" y="0" type="line"/>
      <point x="575" y="0" type="line"/>
      <point x="575" y="700" type="line"/>
      <point x="539" y="700" type="line"/>
      <point x="539" y="34" type="line"/>
      <point x="509" y="34" type="line"/>
      <point x="182" y="700" type="line"/>
      <point x="94" y="700" type="line"/>
      <point x="94" y="-12" type="line" smooth="yes"/>
      <point x="94" y="-122"/>
      <point x="84" y="-139"/>
      <point x="-43" y="-139" type="curve"/>
      <point x="-43" y="-173" type="line"/>
      <point x="99" y="-173"/>
      <point x="130" y="-156"/>
    </contour>
  </outline>
</glyph>
<glyph name="uni01CD" format="2">
  <advance width="590"/>
  <unicode hex="01CD"/>
  <note>
uni01CD
</note>
  <anchor x="295" y="0" name="bottom"/>
  <anchor x="563" y="0" name="ogonek"/>
  <anchor x="295" y="912" name="top"/>
  <outline>
    <contour>
      <point x="280" y="666" type="line"/>
      <point x="310" y="666" type="line"/>
      <point x="446" y="249" type="line"/>
      <point x="144" y="249" type="line"/>
    </contour>
    <contour>
      <point x="255" y="700" type="line"/>
      <point x="27" y="0" type="line"/>
      <point x="63" y="0" type="line"/>
      <point x="133" y="215" type="line"/>
      <point x="457" y="215" type="line"/>
      <point x="527" y="0" type="line"/>
      <point x="563" y="0" type="line"/>
      <point x="335" y="700" type="line"/>
    </contour>
    <contour>
      <point x="202" y="908" type="line"/>
      <point x="159" y="908" type="line"/>
      <point x="278" y="793" type="line"/>
      <point x="312" y="793" type="line"/>
      <point x="431" y="908" type="line"/>
      <point x="388" y="908" type="line"/>
      <point x="295" y="823" type="line"/>
    </contour>
  </outline>
</glyph>
<glyph name="uni01CF" format="2">
  <advance width="224"/>
  <unicode hex="01CF"/>
  <note>
uni01CF
</note>
  <anchor x="112" y="0" name="bottom"/>
  <anchor x="112" y="353" name="center"/>
  <anchor x="130" y="0" name="ogonek"/>
  <anchor x="112" y="912" name="top"/>
  <outline>
    <contour>
      <point x="130" y="700" type="line"/>
      <point x="94" y="700" type="line"/>
      <point x="94" y="0" type="line"/>
      <point x="130" y="0" type="line"/>
    </contour>
    <contour>
      <point x="19" y="908" type="line"/>
      <point x="-24" y="908" type="line"/>
      <point x="95" y="793" type="line"/>
      <point x="129" y="793" type="line"/>
      <point x="248" y="908" type="line"/>
      <point x="205" y="908" type="line"/>
      <point x="112" y="823" type="line"/>
    </contour>
  </outline>
</glyph>
<glyph name="uni01D0" format="2">
  <advance width="199"/>
  <unicode hex="01D0"/>
  <note>
uni01D0
</note>
  <anchor x="100" y="0" name="bottom"/>
  <anchor x="117" y="0" name="ogonek"/>
  <anchor x="100" y="732" name="top"/>
  <outline>
    <contour>
      <point x="117" y="500" type="line"/>
      <point x="82" y="500" type="line"/>
      <point x="82" y="0" type="line"/>
      <point x="117" y="0" type="line"/>
    </contour>
    <contour>
      <point x="7" y="728" type="line"/>
      <point x="-36" y="728" type="line"/>
      <point x="83" y="613" type="line"/>
      <point x="117" y="613" type="line"/>
      <point x="236" y="728" type="line"/>
      <point x="193" y="728" type="line"/>
      <point x="100" y="643" type="line"/>
    </contour>
  </outline>
</glyph>
<glyph name="uni01D1" format="2">
  <advance width="662"/>
  <unicode hex="01D1"/>
  <note>
uni01D1
</note>
  <anchor x="331" y="0" name="bottom"/>
  <anchor x="331" y="350" name="center"/>
  <anchor x="386" y="0" name="ogonek"/>
  <anchor x="331" y="912" name="top"/>
  <anchor x="643" y="700" name="topright"/>
  <outline>
    <contour>
      <point x="331" y="24" type="curve" smooth="yes"/>
      <point x="141" y="24"/>
      <point x="102" y="139"/>
      <point x="102" y="347" type="curve" smooth="yes"/>
      <point x="102" y="557"/>
      <point x="141" y="675"/>
      <point x="331" y="675" type="curve" smooth="yes"/>
      <point x="522" y="675"/>
      <point x="560" y="557"/>
      <point x="560" y="347" type="curve" smooth="yes"/>
      <point x="560" y="139"/>
      <point x="522" y="24"/>
    </contour>
    <contour>
      <point x="64" y="347" type="curve" smooth="yes"/>
      <point x="64" y="117"/>
      <point x="117" y="-10"/>
      <point x="331" y="-10" type="curve" smooth="yes"/>
      <point x="545" y="-10"/>
      <point x="598" y="117"/>
      <point x="598" y="347" type="curve" smooth="yes"/>
      <point x="598" y="577"/>
      <point x="545" y="709"/>
      <point x="331" y="709" type="curve" smooth="yes"/>
      <point x="117" y="709"/>
      <point x="64" y="577"/>
    </contour>
    <contour>
      <point x="238" y="908" type="line"/>
      <point x="195" y="908" type="line"/>
      <point x="314" y="793" type="line"/>
      <point x="348" y="793" type="line"/>
      <point x="467" y="908" type="line"/>
      <point x="424" y="908" type="line"/>
      <point x="331" y="823" type="line"/>
    </contour>
  </outline>
</glyph>
<glyph name="uni01D4" format="2">
  <advance width="522"/>
  <unicode hex="01D4"/>
  <note>
uni01D4
</note>
  <anchor x="261" y="0" name="bottom"/>
  <anchor x="440" y="0" name="ogonek"/>
  <anchor x="261" y="732" name="top"/>
  <anchor x="500" y="500" name="topright"/>
  <outline>
    <contour>
      <point x="440" y="0" type="line"/>
      <point x="440" y="500" type="line"/>
      <point x="405" y="500" type="line"/>
      <point x="405" y="73" type="line"/>
      <point x="405" y="73"/>
      <point x="339" y="23"/>
      <point x="237" y="23" type="curve" smooth="yes"/>
      <point x="139" y="23"/>
      <point x="112" y="72"/>
      <point x="112" y="242" type="curve" smooth="yes"/>
      <point x="112" y="500" type="line"/>
      <point x="77" y="500" type="line"/>
      <point x="77" y="240" type="line" smooth="yes"/>
      <point x="77" y="46"/>
      <point x="121" y="-9"/>
      <point x="236" y="-9" type="curve" smooth="yes"/>
      <point x="343" y="-9"/>
      <point x="405" y="40"/>
      <point x="405" y="40" type="curve"/>
      <point x="405" y="0" type="line"/>
    </contour>
    <contour>
      <point x="168" y="728" type="line"/>
      <point x="125" y="728" type="line"/>
      <point x="244" y="613" type="line"/>
      <point x="278" y="613" type="line"/>
      <point x="397" y="728" type="line"/>
      <point x="354" y="728" type="line"/>
      <point x="261" y="643" type="line"/>
    </contour>
  </outline>
</glyph>
<glyph name="uni01E9" format="2">
  <advance width="453"/>
  <unicode hex="01E9"/>
  <note>
uni01E9
</note>
  <anchor x="247" y="0" name="bottom"/>
  <anchor x="99" y="942" name="top"/>
  <outline>
    <contour>
      <point x="82" y="730" type="line"/>
      <point x="82" y="0" type="line"/>
      <point x="117" y="0" type="line"/>
      <point x="117" y="257" type="line"/>
      <point x="213" y="257" type="line"/>
      <point x="393" y="0" type="line"/>
      <point x="435" y="0" type="line"/>
      <point x="243" y="274" type="line"/>
      <point x="427" y="500" type="line"/>
      <point x="385" y="500" type="line"/>
      <point x="213" y="289" type="line"/>
      <point x="117" y="289" type="line"/>
      <point x="117" y="730" type="line"/>
    </contour>
    <contour>
      <point x="6" y="938" type="line"/>
      <point x="-37" y="938" type="line"/>
      <point x="82" y="823" type="line"/>
      <point x="116" y="823" type="line"/>
      <point x="235" y="938" type="line"/>
      <point x="192" y="938" type="line"/>
      <point x="99" y="853" type="line"/>
    </contour>
  </outline>
</glyph>
<glyph name="uni01EA" format="2">
  <advance width="662"/>
  <unicode hex="01EA"/>
  <note>
uni01EA
</note>
  <anchor x="331" y="0" name="bottom"/>
  <anchor x="331" y="350" name="center"/>
  <anchor x="386" y="0" name="ogonek"/>
  <anchor x="331" y="700" name="top"/>
  <anchor x="643" y="700" name="topright"/>
  <outline>
    <contour>
      <point x="331" y="24" type="curve" smooth="yes"/>
      <point x="141" y="24"/>
      <point x="102" y="139"/>
      <point x="102" y="347" type="curve" smooth="yes"/>
      <point x="102" y="557"/>
      <point x="141" y="675"/>
      <point x="331" y="675" type="curve" smooth="yes"/>
      <point x="522" y="675"/>
      <point x="560" y="557"/>
      <point x="560" y="347" type="curve" smooth="yes"/>
      <point x="560" y="139"/>
      <point x="522" y="24"/>
    </contour>
    <contour>
      <point x="64" y="347" type="curve" smooth="yes"/>
      <point x="64" y="117"/>
      <point x="117" y="-10"/>
      <point x="331" y="-10" type="curve" smooth="yes"/>
      <point x="340" y="-10" type="line"/>
      <point x="314" y="-36"/>
      <point x="268" y="-86"/>
      <point x="268" y="-118" type="curve" smooth="yes"/>
      <point x="268" y="-169"/>
      <point x="302" y="-200"/>
      <point x="348" y="-200" type="curve" smooth="yes"/>
      <point x="376" y="-200"/>
      <point x="412" y="-192"/>
      <point x="412" y="-192" type="curve"/>
      <point x="408" y="-159" type="line"/>
      <point x="408" y="-159"/>
      <point x="371" y="-166"/>
      <point x="352" y="-166" type="curve" smooth="yes"/>
      <point x="324" y="-166"/>
      <point x="305" y="-143"/>
      <point x="305" y="-116" type="curve" smooth="yes"/>
      <point x="305" y="-90"/>
      <point x="359" y="-29"/>
      <point x="379" y="-8" type="curve"/>
      <point x="553" y="11"/>
      <point x="598" y="135"/>
      <point x="598" y="347" type="curve" smooth="yes"/>
      <point x="598" y="577"/>
      <point x="545" y="709"/>
      <point x="331" y="709" type="curve" smooth="yes"/>
      <point x="117" y="709"/>
      <point x="64" y="577"/>
    </contour>
  </outline>
</glyph>
<glyph name="uni01EB" format="2">
  <advance width="518"/>
  <unicode hex="01EB"/>
  <note>
uni01EB
</note>
  <anchor x="259" y="0" name="bottom"/>
  <anchor x="259" y="250" name="center"/>
  <anchor x="306" y="0" name="ogonek"/>
  <anchor x="259" y="500" name="top"/>
  <anchor x="502" y="500" name="topright"/>
  <outline>
    <contour>
      <point x="259" y="510" type="curve" smooth="yes"/>
      <point x="111" y="510"/>
      <point x="56" y="430"/>
      <point x="56" y="243" type="curve" smooth="yes"/>
      <point x="56" y="94"/>
      <point x="99" y="-10"/>
      <point x="259" y="-10" type="curve"/>
      <point x="234" y="-36"/>
      <point x="188" y="-86"/>
      <point x="188" y="-118" type="curve" smooth="yes"/>
      <point x="188" y="-169"/>
      <point x="222" y="-200"/>
      <point x="268" y="-200" type="curve" smooth="yes"/>
      <point x="296" y="-200"/>
      <point x="332" y="-192"/>
      <point x="332" y="-192" type="curve"/>
      <point x="328" y="-159" type="line"/>
      <point x="328" y="-159"/>
      <point x="291" y="-166"/>
      <point x="272" y="-166" type="curve" smooth="yes"/>
      <point x="244" y="-166"/>
      <point x="225" y="-143"/>
      <point x="225" y="-116" type="curve" smooth="yes"/>
      <point x="225" y="-90"/>
      <point x="279" y="-29"/>
      <point x="299" y="-8" type="curve"/>
      <point x="426" y="9"/>
      <point x="462" y="107"/>
      <point x="462" y="243" type="curve" smooth="yes"/>
      <point x="462" y="430"/>
      <point x="407" y="510"/>
    </contour>
    <contour>
      <point x="93" y="243" type="curve" smooth="yes"/>
      <point x="93" y="413"/>
      <point x="131" y="478"/>
      <point x="259" y="478" type="curve" smooth="yes"/>
      <point x="387" y="478"/>
      <point x="425" y="413"/>
      <point x="425" y="243" type="curve" smooth="yes"/>
      <point x="425" y="113"/>
      <point x="392" y="22"/>
      <point x="259" y="22" type="curve" smooth="yes"/>
      <point x="126" y="22"/>
      <point x="93" y="113"/>
    </contour>
  </outline>
</glyph>
<glyph name="AEacute" format="2">
  <advance width="859"/>
  <unicode hex="01FC"/>
  <note>
AEacute
</note>
  <anchor x="559" y="0" name="bottom"/>
  <anchor x="559" y="912" name="top"/>
  <outline>
    <contour>
      <point x="314" y="666" type="line"/>
      <point x="404" y="666" type="line"/>
      <point x="404" y="249" type="line"/>
      <point x="146" y="249" type="line"/>
    </contour>
    <contour>
      <point x="290" y="700" type="line"/>
      <point x="10" y="0" type="line"/>
      <point x="46" y="0" type="line"/>
      <point x="133" y="215" type="line"/>
      <point x="404" y="215" type="line"/>
      <point x="404" y="0" type="line"/>
      <point x="813" y="0" type="line"/>
      <point x="813" y="34" type="line"/>
      <point x="440" y="34" type="line"/>
      <point x="440" y="341" type="line"/>
      <point x="753" y="341" type="line"/>
      <point x="753" y="375" type="line"/>
      <point x="440" y="375" type="line"/>
      <point x="440" y="666" type="line"/>
      <point x="813" y="666" type="line"/>
      <point x="813" y="700" type="line"/>
    </contour>
    <contour>
      <point x="647" y="912" type="line"/>
      <point x="456" y="816" type="line"/>
      <point x="469" y="789" type="line"/>
      <point x="662" y="881" type="line"/>
    </contour>
  </outline>
</glyph>
<glyph name="Oslashacute" format="2">
  <advance width="662"/>
  <unicode hex="01FE"/>
  <note>
Oslashacute
</note>
  <anchor x="331" y="0" name="bottom"/>
  <anchor x="331" y="350" name="center"/>
  <anchor x="386" y="0" name="ogonek"/>
  <anchor x="331" y="912" name="top"/>
  <anchor x="643" y="700" name="topright"/>
  <outline>
    <contour>
      <point x="331" y="24" type="curve" smooth="yes"/>
      <point x="276" y="24"/>
      <point x="234" y="34"/>
      <point x="201" y="52" type="curve"/>
      <point x="487" y="627" type="line"/>
      <point x="545" y="574"/>
      <point x="560" y="479"/>
      <point x="560" y="347" type="curve" smooth="yes"/>
      <point x="560" y="139"/>
      <point x="522" y="24"/>
    </contour>
    <contour>
      <point x="64" y="347" type="curve" smooth="yes"/>
      <point x="64" y="199"/>
      <point x="86" y="94"/>
      <point x="158" y="38" type="curve"/>
      <point x="124" y="-31" type="line"/>
      <point x="153" y="-45" type="line"/>
      <point x="185" y="20" type="line"/>
      <point x="223" y="0"/>
      <point x="270" y="-10"/>
      <point x="331" y="-10" type="curve" smooth="yes"/>
      <point x="545" y="-10"/>
      <point x="598" y="117"/>
      <point x="598" y="347" type="curve" smooth="yes"/>
      <point x="598" y="495"/>
      <point x="576" y="602"/>
      <point x="503" y="660" type="curve"/>
      <point x="538" y="730" type="line"/>
      <point x="509" y="744" type="line"/>
      <point x="476" y="678" type="line"/>
      <point x="439" y="698"/>
      <point x="391" y="709"/>
      <point x="331" y="709" type="curve" smooth="yes"/>
      <point x="117" y="709"/>
      <point x="64" y="577"/>
    </contour>
    <contour>
      <point x="102" y="347" type="curve" smooth="yes"/>
      <point x="102" y="557"/>
      <point x="141" y="675"/>
      <point x="331" y="675" type="curve" smooth="yes"/>
      <point x="386" y="675"/>
      <point x="428" y="665"/>
      <point x="461" y="646" type="curve"/>
      <point x="175" y="71" type="line"/>
      <point x="117" y="123"/>
      <point x="102" y="217"/>
    </contour>
    <contour>
      <point x="419" y="912" type="line"/>
      <point x="228" y="816" type="line"/>
      <point x="241" y="789" type="line"/>
      <point x="434" y="881" type="line"/>
    </contour>
  </outline>
</glyph>
<glyph name="oslashacute" format="2">
  <advance width="518"/>
  <unicode hex="01FF"/>
  <note>
oslashacute
</note>
  <anchor x="259" y="0" name="bottom"/>
  <anchor x="259" y="250" name="center"/>
  <anchor x="306" y="0" name="ogonek"/>
  <anchor x="264" y="732" name="top"/>
  <anchor x="502" y="500" name="topright"/>
  <outline>
    <contour>
      <point x="416" y="530" type="line"/>
      <point x="387" y="544" type="line"/>
      <point x="361" y="491" type="line"/>
      <point x="333" y="504"/>
      <point x="300" y="510"/>
      <point x="259" y="510" type="curve" smooth="yes"/>
      <point x="111" y="510"/>
      <point x="56" y="430"/>
      <point x="56" y="243" type="curve" smooth="yes"/>
      <point x="56" y="147"/>
      <point x="74" y="69"/>
      <point x="130" y="26" type="curve"/>
      <point x="102" y="-30" type="line"/>
      <point x="131" y="-44" type="line"/>
      <point x="158" y="10" type="line"/>
      <point x="185" y="-3"/>
      <point x="218" y="-10"/>
      <point x="259" y="-10" type="curve" smooth="yes"/>
      <point x="419" y="-10"/>
      <point x="462" y="94"/>
      <point x="462" y="243" type="curve" smooth="yes"/>
      <point x="462" y="360"/>
      <point x="441" y="435"/>
      <point x="389" y="475" type="curve"/>
    </contour>
    <contour>
      <point x="93" y="243" type="curve" smooth="yes"/>
      <point x="93" y="413"/>
      <point x="131" y="478"/>
      <point x="259" y="478" type="curve" smooth="yes"/>
      <point x="295" y="478"/>
      <point x="323" y="473"/>
      <point x="346" y="462" type="curve"/>
      <point x="146" y="59" type="line"/>
      <point x="106" y="98"/>
      <point x="93" y="163"/>
    </contour>
    <contour>
      <point x="352" y="732" type="line"/>
      <point x="161" y="636" type="line"/>
      <point x="174" y="609" type="line"/>
      <point x="367" y="701" type="line"/>
    </contour>
    <contour>
      <point x="173" y="40" type="curve"/>
      <point x="373" y="444" type="line"/>
      <point x="411" y="409"/>
      <point x="425" y="345"/>
      <point x="425" y="243" type="curve" smooth="yes"/>
      <point x="425" y="113"/>
      <point x="392" y="22"/>
      <point x="259" y="22" type="curve" smooth="yes"/>
      <point x="224" y="22"/>
      <point x="195" y="28"/>
    </contour>
  </outline>
</glyph>
<glyph name="uni021A" format="2">
  <advance width="522"/>
  <unicode hex="021A"/>
  <note>
uni021A
</note>
  <anchor x="217" y="-238" name="bottom"/>
  <anchor x="260" y="344" name="center"/>
  <anchor x="260" y="700" name="top"/>
  <outline>
    <contour>
      <point x="509" y="700" type="line"/>
      <point x="13" y="700" type="line"/>
      <point x="13" y="666" type="line"/>
      <point x="243" y="666" type="line"/>
      <point x="243" y="0" type="line"/>
      <point x="279" y="0" type="line"/>
      <point x="279" y="666" type="line"/>
      <point x="509" y="666" type="line"/>
    </contour>
    <contour>
      <point x="261" y="-99" type="line"/>
      <point x="178" y="-236" type="line"/>
      <point x="199" y="-251" type="line"/>
      <point x="290" y="-121" type="line"/>
    </contour>
  </outline>
</glyph>
<glyph name="uni021B" format="2">
  <advance width="345"/>
  <unicode hex="021B"/>
  <note>
uni021B
</note>
  <anchor x="173" y="-238" name="bottom"/>
  <anchor x="120" y="272" name="center"/>
  <anchor x="121" y="663" name="top"/>
  <anchor x="216" y="730" name="topright"/>
  <outline>
    <contour>
      <point x="138" y="178" type="curve" smooth="yes"/>
      <point x="138" y="468" type="line"/>
      <point x="320" y="468" type="line"/>
      <point x="320" y="500" type="line"/>
      <point x="138" y="500" type="line"/>
      <point x="138" y="663" type="line"/>
      <point x="103" y="663" type="line"/>
      <point x="103" y="500" type="line"/>
      <point x="24" y="500" type="line"/>
      <point x="24" y="468" type="line"/>
      <point x="103" y="468" type="line"/>
      <point x="103" y="168" type="line" smooth="yes"/>
      <point x="103" y="24"/>
      <point x="139" y="-10"/>
      <point x="230" y="-10" type="curve" smooth="yes"/>
      <point x="265" y="-10"/>
      <point x="331" y="-2"/>
      <point x="331" y="-2" type="curve"/>
      <point x="328" y="30" type="line"/>
      <point x="328" y="30"/>
      <point x="258" y="22"/>
      <point x="230" y="22" type="curve" smooth="yes"/>
      <point x="149" y="22"/>
      <point x="138" y="59"/>
    </contour>
    <contour>
      <point x="217" y="-99" type="line"/>
      <point x="134" y="-236" type="line"/>
      <point x="155" y="-251" type="line"/>
      <point x="246" y="-121" type="line"/>
    </contour>
  </outline>
</glyph>
<glyph name="uni021E" format="2">
  <advance width="678"/>
  <unicode hex="021E"/>
  <note>
uni021E
</note>
  <anchor x="339" y="0" name="bottom"/>
  <anchor x="339" y="537" name="center"/>
  <anchor x="339" y="912" name="top"/>
  <outline>
    <contour>
      <point x="130" y="339" type="line"/>
      <point x="548" y="339" type="line"/>
      <point x="548" y="0" type="line"/>
      <point x="584" y="0" type="line"/>
      <point x="584" y="700" type="line"/>
      <point x="548" y="700" type="line"/>
      <point x="548" y="373" type="line"/>
      <point x="130" y="373" type="line"/>
      <point x="130" y="700" type="line"/>
      <point x="94" y="700" type="line"/>
      <point x="94" y="0" type="line"/>
      <point x="130" y="0" type="line"/>
    </contour>
    <contour>
      <point x="246" y="908" type="line"/>
      <point x="203" y="908" type="line"/>
      <point x="322" y="793" type="line"/>
      <point x="356" y="793" type="line"/>
      <point x="475" y="908" type="line"/>
      <point x="432" y="908" type="line"/>
      <point x="339" y="823" type="line"/>
    </contour>
  </outline>
</glyph>
<glyph name="uni021F" format="2">
  <advance width="532"/>
  <unicode hex="021F"/>
  <note>
uni021F
</note>
  <anchor x="265" y="0" name="bottom"/>
  <anchor x="208" y="614" name="center"/>
  <anchor x="100" y="942" name="top"/>
  <outline>
    <contour>
      <point x="82" y="730" type="line"/>
      <point x="82" y="0" type="line"/>
      <point x="117" y="0" type="line"/>
      <point x="117" y="438" type="line"/>
      <point x="117" y="438"/>
      <point x="202" y="478"/>
      <point x="298" y="478" type="curve" smooth="yes"/>
      <point x="402" y="478"/>
      <point x="420" y="429"/>
      <point x="420" y="259" type="curve" smooth="yes"/>
      <point x="420" y="0" type="line"/>
      <point x="455" y="0" type="line"/>
      <point x="455" y="261" type="line" smooth="yes"/>
      <point x="455" y="455"/>
      <point x="423" y="510"/>
      <point x="303" y="510" type="curve" smooth="yes"/>
      <point x="201" y="510"/>
      <point x="117" y="470"/>
      <point x="117" y="470" type="curve"/>
      <point x="117" y="730" type="line"/>
    </contour>
    <contour>
      <point x="7" y="938" type="line"/>
      <point x="-36" y="938" type="line"/>
      <point x="83" y="823" type="line"/>
      <point x="117" y="823" type="line"/>
      <point x="236" y="938" type="line"/>
      <point x="193" y="938" type="line"/>
      <point x="100" y="853" type="line"/>
    </contour>
  </outline>
</glyph>
<glyph name="uni0232" format="2">
  <advance width="542"/>
  <unicode hex="0232"/>
  <note>
uni0232
</note>
  <anchor x="271" y="0" name="bottom"/>
  <anchor x="271" y="854" name="top"/>
  <outline>
    <contour>
      <point x="253" y="301" type="line"/>
      <point x="253" y="0" type="line"/>
      <point x="289" y="0" type="line"/>
      <point x="289" y="301" type="line"/>
      <point x="517" y="700" type="line"/>
      <point x="477" y="700" type="line"/>
      <point x="271" y="337" type="line"/>
      <point x="65" y="700" type="line"/>
      <point x="25" y="700" type="line"/>
    </contour>
    <contour>
      <point x="137" y="854" type="line"/>
      <point x="137" y="822" type="line"/>
      <point x="404" y="822" type="line"/>
      <point x="404" y="854" type="line"/>
    </contour>
  </outline>
</glyph>
<glyph name="uni0233" format="2">
  <advance width="474"/>
  <unicode hex="0233"/>
  <note>
uni0233
</note>
  <anchor x="237" y="0" name="bottom"/>
  <anchor x="237" y="674" name="top"/>
  <outline>
    <contour>
      <point x="224" y="32" type="line"/>
      <point x="66" y="500" type="line"/>
      <point x="30" y="500" type="line"/>
      <point x="199" y="0" type="line"/>
      <point x="235" y="0" type="line"/>
      <point x="161" y="-230" type="line"/>
      <point x="198" y="-230" type="line"/>
      <point x="443" y="500" type="line"/>
      <point x="407" y="500" type="line"/>
      <point x="244" y="32" type="line"/>
    </contour>
    <contour>
      <point x="103" y="674" type="line"/>
      <point x="103" y="642" type="line"/>
      <point x="370" y="642" type="line"/>
      <point x="370" y="674" type="line"/>
    </contour>
  </outline>
</glyph>
